<?xml version="1.0" encoding="UTF-8"?>
<svg width="85px" height="85px" viewBox="0 0 85 85" version="1.1" xmlns="http://www.w3.org/2000/svg" xmlns:xlink="http://www.w3.org/1999/xlink">
    <!-- Generator: Sketch 49.3 (51167) - http://www.bohemiancoding.com/sketch -->
    <title>业务机会</title>
    <desc>Created with Sketch.</desc>
    <defs></defs>
    <g id="Page-1" stroke="none" stroke-width="1" fill="none" fill-rule="evenodd">
        <g id="Desktop-HD-Copy-28" transform="translate(-681.000000, -1155.000000)" fill="#FFFFFF" fill-rule="nonzero">
            <g id="业务机会" transform="translate(681.000000, 1155.000000)">
                <path d="M39.9486087,28.6899123 C41.4517446,28.6899123 42.8802973,28.9423473 44.26869,29.3037883 L48.8354691,24.7427464 C38.7218086,20.4950124 27.0161694,23.9986809 20.8993979,33.1044197 C14.7826265,42.2101585 15.965289,54.3715314 23.7218788,62.1281212 C31.4784686,69.884711 43.6398415,71.0673735 52.7455803,64.9506021 C61.8513191,58.8338306 65.3549876,47.1281914 61.1072536,37.0145309 L56.5404745,41.5755729 C56.9019156,42.9639655 57.1543506,44.3982554 57.1543506,45.9013913 C57.1543502,52.8633067 52.9602869,59.1395992 46.5280936,61.8032726 C40.0959004,64.466946 32.6924864,62.9933531 27.7704895,58.0697149 C22.8484925,53.1460768 21.3773679,45.742172 24.0431856,39.3108671 C26.7090033,32.8795622 32.9866937,28.6875916 39.9486087,28.6899123 Z" id="Shape"></path>
                <path d="M71.2579286,33.7021964 C72.6187179,37.372375 73.4035714,41.3305214 73.4035714,45.475 C73.4035714,64.1856183 58.2356183,79.3535714 39.525,79.3535714 C20.8143817,79.3535714 5.64642857,64.1856183 5.64642857,45.475 C5.64642857,26.7643817 20.8143817,11.5964286 39.525,11.5964286 C43.6694786,11.5964286 47.627625,12.3812821 51.2978036,13.7420714 L55.6399071,9.40561429 C50.5719952,7.13042681 45.0801959,5.952788 39.525,5.95 C17.6959453,5.95 2.507518e-15,23.6459453 0,45.475 C-2.507518e-15,67.3040547 17.6959453,85 39.525,85 C61.3540547,85 79.05,67.3040547 79.05,45.475 C79.0470019,39.9222408 77.8713614,34.4327115 75.6000321,29.3657393 L71.2579286,33.7021964 Z" id="Shape"></path>
                <path d="M40.9504224,39.9167408 C40.5252334,39.8203646 40.1227212,39.6616274 39.6691863,39.6616274 C36.5381812,39.6616274 34,42.1998086 34,45.3308137 C34,48.4618188 36.5381812,51 39.6691863,51 C42.8001914,51 45.3383726,48.4618188 45.3383726,45.3308137 C45.3383726,44.8205869 45.1739662,44.367052 45.0492441,43.8965096 L63.5081147,25.4433081 L70.8270342,25.4433081 L85,11.3156959 L76.4962205,11.3156959 L76.4508671,11.3610494 C76.4695286,10.5837921 76.1706465,9.83249252 75.6231659,9.28045798 C75.1042673,8.76666422 74.4086503,8.47057071 73.6786349,8.45275678 L73.6786349,0 L59.5510227,14.1729658 L59.5510227,21.3161405 L40.9504224,39.9167408 Z" id="Shape"></path>
            </g>
        </g>
    </g>
</svg>