<?xml version="1.0" encoding="UTF-8"?>
<svg width="86px" height="86px" viewBox="0 0 86 86" version="1.1" xmlns="http://www.w3.org/2000/svg" xmlns:xlink="http://www.w3.org/1999/xlink">
    <!-- Generator: Sketch 49.3 (51167) - http://www.bohemiancoding.com/sketch -->
    <title>Group 7</title>
    <desc>Created with Sketch.</desc>
    <defs></defs>
    <g id="Page-1" stroke="none" stroke-width="1" fill="none" fill-rule="evenodd">
        <g id="Desktop-HD-Copy-28" transform="translate(-1078.000000, -1158.000000)" fill="#FFFFFF" fill-rule="nonzero">
            <g id="Group-7" transform="translate(1078.000000, 1158.000000)">
                <path d="M12.6347349,72.5530043 C12.2380256,69.578624 12.0000001,66.5238551 12,63.4690861 C12,36.1369431 30.0899437,11.6987919 55.9553897,4.06186959 C56.8281501,3.82070361 57.7009106,4.30303556 57.9389361,5.18731074 C58.1769616,6.07158591 57.7009105,6.95586119 56.8281501,7.19702716 C32.3115158,14.4320062 15.1736743,37.583939 15.1736744,63.5494748 C15.1736744,66.4434664 15.4117,69.337458 15.8084092,72.1510609 C15.967093,73.0353361 15.3323581,73.8392226 14.4595977,74 C14.3802558,73.9196114 14.3009139,73.9196114 14.2215721,73.9196114 C13.4281535,73.9196114 12.7934186,73.3568908 12.6347349,72.5530043 Z" id="Shape"></path>
                <path d="M57,31 C57,34.3137085 59.6862915,37 63,37 C66.3137085,37 69,34.3137085 69,31 C69,27.6862915 66.3137085,25 63,25 C59.6862915,25 57,27.6862915 57,31 Z" id="Shape"></path>
                <path d="M78.3988364,63 C78.2407196,63 78.0035444,63 77.8454277,62.9204773 C53.9697944,54.0934514 38,30.9523294 38,5.42552469 L38,3.51697859 C38,2.64222831 38.7905839,1.92652349 39.6602261,2.00604621 C40.5298683,2.00604621 41.2413939,2.80127376 41.1623355,3.67602404 L41.1623355,5.42552469 C41.1623355,29.6799653 56.3415461,51.5487231 78.9522451,59.8986125 C79.742829,60.2167035 80.2171794,61.0914539 79.9009458,61.9662042 C79.5847123,62.6023862 79.0313036,63 78.3988364,63 Z" id="Shape"></path>
                <path d="M56.0051728,61 C36.2923758,61 17.2978588,53.8346684 2.53321325,40.7921546 C1.89474214,40.2285892 1.81493318,39.1819677 2.37359542,38.537893 C2.93225767,37.8938183 3.96977331,37.8133089 4.60824452,38.3768743 C18.8142278,50.936332 37.0904647,57.7796262 56.0051728,57.7796262 C64.5447246,57.7796262 72.8448496,56.4109674 80.905548,53.6736497 C81.7036369,53.3516124 82.6613437,53.8346684 82.9007704,54.7202712 C83.220006,55.5253646 82.7411526,56.4914768 81.8632548,56.7330047 C73.5631297,59.5508318 64.8639601,60.9999999 56.0051728,61 Z" id="Shape"></path>
                <path d="M43,86 C19.2703703,86 0,66.7296297 0,43 C0,19.2703703 19.2703703,0 43,0 C66.7296297,0 86,19.2703703 86,43 C86,66.7296297 66.7296297,86 43,86 Z M43,6.37037031 C22.7740741,6.37037031 6.37037031,22.774074 6.37037031,43 C6.37037031,63.225926 22.774074,79.6296297 43,79.6296297 C63.225926,79.6296297 79.6296297,63.225926 79.6296297,43 C79.6296297,22.774074 63.225926,6.37037031 43,6.37037031 Z" id="Shape"></path>
                <path d="M21,26 C21,29.3137085 23.6862915,32 27,32 C30.3137085,32 33,29.3137085 33,26 C33,22.6862915 30.3137085,20 27,20 C23.6862915,20 21,22.6862915 21,26 Z" id="Shape"></path>
                <path d="M38,59 C37.9999999,61.1435935 39.1435935,63.1243556 40.9999999,64.1961524 C42.8564064,65.2679492 45.1435936,65.2679492 47.0000001,64.1961524 C48.8564065,63.1243556 50.0000001,61.1435935 50,59 C50.0000001,56.8564065 48.8564065,54.8756444 47.0000001,53.8038476 C45.1435936,52.7320508 42.8564064,52.7320508 40.9999999,53.8038476 C39.1435935,54.8756444 37.9999999,56.8564065 38,59 Z" id="Shape"></path>
            </g>
        </g>
    </g>
</svg>