<?xml version="1.0" encoding="UTF-8"?>
<svg width="80px" height="80px" viewBox="0 0 80 80" version="1.1" xmlns="http://www.w3.org/2000/svg" xmlns:xlink="http://www.w3.org/1999/xlink">
    <!-- Generator: Sketch 49.3 (51167) - http://www.bohemiancoding.com/sketch -->
    <title>盈利模式</title>
    <desc>Created with Sketch.</desc>
    <defs></defs>
    <g id="Page-1" stroke="none" stroke-width="1" fill="none" fill-rule="evenodd">
        <g id="Desktop-HD-Copy-28" transform="translate(-830.000000, -1858.000000)" fill="#F17E01" fill-rule="nonzero">
            <g id="盈利模式" transform="translate(830.000000, 1858.000000)">
                <path d="M66.1157025,40.3300777 C66.1157025,26.1071181 54.5488062,14.5454545 40.3305785,14.5454545 C26.1123509,14.5454545 14.5454545,26.1121262 14.5454545,40.3300777 C14.5454545,54.5480292 26.1123509,66.1157025 40.3305785,66.1157025 C54.5488062,66.1157025 66.1157025,54.5490308 66.1157025,40.3300777 Z M17.4602163,40.3300777 C17.4602163,27.7197213 27.7199772,17.4601596 40.3305785,17.4601596 C52.9411799,17.4601596 63.1989375,27.7197213 63.1989375,40.3300777 C63.1989375,52.9404341 52.9411799,63.2009974 40.3305785,63.2009974 C27.7199772,63.2009974 17.4602163,52.9414358 17.4602163,40.3300777 Z" id="Shape"></path>
                <path d="M41.808877,53.4299108 L41.808877,52.5973099 C45.1833894,51.9123311 47.6033058,48.999056 47.6033058,45.6215458 C47.6033058,42.2440357 45.1833894,39.3307605 41.808877,38.6457817 L41.808877,30.2999024 C43.5092308,30.9060014 44.6427588,32.4879263 44.6473541,34.2612144 C44.6473541,35.0598857 45.3079585,35.7073367 46.1228554,35.7073367 C46.9377522,35.7073367 47.5983566,35.0598857 47.5983566,34.2612144 C47.5936725,30.8858426 45.1762399,27.975523 41.804822,27.2864439 L41.804822,26.5700892 C41.804822,25.7714179 41.1442176,25.1239669 40.3293207,25.1239669 C39.5144239,25.1239669 38.8538195,25.7714179 38.8538195,26.5700892 L38.8538195,27.2864439 C35.4786658,27.9704149 33.0578512,30.8837899 33.0578512,34.2617112 C33.0578512,37.6396325 35.4786658,40.5530075 38.8538195,41.2369785 L38.8538195,49.5828578 C37.153655,48.9765167 36.0202344,47.3947416 36.0153423,45.6215458 C36.0153423,44.8228745 35.3547379,44.1754235 34.5398411,44.1754235 C33.7249442,44.1754235 33.0643398,44.8228745 33.0643398,45.6215458 C33.0689339,48.9971549 35.4862993,51.9078082 38.8578745,52.5973099 L38.8578745,53.4299108 C38.8578745,54.2285821 39.5184789,54.8760331 40.3333757,54.8760331 C41.1482726,54.8760331 41.808877,54.2285821 41.808877,53.4299108 Z M44.6473541,45.6225394 C44.642462,47.3957352 43.5090415,48.9775102 41.808877,49.5838514 L41.808877,41.6602338 C43.5112284,42.2646813 44.6470509,43.846983 44.6524228,45.6215458 L44.6473541,45.6225394 Z M36.0102736,34.2661822 C36.014869,32.4928941 37.1483969,30.9109692 38.8487508,30.3048702 L38.8487508,38.2274942 C37.1500463,37.619621 36.0187347,36.037568 36.0153423,34.2651887 L36.0102736,34.2661822 Z" id="Shape"></path>
                <path d="M60.1763408,65.5921661 C60.1763408,66.3951181 60.8272614,67.0460393 61.6302126,67.0460393 L65.3623165,67.0460393 C58.4879794,73.4896959 49.4221526,77.0807412 39.9999975,77.0922535 C19.5478683,77.0922535 2.90878012,60.4531488 2.90878012,40.0009992 C2.89799793,32.7960658 4.99448281,25.7452564 8.94009985,19.7167195 C9.37965353,19.0445576 9.19108787,18.1433337 8.51892666,17.7037796 C7.84676544,17.2642255 6.94554243,17.4527913 6.5059887,18.1249532 C2.25083752,24.6263093 -0.0105902242,32.2299378 3.72860968e-05,40 C3.72860968e-05,62.0559067 17.9481097,80 39.9999975,80 C50.1415659,79.9869123 59.9008987,76.1286673 67.3098053,69.2033674 L67.3098053,72.7306338 C67.3098053,73.5338617 67.9609495,74.1850066 68.7641767,74.1850066 C69.5674039,74.1850066 70.2185481,73.5338617 70.2185481,72.7306338 L70.2185481,64.1372936 L61.6252165,64.1372936 C60.823827,64.1400473 60.1757853,64.7907712 60.1763408,65.5921661 Z M39.9999975,2.83996997e-15 C30.0204714,0.0176325302 20.405607,3.75328661 13.0319246,10.4778796 L13.0319246,7.0805126 C13.0319246,6.27728465 12.3807804,5.62613974 11.5775532,5.62613974 C10.774326,5.62613974 10.1231818,6.27728465 10.1231818,7.0805126 L10.1231818,15.6738528 L18.7165134,15.6738528 C19.5197406,15.6738528 20.1708848,15.0227079 20.1708848,14.2194799 C20.1708848,13.416252 19.5197406,12.765107 18.7165134,12.765107 L14.8425196,12.765107 C21.6973171,6.44392365 30.6755544,2.92672769 39.9999975,2.90974495 C60.4521268,2.90974495 77.091215,19.5488496 77.091215,40.0009992 C77.1022486,47.287634 74.9575241,54.4147041 70.9269984,60.485124 C70.6270931,60.9177463 70.5844664,61.4786895 70.8155544,61.9516627 C71.0466424,62.4246358 71.5153443,62.7357506 72.040936,62.7650459 C72.5665277,62.7943412 73.0669006,62.5372406 73.3491188,62.092878 C77.6973306,55.5461082 80.0113967,47.8592015 79.9999578,40 C79.9999578,17.9440933 62.0558823,0 39.9999975,0 Z" id="Shape"></path>
            </g>
        </g>
    </g>
</svg>