<?xml version="1.0" encoding="UTF-8"?>
<svg width="70px" height="55px" viewBox="0 0 70 55" version="1.1" xmlns="http://www.w3.org/2000/svg" xmlns:xlink="http://www.w3.org/1999/xlink">
    <!-- Generator: Sketch 49.3 (51167) - http://www.bohemiancoding.com/sketch -->
    <title>培训教育</title>
    <desc>Created with Sketch.</desc>
    <defs></defs>
    <g id="Page-1" stroke="none" stroke-width="1" fill="none" fill-rule="evenodd">
        <g id="Desktop-HD-Copy-30" transform="translate(-520.000000, -866.000000)" fill="#F17E01" fill-rule="nonzero">
            <g id="Group-3" transform="translate(415.000000, 866.000000)">
                <g id="培训教育" transform="translate(105.000000, 0.000000)">
                    <path d="M67.6688017,10.640048 L35.8656767,0.29014324 C33.6581583,-0.215981877 32.5359448,0.00643324528 31.1794141,0.450137337 C31.0067721,0.511995286 30.4151092,0.697247375 29.9710002,0.881936388 C29.872497,0.919099421 1.4109242,13.4399044 1.4109242,13.4399044 C0.905542161,13.6623195 0.510885826,14.0693432 0.288549891,14.5626785 C-0.0812594985,15.4139693 -0.0934819441,16.3514109 0.239660109,17.2151699 C0.584622553,18.0782853 1.22573807,18.7568727 2.11395606,19.1396036 L13.1506636,23.6912708 L13.1506636,43.8361283 C13.1506636,44.1446137 13.2124995,44.4528577 13.3481526,44.7365677 C13.3481526,44.7365677 13.939735,46.0442721 14.1248408,46.4020668 C16.8872743,51.5464924 25.260534,55 34.9655579,55 C44.3987931,55 52.7598304,51.5831728 55.7563399,46.4884588 C55.941526,46.1922807 56.225135,45.6494752 56.5212077,45.0820552 C56.6934476,44.7611018 56.7801305,44.4161773 56.7801305,44.0578999 L56.7924334,22.1372608 L60.5043579,20.323753 L60.5043579,36.4838808 C60.5043579,37.692725 61.478133,38.6676514 62.6871098,38.6676514 C63.8955237,38.6676514 64.8698617,37.692725 64.8698617,36.4838808 L64.8698617,18.1774672 L68.5936066,16.3514913 C69.0624822,16.1296393 69.4322916,15.7350033 69.6421638,15.2660412 C70.4064687,13.5266182 69.6049336,11.4789511 67.6688017,10.640048 Z M31.2779978,5.0517574 C31.771479,4.91605602 32.6839811,4.38579907 33.7690448,4.38579907 C34.6571824,4.38579907 36.3710587,5.0884378 36.6671314,5.13790807 L63.6241372,13.9213346 L35.7547097,27.5400579 C34.9655579,27.873399 34.8913387,27.799073 34.3240403,27.6760006 L6.23283981,16.0923958 L31.2779978,5.0517574 Z M52.4024043,43.5027872 C52.254368,43.7867385 52.0691818,44.1074507 51.9954451,44.2554593 C50.1211492,47.4135931 43.6840213,50.6206342 34.9655579,50.6206342 C26.0372222,50.6206342 19.6621715,47.4628221 17.9848017,44.3418513 C17.8862984,44.1692282 17.688729,43.7128951 17.5284702,43.3670054 L17.5284702,25.4800032 L32.831937,31.7836419 C32.9388742,31.8319633 33.0505136,31.8691088 33.1650791,31.8944875 C33.8434248,32.055286 34.4107232,32.1292903 34.9408718,32.1292903 C36.0012493,32.1292903 36.8151677,31.8333535 37.5670893,31.5122391 L52.4024043,24.2710785 L52.4023239,43.5027872 L52.4024043,43.5027872 Z M62.6871098,42.3309451 C61.4782134,42.3309451 60.5043579,43.3058714 60.5043579,44.5144744 L60.5043579,48.8321431 C60.5043579,50.0415505 61.478133,51.0154311 62.6871098,51.0154311 C63.8955237,51.0154311 64.8698617,50.0416309 64.8698617,48.8321431 L64.8698617,44.5144744 C64.8697813,43.3180177 63.8955237,42.3309451 62.6871098,42.3309451 Z" id="Shape"></path>
                </g>
            </g>
        </g>
    </g>
</svg>