<?xml version="1.0" encoding="UTF-8"?>
<svg width="55px" height="58px" viewBox="0 0 55 58" version="1.1" xmlns="http://www.w3.org/2000/svg" xmlns:xlink="http://www.w3.org/1999/xlink">
    <!-- Generator: Sketch 49.3 (51167) - http://www.bohemiancoding.com/sketch -->
    <title>房源推广</title>
    <desc>Created with Sketch.</desc>
    <defs></defs>
    <g id="Page-1" stroke="none" stroke-width="1" fill="none" fill-rule="evenodd">
        <g id="Desktop-HD-Copy-30" transform="translate(-848.000000, -1046.000000)" fill="#F17E01" fill-rule="nonzero">
            <g id="Group-4" transform="translate(725.000000, 863.000000)">
                <g id="房源推广" transform="translate(123.000000, 183.000000)">
                    <polygon id="Shape" points="39.2857143 0 35.3571429 0 35.3571429 7.86734092 39.2857143 7.90909091"></polygon>
                    <polygon id="Shape" points="47.1428571 19.1136364 55 19.1136364 55 15.1590909 47.184396 15.1590909"></polygon>
                    <polygon id="Shape" points="55 2.89618013 52.1153731 0 43.2142857 8.93660504 46.0683161 11.8636364"></polygon>
                    <polygon id="Shape" points="21.9412088 25.4898621 28.7694554 7.08845737 47.9624948 26.6770658 30.0664522 33.7441829 25.7276313 38.2056956 28.1493775 40.6958599 31.4662307 37.3138363 55 28.2692917 27.3213343 0 18.3727896 23.9816675 11.1309524 31.4281604 32.4850577 53.3863636 35.1849121 50.6101003 16.3171535 31.272826"></polygon>
                    <polygon id="Shape" points="0 41.6285377 13.2195218 55.1938611 17.7184431 50.5773411 15.0434967 47.8327559 13.3614858 49.5045773 5.54415621 41.4829249 8.47041395 38.6219008 27.37968 58 30.1190476 55.1889881 8.45279344 32.9545455"></polygon>
                </g>
            </g>
        </g>
    </g>
</svg>