<?xml version="1.0" encoding="UTF-8"?>
<svg width="55px" height="55px" viewBox="0 0 55 55" version="1.1" xmlns="http://www.w3.org/2000/svg" xmlns:xlink="http://www.w3.org/1999/xlink">
    <!-- Generator: Sketch 49.3 (51167) - http://www.bohemiancoding.com/sketch -->
    <title>跟踪定位</title>
    <desc>Created with Sketch.</desc>
    <defs></defs>
    <g id="Page-1" stroke="none" stroke-width="1" fill="none" fill-rule="evenodd">
        <g id="Desktop-HD-Copy-30" transform="translate(-228.000000, -1047.000000)" fill="#F17E01" fill-rule="nonzero">
            <g id="Group-2" transform="translate(105.000000, 866.000000)">
                <g id="跟踪定位" transform="translate(123.000000, 181.000000)">
                    <path d="M27.8021978,19.9450549 C23.4630906,19.9450549 19.9450549,23.4630907 19.9450549,27.8021978 C19.9450549,32.1413049 23.4630907,35.6593407 27.8021978,35.6593407 C32.1413049,35.6593407 35.6593407,32.1413049 35.6593407,27.8021978 C35.6593407,23.4630907 32.141305,19.9450549 27.8021978,19.9450549 Z M28.1043956,32.032967 C25.9386724,32.032967 24.1758242,30.2701188 24.1758242,28.1043956 C24.1758242,25.9386724 25.9386724,24.1758242 28.1043956,24.1758242 C30.2701188,24.1758242 32.032967,25.9386724 32.032967,28.1043956 C32.032967,30.2701188 30.2701188,32.032967 28.1043956,32.032967 Z" id="Shape"></path>
                    <path d="M55,25.5357143 L50.9716428,25.5357143 C50.0259375,14.0895268 40.9104732,4.9740625 29.4642857,4.02835716 L29.4642857,0 L25.5357143,0 L25.5357143,4.02835716 C14.0914911,4.9740625 4.97592858,14.0895268 4.02835716,25.5357143 L0,25.5357143 L0,29.4642857 L4.02835716,29.4642857 C4.97592858,40.9104732 14.0914911,50.0259375 25.5357143,50.9716428 L25.5357143,55 L29.4642857,55 L29.4642857,50.9716428 C40.9104732,50.0259375 50.0259375,40.9104732 50.9716428,29.4642857 L55,29.4642857 L55,25.5357143 Z M29.4642857,47.0430714 L29.4642857,43.2142857 L25.5357143,43.2142857 L25.5357143,47.0430715 C16.2705714,46.1184822 8.88151784,38.7294286 7.95692858,29.4642857 L11.7857143,29.4642857 L11.7857143,25.5357143 L7.95692858,25.5357143 C8.88151784,16.2705714 16.2705714,8.88151784 25.5357143,7.95692858 L25.5357143,11.7857143 L29.4642857,11.7857143 L29.4642857,7.95692858 C38.7294286,8.88151784 46.1184822,16.2705714 47.0430714,25.5357143 L43.2142857,25.5357143 L43.2142857,29.4642857 L47.0430715,29.4642857 C46.1184822,38.7294286 38.7294286,46.1184822 29.4642857,47.0430714 Z" id="Shape"></path>
                </g>
            </g>
        </g>
    </g>
</svg>