<?xml version="1.0" encoding="UTF-8"?>
<svg width="80px" height="76px" viewBox="0 0 80 76" version="1.1" xmlns="http://www.w3.org/2000/svg" xmlns:xlink="http://www.w3.org/1999/xlink">
    <!-- Generator: Sketch 49.3 (51167) - http://www.bohemiancoding.com/sketch -->
    <title>房子1</title>
    <desc>Created with Sketch.</desc>
    <defs></defs>
    <g id="Page-1" stroke="none" stroke-width="1" fill="none" fill-rule="evenodd">
        <g id="Desktop-HD-Copy-28" transform="translate(-281.000000, -1158.000000)" fill="#FFFFFF" fill-rule="nonzero">
            <g id="房子1" transform="translate(281.000000, 1158.000000)">
                <polygon id="Shape" points="21.9178082 46.0273973 33.9726027 46.0273973 33.9726027 58.0821918 21.9178082 58.0821918"></polygon>
                <path d="M78.8635728,31.1940743 L43.4513382,1.8225444 C42.2509235,0.0242874709 39.850094,-0.575131506 37.4492645,0.623706448 C36.8490572,0.623706448 36.8490572,1.22312543 36.2488498,1.22312543 L1.43682256,30.5946553 C-0.363799541,32.3929122 -0.363799541,34.7905881 0.836615191,36.5888451 C2.63723729,38.387102 5.03806676,38.387102 6.83868885,37.1882641 L7.43889622,36.5888451 L9.83972569,34.1911692 L9.83972569,67.7586319 C10.4399331,72.5539837 14.0411773,76.1504976 18.8428362,75.5510786 L60.8573518,75.5510786 C65.6590108,75.5510786 69.260255,71.9545647 69.8604623,67.7586319 L69.8604623,34.7905881 L72.8614992,37.1882641 C74.6621213,38.986521 77.0629507,38.986521 78.8635728,37.1882641 C80.0639876,35.3900071 80.6641949,32.9923312 78.8635728,31.1940743 Z M63.8583887,34.1911692 L63.8583887,68.3580509 C63.8583887,69.5568888 62.6579739,70.7557268 61.4575592,70.1563078 L57.856315,70.1563078 L57.856315,46.1795487 L39.850094,46.1795487 L39.850094,70.1563078 L18.2426288,70.1563078 C17.0422141,70.1563078 15.8417994,69.5568888 15.8417994,68.3580509 L15.8417994,34.1911692 L10.4399331,34.1911692 L39.850094,9.61499111 L69.260255,34.1911692 L63.8583887,34.1911692 Z" id="Shape"></path>
            </g>
        </g>
    </g>
</svg>