<?xml version="1.0" encoding="UTF-8"?>
<svg width="55px" height="48px" viewBox="0 0 55 48" version="1.1" xmlns="http://www.w3.org/2000/svg" xmlns:xlink="http://www.w3.org/1999/xlink">
    <!-- Generator: Sketch 49.3 (51167) - http://www.bohemiancoding.com/sketch -->
    <title>会员</title>
    <desc>Created with Sketch.</desc>
    <defs></defs>
    <g id="Page-1" stroke="none" stroke-width="1" fill="none" fill-rule="evenodd">
        <g id="Desktop-HD-Copy-30" transform="translate(-524.000000, -1051.000000)" fill="#F17E01" fill-rule="nonzero">
            <g id="Group-3" transform="translate(415.000000, 866.000000)">
                <g id="会员" transform="translate(109.000000, 185.000000)">
                    <path d="M51.5724077,10.2372398 C49.678891,10.2372398 48.1448812,11.7573448 48.1448812,13.6338437 C48.1448812,14.1089051 48.2407321,14.5601547 48.4165685,14.9719354 L37.2472363,19.5640213 L29.3935825,6.19145484 C30.2884325,5.57384897 30.8716354,4.55255183 30.8716354,3.39660397 C30.8716354,1.52017028 29.3376914,0 27.4441089,0 C25.5505264,0 24.0165824,1.52010504 24.0165824,3.39660397 C24.0165824,4.54465807 24.5918196,5.55806143 25.4706068,6.17560206 L16.7540971,19.5561276 L6.56743438,15.0352813 C6.75920207,14.607713 6.87098427,14.1406106 6.87098427,13.6418027 C6.87098427,11.765369 5.33704026,10.2451988 3.44345777,10.2451988 C1.54987528,10.2451988 0,11.75741 0,13.6338437 C0,15.4865309 1.49405001,16.9908484 3.3556383,17.0304477 L8.66865,39.7297958 C8.86844915,40.5928261 9.64335387,41.202473 10.5382039,41.202473 L44.3259195,41.202473 C45.2207695,41.202473 45.9956743,40.5928261 46.1954734,39.7297958 L51.5165166,17.0304477 L51.5724735,17.0304477 C53.4659902,17.0304477 55,15.5103426 55,13.6338437 C55,11.7573448 53.466056,10.2372398 51.5724735,10.2372398 L51.5724077,10.2372398 Z M42.8079067,37.401982 L12.0641823,37.401982 L7.94963637,19.8172743 L16.6822089,23.6968334 C17.5450648,24.0768434 18.5676941,23.7838606 19.0790746,22.9922004 L27.3562236,10.2767738 L34.7784824,22.9130017 C35.2578687,23.7364327 36.280498,24.0768434 37.1673166,23.712621 L46.9624125,19.6826236 L42.8078409,37.4019168 L42.8079067,37.401982 Z M43.9663468,43.9892996 L10.9056105,43.9972586 C9.84295553,43.9972586 8.98813115,44.8444361 8.98813115,45.8974388 C8.98813115,46.9504415 9.84302136,47.797619 10.9056105,47.797619 L43.9663468,47.78966 C45.0290018,47.78966 45.8838262,46.9424825 45.8838262,45.8894798 C45.8838262,44.8364771 45.028936,43.9892996 43.9663468,43.9892996 Z" id="Shape"></path>
                </g>
            </g>
        </g>
    </g>
</svg>