<?xml version="1.0" encoding="UTF-8"?>
<svg width="63px" height="55px" viewBox="0 0 63 55" version="1.1" xmlns="http://www.w3.org/2000/svg" xmlns:xlink="http://www.w3.org/1999/xlink">
    <!-- Generator: Sketch 49.3 (51167) - http://www.bohemiancoding.com/sketch -->
    <title>小货车</title>
    <desc>Created with Sketch.</desc>
    <defs></defs>
    <g id="Page-1" stroke="none" stroke-width="1" fill="none" fill-rule="evenodd">
        <g id="Desktop-HD-Copy-30" transform="translate(-1143.000000, -866.000000)" fill="#F17E01" fill-rule="nonzero">
            <g id="Group-5" transform="translate(1035.000000, 866.000000)">
                <g id="小货车" transform="translate(108.000000, 0.000000)">
                    <path d="M63,1.91556324 C62.9997283,0.857740455 62.1499595,0.000274153904 61.1016328,0 L26.1341719,0 C25.0858452,0.000274153904 24.2360764,0.857740455 24.2358047,1.91556324 L24.2358047,7.49637323 L11.4285937,7.45366169 L11.4221953,7.45366169 C10.7549165,7.45390505 10.1367612,7.80764262 9.79403906,8.3853694 L0.270703125,24.4007098 C0.0935703202,24.6992125 1.29611628e-05,25.0406147 0,25.3885385 L0,40.1016733 C0,44.1652301 3.27796875,47.4728918 7.30701563,47.4728918 L10.2857344,47.4728918 C10.3157578,51.5856165 13.6380234,54.9230769 17.7197344,54.9230769 C21.8014453,54.9230769 25.1237109,51.5856165 25.1537344,47.4728918 L38.2902187,47.4728918 C38.3207344,51.5856165 41.6420156,54.9230769 45.7242187,54.9230769 C49.8064219,54.9230769 53.1281953,51.5856165 53.1582187,47.4728918 L55.6915078,47.4728918 C59.7210469,47.4728918 62.9990156,44.1652301 62.9990156,40.1016733 L62.9990156,29.2201616 C62.9990156,29.1764568 62.9886797,29.1357318 62.9867109,29.0930202 C62.9891719,29.0498121 62.9990156,29.0090871 62.9990156,28.9653823 L62.9990156,1.91556324 L63,1.91556324 Z M59.2027734,3.83162313 L59.2027734,27.049819 L28.0453359,27.049819 L28.0330313,26.2502191 L28.0330313,3.83162313 L59.2027734,3.83162313 Z M17.7197344,51.0914538 C15.7125937,51.0914538 14.0800078,49.4415961 14.0800078,47.4172674 C14.0800078,45.3929387 15.7125937,43.7460609 17.7197344,43.7460609 C19.726875,43.7460609 21.3594609,45.3924421 21.3594609,47.4172674 C21.3594609,49.4420928 19.7273672,51.0914538 17.7197344,51.0914538 Z M45.7247109,51.0914538 C43.7185547,51.0914538 42.0849844,49.4415961 42.0849844,47.4172674 C42.0849844,45.3929387 43.7180625,43.7460609 45.7247109,43.7460609 C47.7313594,43.7460609 49.3649297,45.3924421 49.3649297,47.4172674 C49.3649297,49.4420928 47.7313594,51.0914538 45.7247109,51.0914538 Z M59.2027734,40.1016733 C59.2027734,42.0549816 57.6287578,43.6412686 55.6924922,43.6412686 L52.1413594,43.6412686 C50.8498594,41.416295 48.4602891,39.9144378 45.7247109,39.9144378 C42.9733828,39.9144378 40.572,41.4321877 39.2859141,43.6780204 C39.1661035,43.6541432 39.0443112,43.641837 38.9221875,43.6412686 L24.1363828,43.6412686 C22.8443906,41.416295 20.4553125,39.9144378 17.7197344,39.9144378 C14.9841562,39.9144378 12.5950781,41.4157983 11.3035781,43.6412686 L7.30701563,43.6412686 C5.37124219,43.6412686 3.79722656,42.0549816 3.79722656,40.1016733 L3.79722656,25.9199496 L12.4936875,11.289258 L23.9995547,11.328493 L24.2353125,26.3013736 L24.2353125,28.9653823 C24.2353125,29.1352351 24.2643516,29.2966451 24.3052031,29.4530885 C24.4213594,30.399199 25.2132891,31.1357248 26.1804375,31.1357248 L59.2027734,31.1357248 L59.2027734,40.1016733 Z" id="Shape"></path>
                    <path d="M15.248279,14.8114739 C14.3761414,14.2559615 13.2565909,14.5750255 12.7446691,15.5249849 L7.52015671,25.2624955 C7.18971564,25.8782269 7.18536308,26.6395817 7.5087386,27.2597651 C7.83211412,27.8799485 8.43408928,28.2647397 9.08790586,28.2691917 C9.74172244,28.2736437 10.3480501,27.8970801 10.6784912,27.2813487 L15.9025291,17.5438382 C16.1481165,17.0869077 16.217156,16.542157 16.0944339,16.0296289 C15.9717117,15.5171007 15.6672997,15.0788583 15.248279,14.8114739 Z" id="Shape"></path>
                </g>
            </g>
        </g>
    </g>
</svg>