<?xml version="1.0" encoding="UTF-8"?>
<svg width="33px" height="37px" viewBox="0 0 33 37" version="1.1" xmlns="http://www.w3.org/2000/svg" xmlns:xlink="http://www.w3.org/1999/xlink">
    <!-- Generator: Sketch 49.3 (51167) - http://www.bohemiancoding.com/sketch -->
    <title>Shape</title>
    <desc>Created with Sketch.</desc>
    <defs></defs>
    <g id="Page-1" stroke="none" stroke-width="1" fill="none" fill-rule="evenodd">
        <g id="Desktop-HD-Copy-30" transform="translate(-160.000000, -2775.000000)" fill="#F17E01" fill-rule="nonzero">
            <path d="M188.632357,2798.29705 C190.259703,2795.90225 191.214958,2793.00524 191.214958,2789.88593 C191.214958,2781.6779 184.613887,2775 176.500184,2775 C168.386481,2775 161.785369,2781.67786 161.785369,2789.88589 C161.785369,2793.0049 162.740379,2795.90175 164.367725,2798.29643 L160,2807.04069 L165.987054,2807.2439 L169.700193,2812 L173.470791,2804.45288 C175.468579,2804.87802 177.531952,2804.87802 179.529741,2804.45288 L183.299766,2811.99996 L187.012905,2807.2439 L193,2807.0406 L188.632357,2798.29705 Z M169.20652,2808 L167.213533,2805.3949 L164,2805.28401 L166.097756,2801 C167.499117,2802.43944 169.166117,2803.57393 171,2804.33627 L169.206438,2807.99996 L169.20652,2807.99996 L169.20652,2808 Z M174.983557,2797 L168,2789.87732 L169.750508,2788.09207 L174.983597,2793.42949 L183.249492,2785 L185,2786.78517 L174.983557,2797 Z M186.786481,2805.39473 L184.7934,2808 L183,2804.33619 C184.833917,2803.57384 186.500983,2802.43938 187.902473,2801 L190,2805.28383 L186.786481,2805.39473 Z" id="Shape"></path>
        </g>
    </g>
</svg>