<?xml version="1.0" encoding="UTF-8"?>
<svg width="56px" height="80px" viewBox="0 0 56 80" version="1.1" xmlns="http://www.w3.org/2000/svg" xmlns:xlink="http://www.w3.org/1999/xlink">
    <!-- Generator: Sketch 49.3 (51167) - http://www.bohemiancoding.com/sketch -->
    <title>公司宗旨</title>
    <desc>Created with Sketch.</desc>
    <defs></defs>
    <g id="Page-1" stroke="none" stroke-width="1" fill="none" fill-rule="evenodd">
        <g id="Desktop-HD-Copy-28" transform="translate(-242.000000, -1858.000000)" fill="#F17E01" fill-rule="nonzero">
            <g id="公司宗旨" transform="translate(242.000000, 1858.000000)">
                <path d="M55.8817457,61.2692187 L45.0787633,13.1975357 C45.3675527,12.9335782 45.5977168,12.6220762 45.7568139,12.2798677 L47.5868217,8.11694936 C47.8947787,7.41693757 47.8925407,6.63663609 47.5805724,5.93807621 L45.7578555,1.83915933 C45.2662419,0.722505792 44.0672432,-0.00753153257 42.7373533,5.86247039e-05 L32.5468037,5.86247039e-05 C31.2201009,-0.0032343991 30.0256566,0.72578958 29.5335923,1.83915933 L27.7098339,5.93337022 C27.3941173,6.63309506 27.3911303,7.41621565 27.7015015,8.11789056 L29.5315092,12.2798677 C29.6906064,12.6220762 29.9207704,12.9335782 30.2095599,13.1975357 L19.4065774,61.2701599 C19.1012879,62.6413001 19.531546,64.0621385 20.5668669,65.1017765 L34.0278913,78.5496122 C34.1374259,78.6594539 34.2535606,78.7637706 34.3757698,78.8620899 C35.2667963,79.5951626 36.4287435,80.0009941 37.633746,79.9999982 C37.7181118,79.9999982 37.8003944,79.9999982 37.8847602,79.994351 C39.1754735,79.9393363 40.3881124,79.419738 41.2520994,78.5514946 L54.7152069,65.1017765 C55.7530826,64.0629452 56.1857172,62.6415632 55.8817457,61.2692187 Z M41.9728537,14.131204 L43.2060519,19.6212114 L30.0824905,28.5258847 L33.316511,14.131204 L41.9728537,14.131204 Z M29.457559,32.6182132 L43.92264,22.8062251 L46.2192632,33.0276343 L26.0725134,46.3559379 L29.2232097,32.3377363 L29.457559,32.6182132 Z M32.5468037,2.93565489 L42.7373533,2.93565489 L44.5663194,7.02986578 L42.7373533,11.1956077 L32.5509699,11.1956077 L30.7209621,7.02986578 L32.5468037,2.93565489 Z M22.5906034,61.8546438 L25.330928,49.6586013 L25.7673385,50.1969665 L46.9316852,36.1947653 L49.3564194,46.9865404 L24.5726778,64.7252974 L22.9759778,63.1252609 C22.63247,62.780207 22.4895899,62.3087682 22.5906034,61.8537026 L22.5906034,61.8546438 Z M52.3113038,63.1252609 L38.8471547,76.584391 C38.5589594,76.8730773 38.1551644,77.045866 37.7254027,77.0644019 C37.2956835,77.0821867 36.8753751,76.9470226 36.5546977,76.6879227 L26.7578549,66.9051117 L50.0813399,50.2110845 L52.6977198,61.8518202 C52.7988099,62.307629 52.6555344,62.7797961 52.3113038,63.1252609 Z" id="Shape"></path>
                <path d="M18.4912134,72.4653444 C17.8295043,72.5180081 17.2320955,72.3148765 16.7480892,71.9640982 C16.6888077,71.9225375 16.6333267,71.8775942 16.5820774,71.8296175 L4.2679752,60.8746147 C3.75576721,60.4176534 3.54322911,59.792406 3.69511751,59.1893743 L14.2310227,17.4477005 L24,17.4477005 L24,14.5145171 L13.6429667,14.5145171 C13.5228335,14.5147271 13.4147759,14.4557844 13.370567,14.36593 L11.7466908,11.0819683 C11.7192378,11.0254283 11.7192378,10.9626489 11.7466908,10.9061089 L13.3670597,7.67669183 C13.4120115,7.58757638 13.519904,7.52946877 13.6394594,7.52998564 L23.1091478,7.52998564 L23.1091478,4.59774262 L13.6394594,4.59774262 C12.0273692,4.5911185 10.574411,5.37862503 9.97667748,6.58297835 L8.36215406,9.81145504 C7.98420746,10.5652816 7.98169541,11.4072386 8.35513948,12.1625158 L9.97667748,15.4492988 C10.1630357,15.8075746 10.4301889,16.1350239 10.7646491,16.4151146 L0.121186956,58.6016091 C-0.261031487,60.1187738 0.272333683,61.6919207 1.55917668,62.8429227 L13.8697716,73.7932235 C14.0076397,73.9154108 14.1527775,74.03216 14.3046758,74.1430614 C15.4136269,74.9554628 16.8603572,75.40466 18.3602745,75.4022895 C18.463155,75.4022895 18.5672047,75.4022895 18.6712544,75.396647 C20.2766844,75.335386 21.7847968,74.759641 22.858961,73.7979256 L20.1525007,71.8333792 C19.7257547,72.2139114 19.127623,72.4414448 18.4912134,72.4653444 Z" id="Shape"></path>
            </g>
        </g>
    </g>
</svg>