<?xml version="1.0" encoding="UTF-8"?>
<svg width="24px" height="26px" viewBox="0 0 24 26" version="1.1" xmlns="http://www.w3.org/2000/svg" xmlns:xlink="http://www.w3.org/1999/xlink">
    <!-- Generator: Sketch 49.3 (51167) - http://www.bohemiancoding.com/sketch -->
    <title>Shape</title>
    <desc>Created with Sketch.</desc>
    <defs></defs>
    <g id="Page-1" stroke="none" stroke-width="1" fill="none" fill-rule="evenodd">
        <g id="Desktop-HD-Copy-28" transform="translate(-951.000000, -4904.000000)" fill="#999999" fill-rule="nonzero">
            <path d="M963,4930 C956.332615,4930 951,4928.50036 951,4926.02757 C951,4924.43693 952.956923,4923.38021 956.111077,4922.71721 C956.603077,4922.58443 957.091385,4922.89179 957.130154,4923.3765 C957.194195,4923.60693 957.158126,4923.85386 957.030899,4924.05602 C956.903671,4924.25818 956.697214,4924.3966 956.462769,4924.43693 C954.151385,4924.92536 952.774154,4925.67564 952.774154,4926.02757 C952.774154,4926.11486 952.908,4926.24764 953.308615,4926.51229 C953.796,4926.82243 954.506769,4927.12979 955.440923,4927.39443 C957.396923,4927.96643 960.155077,4928.2775 963.042462,4928.2775 C965.932615,4928.2775 968.644615,4927.96643 970.644923,4927.39443 C971.575385,4927.12979 972.288,4926.82243 972.776308,4926.51229 C973.130769,4926.24764 973.264615,4926.11486 973.264615,4926.02757 C973.264615,4925.63014 971.755385,4924.83436 969.221538,4924.34964 C968.991727,4924.31354 968.786352,4924.18508 968.652511,4923.99371 C968.51867,4923.80235 968.467845,4923.5645 968.511692,4923.33471 C968.552176,4923.10365 968.683428,4922.89871 968.875848,4922.76612 C969.068268,4922.63352 969.305651,4922.58443 969.534462,4922.62993 C972.910154,4923.28921 975,4924.39514 975,4926.02757 C975,4928.50036 969.667385,4930 963,4930 Z M965.103692,4925.08971 C964.663385,4925.48807 964.270154,4925.80471 963.927692,4926.03129 C963.462462,4926.34143 963.108,4926.47979 962.778462,4926.47979 C962.453538,4926.47979 962.098154,4926.34143 961.630154,4926.03129 C961.216045,4925.74644 960.823014,4925.43175 960.454154,4925.08971 C959.535692,4924.25957 958.533231,4923.17314 957.628615,4922.02543 C956.219077,4920.23793 953.851385,4916.77529 953.851385,4913.6915 C953.851385,4911.06086 954.704308,4908.63914 956.251385,4906.87486 C957.034683,4905.9773 958.000456,4905.25943 959.083385,4904.76979 C960.214154,4904.25907 961.456615,4904 962.778462,4904 C964.100308,4904 965.344615,4904.25907 966.473538,4904.76979 C967.556537,4905.25976 968.522545,4905.97758 969.306462,4906.87486 C970.855385,4908.63914 971.705538,4911.06086 971.705538,4913.6915 C971.705538,4916.77529 969.338769,4920.23514 967.929231,4922.02543 C967.023692,4923.17314 966.021231,4924.26236 965.103692,4925.08971 Z M962.778462,4905.61386 C958.480615,4905.61386 955.476,4908.9335 955.476,4913.68871 C955.476,4915.52171 956.658462,4918.11057 958.722462,4920.78764 C959.535692,4921.84157 960.451385,4922.86579 961.303385,4923.66714 C962.088,4924.40443 962.570769,4924.72479 962.774769,4924.83157 C962.980615,4924.72479 963.462462,4924.40443 964.247077,4923.66714 C965.179692,4922.7752 966.042844,4921.81254 966.828923,4920.78764 C968.892923,4918.11057 970.074462,4915.52171 970.074462,4913.68871 C970.080923,4908.9335 967.079077,4905.61386 962.778462,4905.61386 Z M962.778462,4917.18293 C961.627181,4917.18731 960.521015,4916.73293 959.701846,4915.91914 C958.886044,4915.11469 958.427139,4914.01333 958.428923,4912.86414 C958.428923,4911.70993 958.882154,4910.62443 959.701846,4909.81007 C960.520638,4908.9956 961.62697,4908.54082 962.778462,4908.54536 C963.941538,4908.54536 965.034462,4908.99479 965.855077,4909.81007 C966.671269,4910.61388 967.130269,4911.71513 967.128,4912.86414 C967.128,4914.01836 966.675692,4915.10479 965.855077,4915.91914 C965.036362,4916.73362 963.929899,4917.18812 962.778462,4917.18293 Z M962.778462,4910.15829 C961.277538,4910.15829 960.057231,4911.371 960.057231,4912.86136 C960.057231,4914.35171 961.277538,4915.5635 962.778462,4915.5635 C964.279385,4915.5635 965.500615,4914.35171 965.500615,4912.86136 C965.500615,4911.371 964.283077,4910.15829 962.778462,4910.15829 Z" id="Shape"></path>
        </g>
    </g>
</svg>