<?xml version="1.0" encoding="UTF-8"?>
<svg width="82px" height="82px" viewBox="0 0 82 82" version="1.1" xmlns="http://www.w3.org/2000/svg" xmlns:xlink="http://www.w3.org/1999/xlink">
    <!-- Generator: Sketch 49.3 (51167) - http://www.bohemiancoding.com/sketch -->
    <title>互联网off</title>
    <desc>Created with Sketch.</desc>
    <defs></defs>
    <g id="Page-1" stroke="none" stroke-width="1" fill="none" fill-rule="evenodd">
        <g id="Desktop-HD-Copy-32" transform="translate(-679.000000, -877.000000)" fill="#FFFFFF" fill-rule="nonzero">
            <g id="互联网off" transform="translate(679.000000, 877.000000)">
                <path d="M41,77.6071429 C61.2175759,77.6071429 77.6071429,61.2175759 77.6071429,41 C77.6071429,20.7824241 61.2175759,4.39285714 41,4.39285714 C20.7824241,4.39285714 4.39285714,20.7824241 4.39285714,41 C4.39285714,61.2175759 20.7824241,77.6071429 41,77.6071429 Z M41,82 C18.3562857,82 0,63.6437143 0,41 C0,18.3562857 18.3562857,0 41,0 C63.6437143,0 82,18.3562857 82,41 C82,63.6437143 63.6437143,82 41,82 Z M6.10973214,23.8169732 L4.32531696,22.5362723 L6.88671875,18.967442 L8.67113393,20.2481429 C11.0996518,21.9910089 14.5006384,23.3711897 18.865308,24.3735848 C22.1545513,14.1361228 28.8103705,6.49923214 38.8035714,1.57520536 L38.8035714,0.366071429 L43.1964286,0.366071429 L43.1964286,1.93166741 C52.7917098,6.86210045 59.209125,14.3726049 62.4214018,24.3588504 C66.7554129,23.3576451 70.1350759,21.9824978 72.5517879,20.2481429 L74.3362031,18.967442 L76.8975134,22.5362723 L75.1130982,23.8169732 C72.2365089,25.881433 68.3889152,27.4715558 63.5612567,28.6029911 C64.4082545,32.4736473 64.8324397,36.6686429 64.8324397,41.1830357 C64.8324397,45.0108616 64.5275022,48.6089777 63.9183594,51.9745469 C68.9220982,53.097654 72.9023929,54.6842991 75.8692188,56.7502232 L77.6716629,58.0052991 L75.1614196,61.610279 L73.3588839,60.3551116 C70.8741741,58.6249665 67.3996071,57.2541205 62.9445179,56.2572165 C59.9377902,67.1197455 53.3442946,75.2199911 43.1964286,80.434404 L43.1964286,81.6339286 L41.5023415,81.6339286 L41.3277254,81.9997254 L40.6457344,81.6741964 L39.9637433,81.9997254 L39.7892187,81.6339286 L38.8035714,81.6339286 L38.8035714,80.7908661 C28.2494576,75.5904554 21.4179241,67.3641897 18.3434732,56.244404 C13.860654,57.2423147 10.3667768,58.6174621 7.87145089,60.3551116 L6.06891518,61.610279 L3.55867188,58.0052991 L5.36111607,56.7502232 C8.33956473,54.6762455 12.3393527,53.0852991 17.3707299,51.9613683 C16.7632344,48.5996429 16.459029,45.0058281 16.459029,41.1830357 C16.459029,36.6745915 16.8821161,32.4846295 17.7269174,28.618183 C12.8686004,27.4858326 8.99931696,25.8907679 6.10982366,23.8169732 L6.10973214,23.8169732 Z M43.1964286,49.9220759 C49.4114062,50.0096585 54.8789576,50.4190179 59.6054888,51.160221 C60.1619174,48.0674665 60.4395826,44.7428058 60.4395826,41.1830357 C60.4395826,36.9395357 60.0448661,33.0300759 59.2539687,29.4492567 C54.6294799,30.2010759 49.2788884,30.6172991 43.1964286,30.7079018 L43.1964286,49.9220759 Z M58.0739375,25.1880938 C55.3969487,17.2587121 50.4442768,11.2016942 43.1964286,6.94263616 L43.1964286,26.3143125 C48.8601027,26.227096 53.8211027,25.8484866 58.0739375,25.1880938 Z M22.0351205,29.4600558 C21.2458705,33.0379464 20.8518862,36.9437455 20.8518862,41.1830357 C20.8518862,44.7392366 21.1291853,48.0607857 21.6844241,51.1508862 C26.5916116,50.3853393 32.2957366,49.9762545 38.8035714,49.9129241 L38.8035714,30.7176027 C32.4280714,30.6522589 26.8407232,30.2367679 22.0351205,29.4600558 Z M38.8035714,6.53620536 C31.1659487,10.8146652 25.9767031,17.0080446 23.2142366,25.1981607 C27.6462634,25.8822567 32.8447522,26.2612321 38.8035714,26.3243795 L38.8035714,6.53620536 Z M43.1964286,75.4234353 C50.9612612,70.8606295 56.0918437,64.234096 58.6120625,55.4524085 C54.2132567,54.7832299 49.0726987,54.4010513 43.1964286,54.3155737 L43.1964286,75.4234353 Z M22.6769353,55.4436228 C25.2720156,64.4940067 30.6388973,71.2560781 38.8035714,75.8298661 L38.8035714,54.3060558 C32.6318817,54.3681964 27.2540179,54.7509241 22.6769353,55.4436228 Z" id="Shape"></path>
            </g>
        </g>
    </g>
</svg>