<?xml version="1.0" encoding="UTF-8"?>
<svg width="46px" height="55px" viewBox="0 0 46 55" version="1.1" xmlns="http://www.w3.org/2000/svg" xmlns:xlink="http://www.w3.org/1999/xlink">
    <!-- Generator: Sketch 49.3 (51167) - http://www.bohemiancoding.com/sketch -->
    <title>授权</title>
    <desc>Created with Sketch.</desc>
    <defs></defs>
    <g id="Page-1" stroke="none" stroke-width="1" fill="none" fill-rule="evenodd">
        <g id="Desktop-HD-Copy-30" transform="translate(-232.000000, -866.000000)" fill="#F17E01" fill-rule="nonzero">
            <g id="Group-2" transform="translate(105.000000, 866.000000)">
                <g id="授权" transform="translate(127.000000, 0.000000)">
                    <path d="M40.3764706,4.7853847 L24.6852941,0.289164778 C23.3428303,-0.0963882595 21.9189344,-0.0963882595 20.5764706,0.289164778 L4.91764708,4.7853847 C2.05423055,5.49298069 0.0318179355,8.04713058 0,10.9959906 L0,33.8329062 C0.421675979,45.9224389 10.5545323,55.3876558 22.6470588,54.9877826 C34.7395854,55.3876558 44.8724417,45.9224389 45.2941176,33.8329062 L45.2941176,10.9959906 C45.2622997,8.04713058 43.2398871,5.49298069 40.3764706,4.7853847 Z M5.82352944,7.89068769 L21.4823529,3.39446777 C22.2332063,3.18136575 23.0285584,3.18136575 23.7794118,3.39446777 L39.4705882,7.89068769 C41.001281,8.20275002 42.0903214,9.56379656 42.0588235,11.1253782 L42.0588235,13.6484369 C41.307519,13.0872607 40.4646676,12.6604416 39.567647,12.3869076 L25.0411765,7.72895317 C23.492312,7.24841099 21.8341586,7.24841099 20.2852941,7.72895317 L5.69411768,12.25752 C4.80843561,12.5344745 3.97678655,12.9611622 3.23529414,13.5190493 L3.23529414,10.9959906 C3.26531721,9.48300998 4.34048807,8.19304563 5.82352944,7.89068769 Z M41.5146778,33.6959803 C41.1226867,43.7277877 32.6814732,51.5485196 22.6470274,51.1767414 C12.6361429,51.5490579 4.20500127,43.765756 3.77937705,33.7588607 L3.77937705,20.4282083 C3.71449577,18.303294 5.07959296,16.3976648 7.11266196,15.7750561 L21.2633997,11.4048658 C22.164177,11.1223429 23.1298778,11.1223429 24.0306551,11.4048658 L38.1813929,15.7750561 C40.1690256,16.3847911 41.5229678,18.2237656 41.5146778,20.3024475 L41.5146778,26.590491 L41.5146778,33.6959803 Z" id="Shape"></path>
                    <path d="M32.4927991,21.5673058 L20.7900117,36.2019187 L12.4537796,27.8576218 C11.8251601,27.2283942 10.8059665,27.2283942 10.177347,27.8576219 C9.54872747,28.4868495 9.54872748,29.5070291 10.177347,30.1362568 L19.7960763,39.7642916 C20.0558914,39.9599145 20.3689867,40.0718424 20.6938244,40.0852261 C20.9053926,40.128454 21.1235048,40.128454 21.335073,40.0852261 L21.5274476,40.0852261 L21.8480719,39.8926654 L34.6730444,23.8459407 C35.1339782,23.1518406 34.987316,22.2200708 34.3354991,21.7014587 C33.6836822,21.1828466 32.7437255,21.250058 32.1721747,21.8561468 L32.4927991,21.5673058 Z" id="Shape"></path>
                </g>
            </g>
        </g>
    </g>
</svg>