<?xml version="1.0" encoding="UTF-8"?>
<svg width="24px" height="28px" viewBox="0 0 24 28" version="1.1" xmlns="http://www.w3.org/2000/svg" xmlns:xlink="http://www.w3.org/1999/xlink">
    <!-- Generator: Sketch 49.3 (51167) - http://www.bohemiancoding.com/sketch -->
    <title>Shape</title>
    <desc>Created with Sketch.</desc>
    <defs></defs>
    <g id="Page-1" stroke="none" stroke-width="1" fill="none" fill-rule="evenodd">
        <g id="Desktop-HD-Copy-28" transform="translate(-951.000000, -4969.000000)" fill="#999999" fill-rule="nonzero">
            <path d="M951.969018,4972.17315 C952.502966,4971.29172 953.214898,4970.41029 954.104812,4969.88143 C954.994726,4969.35257 956.062624,4969 957.308504,4969 L957.664469,4969 C959.622281,4969 961.402109,4971.11543 961.936058,4974.46487 C962.292024,4976.05144 962.114041,4977.8143 961.402109,4978.87202 C961.046144,4979.75345 960.334212,4980.2823 959.444298,4980.2823 L959.088332,4980.63488 L959.088332,4980.98745 C959.622281,4982.04516 960.156229,4983.10288 960.868161,4983.98431 C961.402109,4984.86574 962.114041,4985.74717 962.825972,4986.6286 C963.003955,4986.80488 963.181938,4986.80488 963.359921,4986.80488 L963.537904,4986.80488 C963.893869,4986.27603 964.427818,4985.74717 965.13975,4985.57088 C966.38563,4985.3946 968.343441,4985.92345 970.12327,4987.15746 C972.793013,4989.0966 974.038893,4991.74089 973.148978,4993.50375 L972.970995,4993.68004 C972.437047,4994.73775 971.725115,4995.61918 970.657218,4996.14804 C966.207647,4998.79233 959.266315,4995.09033 954.638761,4987.68631 C951.079103,4982.22145 950.011206,4975.87515 951.969018,4972.17315 Z M959.978247,4978.16687 C960.334212,4977.28544 960.512195,4976.05144 960.334212,4974.64115 C959.978247,4972.34943 958.554384,4970.58657 957.664469,4970.58657 L957.308504,4970.58657 C956.418589,4970.58657 955.528675,4970.76286 954.816744,4971.29172 C954.282795,4971.64429 953.748846,4972.17315 953.392881,4972.87829 C951.613052,4976.05144 952.680949,4981.86888 955.884641,4986.98117 C959.978247,4993.32747 966.207647,4997.02947 969.767304,4994.91404 C970.479235,4994.56147 971.013184,4993.85632 971.36915,4992.97489 C971.36915,4992.97489 971.36915,4992.79861 971.547132,4992.79861 L971.547132,4992.62232 C972.081081,4991.74089 971.013184,4989.80175 969.055372,4988.39146 C967.809492,4987.51003 966.207647,4986.98117 965.317732,4987.15746 C964.961767,4987.33374 964.783784,4987.51003 964.783784,4987.68631 C964.783784,4987.68631 964.427818,4988.39146 963.537904,4988.56774 C963.003955,4988.74403 962.292024,4988.39146 961.758075,4987.8626 L961.580092,4987.68631 C960.868161,4986.80488 960.156229,4985.92345 959.444298,4984.86574 C958.732367,4983.80802 958.198418,4982.57402 957.664469,4981.51631 L957.664469,4981.34002 C957.486486,4980.81116 957.486486,4980.2823 957.664469,4979.75345 C958.020435,4979.0483 958.910349,4978.69573 958.910349,4978.69573 L959.088332,4978.69573 C959.622281,4978.69573 959.800264,4978.34316 959.978247,4978.16687 Z M966.029664,4978.51944 C966.207647,4978.16687 966.563612,4977.99059 966.919578,4978.16687 C967.809492,4978.34316 968.343441,4978.87202 968.699407,4979.57716 C969.055372,4980.2823 969.055372,4980.98745 968.87739,4981.69259 C968.699407,4982.04516 968.343441,4982.39773 967.809492,4982.22145 C967.453527,4982.04516 967.097561,4981.69259 967.275544,4981.16373 C967.453527,4980.81116 967.275544,4980.45859 967.275544,4980.2823 C967.097561,4979.92973 966.741595,4979.75345 966.563612,4979.57716 C966.029664,4979.57716 965.851681,4979.0483 966.029664,4978.51944 Z M967.453527,4976.05144 C967.63151,4975.69887 967.987475,4975.52258 968.343441,4975.69887 C971.013184,4976.5803 972.437047,4979.40087 971.547132,4982.04516 C971.36915,4982.39773 971.013184,4982.75031 970.479235,4982.57402 C970.12327,4982.39773 969.767304,4982.04516 969.945287,4981.51631 C970.479235,4979.75345 969.589321,4977.8143 967.809492,4977.28544 C967.453527,4977.10916 967.275544,4976.5803 967.453527,4976.05144 C967.453527,4976.22773 967.453527,4976.05144 967.453527,4976.05144 Z M968.165458,4972.87829 C968.343441,4972.52572 968.699407,4972.34943 969.055372,4972.52572 C971.191167,4973.23086 972.970995,4974.81744 974.038893,4976.75658 C975.10679,4978.87202 975.284773,4981.16373 974.572841,4983.27916 C974.394858,4983.63174 974.038893,4983.98431 973.504944,4983.80802 C973.148978,4983.63174 972.793013,4983.27916 972.970995,4982.75031 C973.504944,4980.98745 973.504944,4979.0483 972.61503,4977.46173 C971.725115,4975.87515 970.301252,4974.64115 968.521424,4973.93601 C968.165458,4973.93601 967.987475,4973.40715 968.165458,4972.87829 C968.165458,4973.05458 968.165458,4972.87829 968.165458,4972.87829 Z" id="Shape"></path>
        </g>
    </g>
</svg>