<?xml version="1.0" encoding="UTF-8"?>
<svg width="82px" height="80px" viewBox="0 0 82 80" version="1.1" xmlns="http://www.w3.org/2000/svg" xmlns:xlink="http://www.w3.org/1999/xlink">
    <!-- Generator: Sketch 49.3 (51167) - http://www.bohemiancoding.com/sketch -->
    <title>市场竞争</title>
    <desc>Created with Sketch.</desc>
    <defs></defs>
    <g id="Page-1" stroke="none" stroke-width="1" fill="none" fill-rule="evenodd">
        <g id="Desktop-HD-Copy-28" transform="translate(-529.000000, -1858.000000)" fill="#F17E01" fill-rule="nonzero">
            <g id="市场竞争" transform="translate(529.000000, 1858.000000)">
                <path d="M62.6707661,70.484712 C62.4577121,69.0327588 61.2511413,67.9618334 59.8350103,67.9677582 L21.1569802,67.9677582 C19.7416578,67.9621229 18.5355683,69.0317392 18.3212244,70.4826387 L17.4006283,76.5645861 C17.2726092,77.4238794 17.5128065,78.2983046 18.058251,78.9586251 C18.6036956,79.6189456 19.3999911,79.9993088 20.2383832,80 L60.7526077,80 C60.9018647,79.9992289 61.0508661,79.9871022 61.1984121,79.9637177 C62.7629539,79.7056575 63.8315893,78.1839264 63.5883635,76.5604395 L62.6707661,70.484712 Z M21.1579798,69.4563684 L21.1579798,70.9449787 L21.1579798,69.4563684 Z M20.2373837,77.0238161 L21.1579798,70.9460153 L59.8340107,70.9460153 L60.7526077,77.0227795 L20.2373837,77.0238161 Z M79.8582251,44.3635412 L68.3022953,8.45030034 L64.6738872,8.45030034 L64.6738872,8.45652016 L44.6736623,8.45652016 L44.6736623,4.40016087 C44.696988,2.83629144 43.90587,1.38075246 42.6037065,0.591751056 C41.301543,-0.197250352 39.6904475,-0.197250352 38.388284,0.591751056 C37.0861205,1.38075246 36.2950025,2.83629144 36.3183282,4.40016087 L36.3183282,8.45652016 L12.7346755,8.45652016 L1.14576011,44.4661682 C0.231528546,45.1797681 -0.187389541,46.3878581 0.0792280524,47.5418692 L0.110214457,47.676632 L0.0652341922,47.8176146 L0.150196915,47.8466404 L1.39065267,53.1656231 C1.698109,54.5034767 2.85129189,55.447201 4.17742997,55.4462238 L23.6288957,55.4462238 C24.9565266,55.4491245 26.1118708,54.504986 26.4196712,53.1656231 L27.7270976,47.5522356 C28.0164811,46.3319249 27.5331532,45.0549077 26.5206269,44.3645778 L17.460602,11.4347773 L36.3183282,11.4347773 L36.3183282,60.1442612 L29.5413016,60.1442612 C27.5621699,60.1442612 25.9308857,61.1653483 25.4520957,62.7949412 L24.6624422,66.4470122 L24.6274575,67.2763215 L27.498198,67.2763215 L28.2168827,63.5807118 C28.286852,63.4469856 28.7686406,63.1256283 29.540302,63.1256283 L51.4506889,63.1256283 C51.8989156,63.1261603 52.3405764,63.2373841 52.7391236,63.4500955 L53.4937925,66.9363047 L53.4937925,67.2763215 L56.3645329,67.2763215 L56.3645329,66.7704428 L55.511907,62.6860943 C55.0611048,61.1684582 53.4298205,60.1473711 51.4506889,60.1473711 L44.6736623,60.1473711 L44.6736623,11.4347773 L63.8312569,11.4347773 L54.5203421,44.4309225 C53.578594,45.139765 53.1417688,46.3674823 53.4138276,47.5408326 L54.7242526,53.1656231 C55.0323801,54.5047692 56.187524,55.448744 57.5150282,55.4462238 L76.9624956,55.4462238 C78.2899998,55.448744 79.4451436,54.5047692 79.7532711,53.1656231 L81.0626966,47.5429058 C81.3457908,46.326238 80.8638544,45.0559859 79.8572255,44.3656144 L79.8582251,44.3635412 Z M14.6268453,11.9852314 L23.3989965,43.8659556 L4.36634708,43.8659556 L14.6268453,11.9852314 Z M23.6288957,52.4638201 L4.17742997,52.4638201 L3.0929058,47.8082848 L3.40776766,46.8421394 L24.2176373,46.8421394 L24.6074663,48.2592218 L23.6288957,52.4638201 Z M23.6288957,53.9524304 L23.6288957,52.4638201 L23.6288957,53.9524304 Z M39.1890686,4.4011975 C39.1890686,3.65291566 39.7739759,3.04631338 40.4954955,3.04631338 C41.2170151,3.04631338 41.8019223,3.65291566 41.8019223,4.4011975 L41.8019223,8.4575568 L39.1890686,8.4575568 L39.1890686,4.4011975 Z M41.8019223,60.1452978 L39.1890686,60.1452978 L39.1890686,11.4347773 L41.8019223,11.4347773 L41.8019223,60.1452978 Z M76.6696241,43.8701021 L57.6729589,43.8701021 L66.550064,12.4081791 L76.6696241,43.8701021 Z M76.9624956,52.4679667 L57.5160277,52.4679667 L56.4894781,48.0632974 L56.8323277,46.8421394 L77.6282035,46.8421394 L78.0020395,48.0021359 L76.9634952,52.4596736 C76.9634952,52.4596736 76.9634952,52.4638201 76.9624956,52.4638201 L76.9624956,52.4679667 Z" id="Shape"></path>
            </g>
        </g>
    </g>
</svg>