<?xml version="1.0" encoding="UTF-8"?>
<svg width="55px" height="55px" viewBox="0 0 55 55" version="1.1" xmlns="http://www.w3.org/2000/svg" xmlns:xlink="http://www.w3.org/1999/xlink">
    <!-- Generator: Sketch 49.3 (51167) - http://www.bohemiancoding.com/sketch -->
    <title>Shape</title>
    <desc>Created with Sketch.</desc>
    <defs></defs>
    <g id="Page-1" stroke="none" stroke-width="1" fill="none" fill-rule="evenodd">
        <g id="Desktop-HD-Copy-30" transform="translate(-1146.000000, -1047.000000)" fill="#F17E01" fill-rule="nonzero">
            <g id="Group-5" transform="translate(1035.000000, 866.000000)">
                <g id="维修扳手-2" transform="translate(111.000000, 181.000000)">
                    <path d="M52.4157177,39.9110716 L40.0537713,27.5508258 C40.8498493,25.3285351 41.2527502,23.005575 41.2527502,20.6249632 C41.2527502,9.25265312 32.0004679,0 20.6264242,0 C17.7949208,0 15.0401276,0.570722217 12.4407194,1.69576483 L11.2109976,2.22808529 C11.2090332,2.23004955 11.2186587,2.23093347 11.2148281,2.23289779 C11.0978474,2.28377268 10.9884296,2.35762973 10.8925664,2.45348667 C10.4858348,2.86107524 10.4858348,3.52382406 10.8945308,3.93249296 C10.9003258,3.93828762 10.8887357,3.94113581 10.8925664,3.94683223 L22.4411481,15.4946509 L15.4946926,22.4396653 L4.17820609,11.1230426 C4.16091926,11.1250069 4.14363244,11.1258908 4.12064882,11.1029088 C3.64103765,10.6233293 2.86411266,10.6233293 2.38450149,11.1029088 C2.2540645,11.2343192 2.15810298,11.3868458 2.09867956,11.5498812 C2.09288452,11.5652026 2.08522333,11.5575419 2.07756214,11.558524 L1.69577869,12.4408796 C0.571742097,15.0371696 0,17.7917807 0,20.6250614 C0,31.9963893 9.25228226,41.2500245 20.6263259,41.2500245 C23.0051306,41.2500245 25.3282443,40.8471502 27.5535302,40.0511249 L39.9154766,52.4103885 C41.5845394,54.0792427 43.8041285,55 46.1656463,55 C46.1656463,55 46.1656463,55 46.1676107,55 C48.5271642,55 50.7487177,54.0792427 52.4176821,52.4103885 C55.8610999,48.965234 55.8610999,43.3581904 52.4157177,39.9110716 Z M49.6398072,49.6327953 C48.7113278,50.5612133 47.4777753,51.0714356 46.1675125,51.0714356 L46.1655481,51.0714356 C44.8534191,51.0714356 43.6198666,50.5612132 42.6932535,49.6327953 L28.4763127,35.4185617 L27.2505196,35.948034 C25.1460451,36.8591663 22.9169286,37.3214602 20.6263259,37.3214602 C11.4201091,37.3214602 3.92882396,29.8326343 3.92882396,20.6250614 C3.92882396,19.3456262 4.07271712,18.0862266 4.3585391,16.8585503 L14.7445818,27.245871 C15.1800919,27.5930579 15.77855,27.5978704 16.2217214,27.2679692 L27.1411019,16.3493101 C27.1449325,16.3454798 27.1372713,16.3406673 27.1411019,16.3368369 C27.5861395,15.8918288 27.5995957,15.1973568 27.2178122,14.7149291 L16.858682,4.35736721 C18.0884039,4.07254627 19.3468062,3.92866262 20.6263259,3.92866262 C29.8325428,3.92866262 37.3238279,11.4184707 37.3238279,20.6250614 C37.3238279,22.9183609 36.8615036,25.1463479 35.9503111,27.2468532 L35.4208038,28.4725653 L49.6378427,42.6886649 C51.5524569,44.6031525 51.5524569,47.7183077 49.6398072,49.6327953 Z" id="Shape"></path>
                </g>
            </g>
        </g>
    </g>
</svg>