<?xml version="1.0" encoding="UTF-8"?>
<svg width="49px" height="22px" viewBox="0 0 49 22" version="1.1" xmlns="http://www.w3.org/2000/svg" xmlns:xlink="http://www.w3.org/1999/xlink">
    <!-- Generator: Sketch 49.3 (51167) - http://www.bohemiancoding.com/sketch -->
    <title>开通市价委托-2</title>
    <desc>Created with Sketch.</desc>
    <defs></defs>
    <g id="Page-1" stroke="none" stroke-width="1" fill="none" fill-rule="evenodd">
        <g id="Desktop-HD-Copy-30" transform="translate(-767.000000, -2782.000000)" fill="#F17E01" fill-rule="nonzero">
            <g id="Group-22" transform="translate(767.000000, 2782.000000)">
                <g id="开通市价委托-2">
                    <path d="M48.6671536,10.7968836 C47.9660848,10.1909402 38.3929749,1.46784763 37.7653805,0.808942564 C37.1377861,0.148479848 36.4933539,0.162499102 36.4933539,0.162499102 L20.5876639,0.162499102 C20.5876639,0.162499102 17.9946277,0.39615336 18.0436107,2.748273 C18.0742251,4.25767958 19.0003094,5.58327811 20.5555188,5.9353172 C21.9316343,6.18922151 25.2196164,6.45402968 27.587637,6.62693382 C28.4387162,6.68924163 27.587637,7.27337728 27.587637,7.27337728 L24.5124247,9.51957364 L13.7973991,9.51957364 C13.7973991,9.51957364 9.43179159,6.29047169 6.59384055,4.04115997 C2.00015604,0.645384622 0.232176826,4.04115997 0.232176826,4.04115997 C0.232176826,4.04115997 -0.315820185,5.25616218 0.27197548,5.9477788 C2.80072148,8.28120608 11.6375561,16.3687591 12.3202563,16.9684717 C13.0029565,17.5681843 13.7989299,17.3080492 13.7989299,17.3080492 C13.7989299,17.3080492 30.740916,17.2877992 32.167545,17.3080492 C33.5941742,17.329857 34.5876101,18.2613586 34.5876101,18.2613586 C34.5876101,18.2613586 37.4929127,20.8580364 38.1909201,21.4530759 C39.6359178,22.6836551 40.4364833,21.4530759 40.4364833,21.4530759 L48.6717458,12.3203095 C48.6671536,12.3187517 49.4156747,11.4433271 48.6671536,10.7968836 Z" id="Shape"></path>
                </g>
            </g>
        </g>
    </g>
</svg>