<?xml version="1.0" encoding="UTF-8"?>
<svg width="80px" height="80px" viewBox="0 0 80 80" version="1.1" xmlns="http://www.w3.org/2000/svg" xmlns:xlink="http://www.w3.org/1999/xlink">
    <!-- Generator: Sketch 49.3 (51167) - http://www.bohemiancoding.com/sketch -->
    <title>公司战略</title>
    <desc>Created with Sketch.</desc>
    <defs></defs>
    <g id="Page-1" stroke="none" stroke-width="1" fill="none" fill-rule="evenodd">
        <g id="Desktop-HD-Copy-28" transform="translate(-1135.000000, -1858.000000)" fill="#F17E01" fill-rule="nonzero">
            <g id="公司战略" transform="translate(1135.000000, 1858.000000)">
                <path d="M79.840448,10.366164 C79.5753497,9.05876195 78.80897,7.91172061 77.7099211,7.17740172 C76.6108722,6.44308284 75.2691925,6.18164479 73.9800664,6.45060684 L52.0692018,13.5438029 L31.6866784,0 L3.71351013,9.86951085 C1.52724569,10.4468516 0.00103168927,12.448382 9.61065103e-07,14.7395366 L9.61065103e-07,72.8867966 C-0.000213800816,73.2387489 0.0355654067,73.5897748 0.10676435,73.9342405 C0.376529819,75.2424272 1.15130446,76.3867161 2.25827872,77.1118794 C3.37465242,77.8439132 4.69526911,78.0934167 6.13773533,77.7756528 L31.3269322,69.8350864 L51.6270622,80 L75.8971655,74.3120265 C78.2399085,73.8621969 79.9366861,71.7871545 79.9390881,69.3690327 L79.9390881,11.3794777 C79.9396016,11.0392161 79.9065571,10.6997554 79.840448,10.366164 Z M76.7187794,69.3643251 C76.7187794,70.2116955 76.122297,70.9401986 75.2380176,71.1108496 L52.0285853,76.5504965 L31.6042849,66.324384 L5.32656567,74.6121368 C4.81342888,74.7220601 4.27877379,74.5914906 3.87122449,74.2567242 C3.46367519,73.9219579 3.22667739,73.4186816 3.22611205,72.8867966 L3.22611205,14.7395366 C3.22611205,13.9368886 3.76108946,13.2342773 4.64885025,12.994189 L31.2433782,3.61544686 L51.5876061,17.131004 L74.6995588,9.63883781 C75.6205017,9.48691467 76.4957752,10.0984186 76.6839653,11.0252299 C76.7075531,11.1413864 76.71922,11.2597074 76.7187794,11.3783008 L76.7187794,69.3643251 Z" id="Shape"></path>
                <path d="M67.7646002,39.323944 C66.9024819,39.3061867 66.0780023,39.68218 65.5183041,40.3483384 C64.958606,41.0144968 64.7227467,41.9005294 64.8757052,42.7623358 L49.9805627,52.3651891 C49.1941466,51.9400145 48.2574218,51.9118059 47.4475795,52.2889107 L37.1712023,43.5579773 C37.1712023,43.4922606 37.1908468,43.4300644 37.1908468,43.3643477 C37.1887657,42.4251662 36.7495744,41.5422734 36.0063998,40.9832908 L36.0479999,32.1537823 L36.0618666,32.1537823 L36.0618666,20.8317331 C36.0593461,19.8374045 35.592925,18.9031289 34.8046195,18.3133752 C33.2527051,17.1609858 31.2131453,16.5765766 28.73794,16.5765766 C27.6366933,16.5765766 26.6163356,17.0389405 25.5358888,17.5282953 C24.6530425,17.9296366 23.7401517,18.342713 22.7186384,18.5410366 C22.4077933,18.6020593 21.4879692,18.6900727 18.8683192,18.6079268 C17.1445855,18.5817884 15.7254367,19.9778351 15.6963125,21.7282967 L15.6963125,28.5346695 C15.6898883,30.1481116 16.9000175,31.4983563 18.4823628,31.6433043 C20.0846069,31.7838902 21.698022,31.7136808 23.2825507,31.4344191 C24.4875896,31.2491896 25.6403274,30.8068469 26.664869,30.1365142 C27.3119815,29.7398669 27.6678933,29.5204201 28.7206067,29.5204201 C29.3561636,29.5603195 31.7932354,30.5225998 32.8447932,30.9403703 L32.7985708,40.7849671 C31.9856339,41.2564916 31.4446081,42.0952592 31.3437233,43.0404583 L16.014091,52.3816182 C15.6012466,52.1629809 15.1427175,52.048278 14.6771104,52.0471672 C13.0753082,52.0399985 11.7626902,53.3364581 11.7252203,54.962719 C11.6877505,56.5889799 12.9392226,57.9463675 14.5396019,58.0152893 C16.1399812,58.084211 17.5001207,56.8392948 17.598361,55.2156511 L32.7997264,45.9449019 C33.5343756,46.3873213 34.427182,46.4667636 35.2263982,46.1608282 L45.6992203,55.0584004 C45.7206029,56.6585152 46.984156,57.9549933 48.5594853,57.9931967 C50.1348145,58.0314 51.457865,56.7976498 51.5544326,55.2003954 L67.0666432,45.1985479 C68.1682248,45.4726366 69.326746,45.0779421 70.0426897,44.184644 C70.7586334,43.291346 70.9039681,42.0591919 70.4160301,41.019447 C69.9280921,39.9797021 68.894139,39.3183029 67.759978,39.3204235 L67.7646002,39.323944 Z M24.9985544,27.3447278 C24.4057531,27.7096902 23.8926854,28.0230181 22.7498385,28.2166476 C21.4796239,28.4428988 20.186514,28.5067651 18.9006748,28.4067567 L18.9006748,21.8726388 C21.8196143,21.9594787 22.8180164,21.8421274 23.3149064,21.7458994 C24.701576,21.477165 25.888334,20.9396963 26.8405138,20.5090172 C27.5985599,20.1640045 28.3161614,19.840115 28.7333178,19.840115 C30.4793659,19.840115 31.8625689,20.1992098 32.8482598,20.9068379 L32.8482598,27.4479969 C30.8029222,26.658223 29.5422084,26.2592287 28.7333178,26.2592287 C26.7677137,26.2592287 25.8294006,26.8354234 24.9985544,27.3447278 Z" id="Shape"></path>
            </g>
        </g>
    </g>
</svg>