<?xml version="1.0" encoding="UTF-8"?>
<svg width="60px" height="60px" viewBox="0 0 60 60" version="1.1" xmlns="http://www.w3.org/2000/svg" xmlns:xlink="http://www.w3.org/1999/xlink">
    <!-- Generator: Sketch 49.3 (51167) - http://www.bohemiancoding.com/sketch -->
    <title>装修</title>
    <desc>Created with Sketch.</desc>
    <defs></defs>
    <g id="Page-1" stroke="none" stroke-width="1" fill="none" fill-rule="evenodd">
        <g id="Desktop-HD-Copy-30" transform="translate(-845.000000, -863.000000)" fill="#F17E01" fill-rule="nonzero">
            <g id="Group-4" transform="translate(725.000000, 863.000000)">
                <g id="装修" transform="translate(120.000000, 0.000000)">
                    <path d="M58.0314035,6.82217089 L56.4521733,6.82217089 L56.4521733,3.50134677 C56.4521733,1.57070308 54.5454061,0 52.2012918,0 L12.4496415,0 C10.1059216,0 8.19875999,1.57070308 8.19875999,3.50134677 L8.19875999,6.88189022 L8.15190137,6.88189022 C2.64759126,7.07475964 -0.00110406669,7.55192951 3.45229609e-07,11.2569979 L3.45229609e-07,20.6764076 C3.45229609e-07,23.717675 3.0032119,25.7715914 6.69518205,25.7715914 L26.8877762,25.7715914 C26.9007136,25.7718513 26.9131777,25.7750355 26.9263518,25.7750355 C28.626515,25.7750355 29.4270559,26.9143167 29.4270559,28.3148294 L29.4270559,35.702612 L27.0100504,35.702612 C26.0124509,35.702612 25.2039425,36.3682974 25.2039425,37.1901369 L25.2039425,58.3928415 C25.2039425,59.214551 26.0124509,60 27.0100504,60 L36.5331577,60 C37.5306784,60 38.5572292,59.1543118 38.5572292,58.3326673 L38.5572292,37.1900719 C38.5572292,36.3682974 37.7491153,35.702547 36.7515157,35.702547 L34.1313774,35.702547 L34.1313774,27.5350989 C34.1313774,24.5155358 31.1691079,22.0576204 27.5131889,22.0233094 C27.4868408,22.0222047 27.4624649,22.0167461 27.4361168,22.0167461 L7.42338394,22.0167461 C5.72329956,22.0167461 4.55846054,20.877205 4.55846054,19.4767572 L4.55846054,11.8573104 C4.55846054,10.4568627 6.45158034,10.6373204 8.1517436,10.6373204 L8.19860222,10.6373204 L8.19860222,13.9581445 C8.19860222,15.8887882 9.37708862,17.639754 11.721124,17.639754 L52.9302037,17.639754 C55.2738447,17.639754 56.4523311,15.8890481 56.4523311,13.9581445 L56.4523311,10.5772761 L58.0315612,10.5772761 C59.0290819,10.5772761 59.9101659,9.49154084 59.9101659,8.66983134 C59.9104026,7.84805685 59.029003,6.82217089 58.0314035,6.82217089 Z M33.9988479,56.3053289 L29.544518,56.3053289 L29.544518,39.3978679 L33.9988479,39.3978679 L33.9988479,56.3053289 Z M13.3963591,13.8845838 C13.0441306,13.8845838 12.7576146,13.6485657 12.7576146,13.3581568 L12.7576146,4.28120725 C12.7576146,3.9908634 13.0441306,3.75510522 13.3963591,3.75510522 L51.2549686,3.75510522 C51.6074338,3.75510522 51.8940287,3.99079841 51.8940287,4.28120725 L51.8940287,13.3581568 C51.8940287,13.6485657 51.6074338,13.8845838 51.2549686,13.8845838 L13.3963591,13.8845838 Z" id="Shape"></path>
                </g>
            </g>
        </g>
    </g>
</svg>