<?xml version="1.0" standalone="no"?>
<!DOCTYPE svg PUBLIC "-//W3C//DTD SVG 1.1//EN" "http://www.w3.org/Graphics/SVG/1.1/DTD/svg11.dtd" >
<!--
2013-9-30: Created.
-->
<svg>
<metadata>
Created by iconfont
</metadata>
<defs>

<font id="patsnap-zen" horiz-adv-x="1024" >
  <font-face
    font-family="patsnap-zen"
    font-weight="500"
    font-stretch="normal"
    units-per-em="1024"
    ascent="896"
    descent="-128"
  />
    <missing-glyph />
    
    <glyph glyph-name="x" unicode="x" horiz-adv-x="1001"
d="M281 543q-27 -1 -53 -1h-83q-18 0 -36.5 -6t-32.5 -18.5t-23 -32t-9 -45.5v-76h912v41q0 16 -0.5 30t-0.5 18q0 13 -5 29t-17 29.5t-31.5 22.5t-49.5 9h-133v-97h-438v97zM955 310v-52q0 -23 0.5 -52t0.5 -58t-10.5 -47.5t-26 -30t-33 -16t-31.5 -4.5q-14 -1 -29.5 -0.5
t-29.5 0.5h-32l-45 128h-439l-44 -128h-29h-34q-20 0 -45 1q-25 0 -41 9.5t-25.5 23t-13.5 29.5t-4 30v167h911zM163 247q-12 0 -21 -8.5t-9 -21.5t9 -21.5t21 -8.5q13 0 22 8.5t9 21.5t-9 21.5t-22 8.5zM316 123q-8 -26 -14 -48q-5 -19 -10.5 -37t-7.5 -25t-3 -15t1 -14.5
t9.5 -10.5t21.5 -4h37h67h81h80h64h36q23 0 34 12t2 38q-5 13 -9.5 30.5t-9.5 34.5q-5 19 -11 39h-368zM336 498v228q0 11 2.5 23t10 21.5t20.5 15.5t34 6h188q31 0 51.5 -14.5t20.5 -52.5v-227h-327z" />
    

    
    <glyph glyph-name="more" unicode="&#58944;" d="M224 288c-52.928 0-96 43.072-96 96s43.072 96 96 96 96-43.072 96-96-43.072-96-96-96z m288 0c-52.928 0-96 43.072-96 96s43.072 96 96 96 96-43.072 96-96-43.072-96-96-96z m288 0c-52.928 0-96 43.072-96 96s43.072 96 96 96 96-43.072 96-96-43.072-96-96-96z"  horiz-adv-x="1024" />

    
    <glyph glyph-name="analysis" unicode="&#59088;" d="M30-128h198.886V896H30v-1024z m255.418 0h198.884V576h-198.884v-704z m255.416 0h198.886V384h-198.886v-512z m255.418 0h198.884V128h-198.884v-256z"  horiz-adv-x="1024" />

    
    <glyph glyph-name="arrow-right" unicode="&#59090;" d="M880 384L593.992 640v-191.992H146v-130h447.992V128L880 384z"  horiz-adv-x="1024" />

    
    <glyph glyph-name="arrow-circle-right" unicode="&#59091;" d="M555.269489 102.184421S512 90.028164 512 145.44393v108.148772H295.656546c-23.79752 0-43.267493 19.422066-43.267493 43.259509v173.036039c0 23.837442 19.469973 43.259509 43.267493 43.259508H512v109.490152c0 58.140444 43.269489 41.918129 43.269489 41.918129l281.244694-281.186807-281.244694-281.184811zM512 894.35122C229.888998 894.35122 0.998051 665.550097 0.998051 383.369232c0-282.180865 228.890947-511.02191 511.001949-511.02191 282.111002 0 511.001949 228.841045 511.001949 511.02191C1023.001949 665.552094 794.111002 894.35122 512 894.35122z"  horiz-adv-x="1024" />

    
    <glyph glyph-name="arrow-down" unicode="&#59092;" d="M512 2.578963l255.500975 285.450479h-191.617747V735.148164h-129.746589v-447.118722H256.499025l255.500975-285.450479z"  horiz-adv-x="1024" />

    
    <glyph glyph-name="arrow-circle-left" unicode="&#59093;" d="M771.612943 296.850214c0-23.83345-19.471969-43.257513-43.269489-43.257512H512v-109.490152c0-58.140444-43.269489-41.918129-43.269489-41.918129L187.485817 383.369232l281.244694 281.186807S512 676.712296 512 621.29653v-108.148772h216.343454c23.79752 0 43.267493-19.422066 43.267493-43.259508v-173.036039zM512 894.353216C229.888998 894.35122 0.998051 665.550097 0.998051 383.369232c0-282.180865 228.890947-511.02191 511.001949-511.02191 282.111002 0 511.001949 228.841045 511.001949 511.02191C1023.001949 665.552094 794.111002 894.35122 512 894.35122z"  horiz-adv-x="1024" />

    
    <glyph glyph-name="arrow-up" unicode="&#59095;" d="M510.652632 765.145575L256.499025 479.309848h190.60772V31.588304h129.063922V479.309848h188.637567L510.652632 765.145575z"  horiz-adv-x="1024" />

    
    <glyph glyph-name="bell" unicode="&#59096;" d="M1023.062 96.282c0 286.796-254.93 223.058-254.93 446.124 0 18.498-1.778 34.324-5.058 47.746-16.74 112.542-91.774 202.856-188.942 230.426 0.864 3.916 1.312 7.962 1.312 12.144 0 33.11-28.716 60.218-63.736 60.218-35.056 0-63.74-27.108-63.74-60.218 0-4.18 0.416-8.228 1.312-12.21-109.018-30.874-190.126-140.728-192.448-272.3-0.034-1.908-0.066-3.848-0.066-5.84C256.77 319.34 1.84 383.078 1.84 96.282c0-75.88 169.876-139.42 397.276-155.446 21.416-40.21 63.802-67.62 112.594-67.62 48.754 0 91.142 27.406 112.542 67.648 227.442 15.994 397.316 79.532 397.316 155.412 0 0.21-0.038 0.45-0.038 0.696l1.532-0.69z m-198.426-53.886c-54.02-14.382-117.652-24.734-186.002-30.506-5.708 65.178-60.334 116.258-126.924 116.258-66.61 0-121.254-51.08-126.994-116.258-68.288 5.774-131.958 16.124-186 30.574-74.286 19.774-109.78 41.958-122.786 53.816 13.004 11.844 48.498 34.054 122.81 53.848 86.388 23.074 197.572 35.788 312.968 35.788 115.378 0 226.528-12.744 312.926-35.788 74.298-19.792 109.804-42.004 122.808-53.848-12.998-11.862-48.502-34.044-122.806-53.884z"  horiz-adv-x="1024" />

    
    <glyph glyph-name="attachment" unicode="&#59097;" d="M296.804304-75.388756c-60.214394 0-124.734378 25.316554-191.426121 92.050214-151.619867 151.619867-137.491462 339.584749 38.678456 515.756663 89.796616 89.754698 268.986635 252.926004 276.593778 259.810557 16.421926 14.930838 41.900164 13.765115 56.832998-2.656811 14.972756-16.461848 13.765115-41.900164-2.694737-56.832998-1.81246-1.690698-185.349988-168.846222-273.819197-257.23359-146.18648-146.18648-159.187088-281.384421-38.678456-401.891057 105.292351-105.334269 197.140959-91.848608 338.818246 49.748835l364.66177 364.659773c51.479454 51.479454 77.237146 95.230004 76.75409 130.046004-0.562901 35.458745-30.266885 63.352265-59.004757 90.359517-6.239813 5.8366-12.196179 11.471595-17.749333 17.026745-45.281559 45.319485-80.37901 41.255423-105.817326 32.640249-44.796507-15.092522-93.860678-60.332164-131.575017-98.048499L296.401092 328.073232c-20.969045-20.971041-64.44014-74.863782-16.342082-122.96184 52.84878-52.727018 120.105419 13.523587 122.921918 16.340086l364.701692 364.701692c15.697341 15.737263 41.175579 15.737263 56.912842 0s15.737263-41.215501 0-56.912843L459.89377 164.536639c-62.909131-62.909131-164.418869-88.668819-236.745606-16.340085-65.931228 65.969154-59.368047 161.117318 16.340086 236.787524L571.465856 716.961684c46.688811 46.688811 102.555696 97.16223 162.810011 117.446612 67.81954 22.701661 131.171805 5.233778 188.40602-52.042354 4.950331-4.950331 10.385715-10.020429 15.980787-15.294129 35.137372-33.005536 83.235431-78.245177 84.32131-147.795337 0.886269-58.202324-31.877739-119.784047-100.302097-188.166488L558.022113 66.450214c-68.021146-68.023142-158.460507-141.838971-261.217809-141.83897"  horiz-adv-x="1024" />

    
    <glyph glyph-name="auto-update" unicode="&#59099;" d="M746.057143 654.189714a60.635429 60.635429 0 0 1-121.124572 0v-243.565714c0-60.196571 25.014857-83.309714 58.514286-94.939429l175.616-47.104a60.416 60.416 0 0 1 74.166857 42.861715 60.416 60.416 0 0 1-42.788571 74.24L746.057143 424.228571V654.189714zM514.194286 411.282286H321.901714c0 97.060571 37.814857 188.416 106.496 257.024a361.106286 361.106286 0 0 0 257.097143 106.496c97.060571 0 188.416-37.814857 257.024-106.496a361.106286 361.106286 0 0 0 106.496-257.024 361.106286 361.106286 0 0 0-106.496-257.097143 361.106286 361.106286 0 0 0-281.234286-105.691429l-8.045714-120.905143a484.717714 484.717714 0 1 1-452.461714 483.620572H0l257.097143-257.024 257.024 257.097143z"  horiz-adv-x="1170" />

    
    <glyph glyph-name="brush" unicode="&#59100;" d="M554.09653 608.641248L827.286955 880.975345c18.817248 18.759361 49.331649 18.74938 68.158877-0.019961l113.624078-113.266776c18.823236-18.765349 18.837209-49.18793 0.019961-67.945294L735.89745 427.40722l38.963899-38.838144c32.628273-32.528468 32.638253-85.27345 0.00998-117.797926l-168.175532-167.648561-379.512764 378.323087 168.175532 167.648562c32.620288 32.516491 85.532943 32.520483 118.169201-0.011977l40.568764-40.441013z m-318.060787-179.521373c-10.669162 10.633232-27.949411 10.651197-38.644523-0.00998L8.791579 241.099103c-10.673154-10.641216-10.657185-27.909489-0.009981-38.52276 10.667166-10.635228 27.947415-10.651197 38.644523 0.009981l188.599641 188.008795c10.673154 10.63922 10.655189 27.909489 0.009981 38.52276z m80.345076-80.095563c-10.667166 10.635228-27.947415 10.653193-38.644523-0.009981L89.138651 161.005536c-10.673154-10.63922-10.655189-27.907493-0.00998-38.520764 10.669162-10.635228 27.949411-10.653193 38.644522 0.00998l188.599641 188.008796c10.673154 10.63922 10.657185 27.907493 0.009981 38.520764z m80.347072-80.093567c-10.669162 10.635228-27.947415 10.651197-38.644523-0.009981L169.483727 80.911969c-10.673154-10.63922-10.657185-27.909489-0.00998-38.52276 10.669162-10.635228 27.947415-10.651197 38.644522 0.00998l188.599641 188.008795c10.673154 10.63922 10.655189 27.909489 0.009981 38.522761z m80.345076-80.093568c-10.667166 10.633232-27.945419 10.651197-38.642526-0.00998l-188.599642-188.010792c-10.67515-10.63922-10.659181-27.907493-0.00998-38.520764 10.667166-10.635228 27.945419-10.653193 38.642526 0.009981l188.599641 188.008795c10.67515 10.63922 10.657185 27.909489 0.009981 38.52276z m80.347072-80.095563c-10.669162 10.635228-27.947415 10.653193-38.644522-0.00998l-188.599642-188.008796c-10.673154-10.63922-10.657185-27.909489-0.00998-38.52276 10.669162-10.633232 27.947415-10.651197 38.644522 0.00998l188.599641 188.010792c10.673154 10.63922 10.655189 27.907493 0.009981 38.520764z m-175.259696 400.358051c-11.289949 11.252023-29.582222 11.260008-40.906105-0.02595l-4.519174-4.507196c-11.303922-11.265996-11.289949-29.548288-0.025949-40.776359l252.277271-251.486815c11.287953-11.252023 29.582222-11.260008 40.904109 0.025949l4.52117 4.507197c11.301926 11.265996 11.287953 29.548288 0.025949 40.776359L382.160343 509.099665z"  horiz-adv-x="1024" />

    
    <glyph glyph-name="bug" unicode="&#59101;" d="M776.467462 464.574628c35.348959 31.652179 74.87975 92.958441 74.87975 208.896 0 22.076881 17.84315 39.922027 39.916039 39.922027 22.076881 0 39.918035-17.845146 39.918036-39.922027 0-162.957723-66.013068-244.384686-120.394854-283.813677 0.365287-10.493505 0.550924-22.304437 0.608811-35.562542h142.242183c20.697575 0 37.426901-13.38386 37.4269-29.94152s-16.729326-29.94152-37.4269-29.941521h-145.855127c-4.405396-30.436554-12.705185-59.972865-24.328483-87.942237C858.792671 171.766519 931.181287 101.366019 931.181287-27.659977c0-20.697575-16.729326-37.426901-37.426901-37.4269-20.695579 0-37.426901 16.729326-37.426901 37.4269 0 99.106433-57.02662 145.815205-108.442198 167.788289-47.391439-70.424452-117.566378-123.890027-197.580102-145.332148V272.062628c0 108.675743-76.650292 108.675743-76.650292 0v-277.266464c-80.137481 21.478051-150.394261 75.073372-197.777716 145.661505C224.321871 118.634292 167.672515 71.979415 167.672515-27.661973c0-20.695579-16.729326-37.424904-37.426901-37.424904S92.818713-48.355556 92.818713-27.659977c0 129.016016 72.38662 199.414519 147.725474 233.915135-11.623298 27.973365-19.923088 57.513669-24.326487 87.95621H70.362573c-20.697575 0-37.426901 13.38386-37.4269 29.941521s16.729326 29.94152 37.4269 29.94152h142.232203c0.031938 13.246129 0.131743 25.160858 0.347321 35.851977C158.580273 429.483166 92.818713 510.912125 92.818713 673.47462c0 22.076881 17.861115 39.922027 39.959954 39.922027 22.096842 0 39.957957-17.845146 39.957957-39.922027 0-105.505934 32.764008-165.77023 65.328405-199.610137 32.823891-0.125754 107.118784-64.144717 273.91501-64.144717 151.240608 0 227.076491 50.631111 264.487423 54.856858zM400.012725 762.253224c14.016624 41.802355 45.479173 70.905513 82.061723 70.905513 36.580554 0 68.025138-29.099166 82.031782-70.899525C632.808047 743.182472 691.649123 698.665419 691.649123 623.588055c0-104.372148-47.561107-149.727563-209.572679-149.727564S272.467836 519.215906 272.467836 623.588055c0 75.065388 58.845068 119.582441 127.544889 138.665169z"  horiz-adv-x="1024" />

    
    <glyph glyph-name="bulb" unicode="&#59102;" d="M450.366-94.616c13.73-16.626 34.496-27.204 57.774-27.204 23.27 0 44.032 10.584 57.76 27.204h34.754c16.188 0 29.5 13.274 29.5 29.618V-5.96c0 16.304-13.312 29.5-29.5 29.5h-177.308c-16.188 0-29.5-13.196-29.5-29.5v-59.04c0-16.342 13.312-29.616 29.5-29.616h27.02z m54.23 708.924c-126.424 0-228.904-102.52-228.904-228.904 0-129.89 111.734-205.508 111.734-272.068v-16.188c0-16.226 13.194-29.3 29.264-29.3h175.852c16.068 0 29.262 13.074 29.262 29.3v15.99c0 66.758 111.734 140.25 111.734 272.266-0.04 126.386-102.518 228.904-228.942 228.904z m-123.55-309.84c-17.172 24.144-27.294 53.406-27.294 85.112 0 81.998 67.466 148.52 150.646 148.52 28.988 0 55.966-8.154 78.888-22.214-2.756 0.158-5.632 0.432-8.468 0.432-107.6 0-194.756-86.054-194.756-192.196 0-6.578 0.394-13.234 0.984-19.654zM512 693.076c-21.78 0-39.384 17.606-39.384 39.386V850.616C472.616 872.396 490.22 890 512 890s39.384-17.604 39.384-39.384V732.46c0-21.78-17.604-39.386-39.384-39.386z m472.616-354.46H866.46c-21.78 0-39.386 17.604-39.386 39.384s17.606 39.384 39.386 39.384h118.154c21.78 0 39.384-17.604 39.384-39.384s-17.604-39.384-39.384-39.384z m-827.078 0H39.384C17.604 338.616 0 356.22 0 378s17.604 39.384 39.384 39.384H157.54c21.78 0 39.386-17.604 39.386-39.384s-17.606-39.384-39.386-39.384z m674.314-319.852a39.276 39.276 0 0 0-27.844 11.54l-83.536 83.534c-15.4 15.4-15.4 40.29 0 55.69 15.4 15.4 40.292 15.4 55.69 0l83.536-83.536c15.4-15.4 15.4-40.29 0-55.69-7.68-7.72-17.764-11.54-27.846-11.54zM280.508 570.148a39.276 39.276 0 0 0-27.846 11.54L169.088 665.22c-15.4 15.4-15.4 40.29 0 55.69 15.4 15.4 40.29 15.4 55.69 0l83.574-83.534c15.4-15.4 15.4-40.292 0-55.69-7.72-7.68-17.762-11.54-27.844-11.54zM196.932 18.764a39.276 39.276 0 0 0-27.844 11.54c-15.4 15.4-15.4 40.29 0 55.688l83.534 83.536c15.4 15.4 40.292 15.4 55.69 0 15.4-15.4 15.4-40.292 0-55.69L224.78 30.3a39.18 39.18 0 0 0-27.846-11.54zM748.32 570.108a39.276 39.276 0 0 0-27.846 11.54c-15.4 15.4-15.4 40.29 0 55.69l83.536 83.574c15.4 15.4 40.29 15.4 55.69 0 15.4-15.4 15.4-40.29 0-55.69l-83.536-83.574a39.276 39.276 0 0 0-27.844-11.54z"  horiz-adv-x="1024" />

    
    <glyph glyph-name="calendar-7" unicode="&#59103;" d="M831.376218 766.45901c71.55225-6.076133 127.750487-66.082932 127.750488-139.212102v-550.943937c0-77.175267-62.557817-139.717115-139.727096-139.717115H204.60039c-77.155306 0-139.727096 62.553825-139.727096 139.719111V627.244912c0 73.141146 56.188257 133.139961 127.750488 139.212102V735.034386c0-52.920639 42.886238-95.82085 95.812865-95.82085 52.916647 0 95.812865 42.910191 95.812866 95.82085V766.964023h255.500974V735.034386c0-52.920639 42.886238-95.82085 95.812866-95.82085 52.916647 0 95.812865 42.910191 95.812865 95.82085V766.45901zM198.612086 575.338292c-38.584639 0-69.863548-31.264936-69.863548-69.843586v-435.19002c0-38.572663 31.296873-69.843587 69.863548-69.843587h626.775828c38.584639 0 69.863548 31.264936 69.863548 69.843587v435.19002c0 38.572663-31.296873 69.843587-69.863548 69.843586H198.612086z m89.824561 255.500975c-17.639548 0-31.937622-14.282105-31.937622-31.947602v-63.855283c0-17.64354 14.296078-31.947602 31.937622-31.947602 17.639548 0 31.937622 14.284101 31.937622 31.949598V798.889669c0 17.645536-14.296078 31.947602-31.937622 31.947602z m447.126706 0c-17.639548 0-31.937622-14.282105-31.937622-31.947602v-63.855283c0-17.64354 14.296078-31.947602 31.937622-31.947602 17.639548 0 31.937622 14.284101 31.937622 31.949598V798.889669c0 17.645536-14.296078 31.947602-31.937622 31.947602z m-373.670176-355.805068v-106.494004h174.15186c-17.92499-20.801372-33.811961-42.730542-47.662908-65.787509-13.850947-23.054971-25.765676-46.628928-35.746184-70.725863-9.980507-24.096936-18.230394-48.451368-24.747664-73.067291-6.519267-24.615922-11.204117-48.712858-14.05455-72.286815h117.322854c2.036023 23.228632 6.213864 47.583064 12.527532 73.067291 6.313669 25.48223 14.461754 50.876632 24.442261 76.187197a677.436881 677.436881 0 0 0 34.219166 73.586276c12.832936 23.749614 26.785684 45.678784 41.858245 65.787509v99.733209H361.893177z"  horiz-adv-x="1024" />

    
    <glyph glyph-name="camera" unicode="&#59104;" d="M960 480h-128v64h128v-64zM544 32c-159.074 0-288 128.926-288 288s128.926 288 288 288 288-128.926 288-288-128.926-288-288-288z m416 640H736c-16 64-32 128-96 128H384c-64 0-80-64-96-128H64c-35.2 0-64-28.8-64-64v-576c0-35.2 28.8-64 64-64h896c35.2 0 64 28.8 64 64V608c0 35.2-28.8 64-64 64zM320 320c0-123.716 100.284-224 224-224s224 100.284 224 224-100.284 224-224 224-224-100.284-224-224z"  horiz-adv-x="1024" />

    
    <glyph glyph-name="calendar-n" unicode="&#59105;" d="M831.376218 766.724491c71.55225-6.076133 127.750487-66.082932 127.750488-139.212101v-550.941942c0-77.177263-62.557817-139.717115-139.727096-139.717115H204.60039c-77.155306 0-139.727096 62.553825-139.727096 139.717115v550.943938c0 73.141146 56.188257 133.137965 127.750488 139.210105v-31.422627c0-52.920639 42.886238-95.82085 95.812865-95.82085 52.916647 0 95.812865 42.908195 95.812866 95.82085V767.231501h255.500974v-31.929637c0-52.920639 42.886238-95.82085 95.812866-95.82085 52.916647 0 95.812865 42.908195 95.812865 95.82085V766.724491zM208.608561 575.60577C164.502706 575.60577 128.748538 539.861583 128.748538 495.745747v-415.159143c0-44.10386 35.750175-79.858027 79.860023-79.858027h606.782878c44.105856 0 79.860023 35.744187 79.860023 79.858027V495.745747c0 44.105856-35.750175 79.860023-79.860023 79.860023H208.608561zM288.436647 831.106745c-17.639548 0-31.937622-14.284101-31.937622-31.949599v-63.853286c0-17.645536 14.296078-31.947602 31.937622-31.947603 17.639548 0 31.937622 14.282105 31.937622 31.947603v63.855282c0 17.64354-14.296078 31.947602-31.937622 31.947603z m447.126706 0c-17.639548 0-31.937622-14.284101-31.937622-31.949599v-63.853286c0-17.645536 14.296078-31.947602 31.937622-31.947603 17.639548 0 31.937622 14.282105 31.937622 31.947603v63.855282c0 17.64354-14.296078 31.947602-31.937622 31.947603z m-44.543002-766.502924h-90.597053l-175.830581 268.571446c-9.114199 13.938776-15.725287 25.196788-19.835259 33.774035h-1.34138c1.608858-14.296078 2.413287-36.362979 2.413287-66.204694V64.603821h-83.896141v415.189083h96.493536l169.399143-261.070097c11.258012-17.332148 18.136577-28.320686 20.639688-32.96761h1.339384c-1.786511 10.008452-2.680764 29.127111-2.680764 57.359969V479.792904h83.89614v-415.189083z"  horiz-adv-x="1024" />

    
    <glyph glyph-name="caret-circle-down" unicode="&#59106;" d="M959.126706 383.349271c0-246.941692-200.185014-447.126706-447.126706-447.126706s-447.126706 200.185014-447.126706 447.126706c0 246.939696 200.185014 447.126706 447.126706 447.126706s447.126706-200.18701 447.126706-447.126706zM262.826667 484.902924l-37.071595-34.937762a13.687267 13.687267 0 0 1 0-19.350207l276.569825-276.57182a13.639361 13.639361 0 0 1 9.675103-4.00418c3.503158 0 7.006316 1.335392 9.675103 4.00418l276.569825 276.57182a13.687267 13.687267 0 0 1 0 19.350207L746.581832 484.902924a13.687267 13.687267 0 0 1-19.350206 0L512 272.03069 282.174877 484.902924a13.687267 13.687267 0 0 1-19.350206 0z"  horiz-adv-x="1024" />

    
    <glyph glyph-name="calendar-31" unicode="&#59107;" d="M703.625731 32.39872100000002h63.875244v447.126706h-127.750488v-63.875244h63.875244v-383.251462z m-127.750487 447.126706H256.499025v-63.875244h255.500975v-127.750487H256.499025v-63.875244h255.500975v-127.750487H256.499025v-63.875244h319.376219v447.126706z m159.688109 191.625731c17.629567 0 31.937622 14.308055 31.937622 31.937622v127.750487c0 17.629567-14.308055 31.937622-31.937622 31.937622s-31.937622-14.308055-31.937622-31.937622v-127.750487c0-17.629567 14.308055-31.937622 31.937622-31.937622z m-447.126706 0c17.629567 0 31.937622 14.308055 31.937622 31.937622v127.750487c0 17.629567-14.308055 31.937622-31.937622 31.937622s-31.937622-14.308055-31.937622-31.937622v-127.750487c0-17.629567 14.308055-31.937622 31.937622-31.937622zM895.251462-31.348772000000054c-0.031938-0.031938-0.063875-0.095813-0.12775-0.12775H128.876288c-0.031938 0.031938-0.095813 0.063875-0.12775 0.12775V543.400671h766.502924V-31.348772000000054zM799.438596 735.026402v-31.937622c0-35.259135-28.616109-63.875244-63.875243-63.875244s-63.875244 28.616109-63.875244 63.875244v31.937622H352.311891v-31.937622c0-35.259135-28.616109-63.875244-63.875244-63.875244s-63.875244 28.616109-63.875243 63.875244v31.937622H128.748538c-35.131384 0-63.875244-28.74386-63.875244-63.875244v-702.62768c0-35.131384 28.74386-63.875244 63.875244-63.875244h766.502924c35.131384 0 63.875244 28.74386 63.875244 63.875244v702.62768c0 35.131384-28.74386 63.875244-63.875244 63.875244h-95.812866z"  horiz-adv-x="1024" />

    
    <glyph glyph-name="caret-circle-left" unicode="&#59108;" d="M512-63.777435c-246.941692 0-447.126706 200.185014-447.126706 447.126706 0 246.939696 200.185014 447.126706 447.126706 447.126706s447.126706-200.18701 447.126706-447.126706c0-246.941692-200.185014-447.126706-447.126706-447.126706z m101.553653 696.300039l-34.937762 37.071595a13.687267 13.687267 0 0 1-19.350207 0L282.69586 393.022378a13.639361 13.639361 0 0 1-4.006176-9.675103c0-3.503158 1.337388-7.006316 4.006176-9.675103L559.265684 97.100351a13.687267 13.687267 0 0 1 19.350207 0l34.937762 51.665091a13.687267 13.687267 0 0 1 0 19.350207L400.683415 383.349271 613.553653 613.172398a13.687267 13.687267 0 0 1 0 19.350206z"  horiz-adv-x="1024" />

    
    <glyph glyph-name="caret-circle-up" unicode="&#59109;" d="M959.126706 383.349271c0 246.939696-200.185014 447.126706-447.126706 447.126706s-447.126706-200.18701-447.126706-447.126706c0-246.941692 200.185014-447.126706 447.126706-447.126706s447.126706 200.185014 447.126706 447.126706z m-696.300039-101.555649L225.753076 316.731384a13.687267 13.687267 0 0 0 0 19.350207L502.324897 612.653411a13.639361 13.639361 0 0 0 9.675103 4.00418c3.503158 0 7.006316-1.333396 9.675103-4.00418l276.569825-276.57182a13.687267 13.687267 0 0 0 0-19.350207l-51.663096-34.937762a13.687267 13.687267 0 0 0-19.350206 0L512 494.665856 282.174877 281.793622a13.687267 13.687267 0 0 0-19.350206 0z"  horiz-adv-x="1024" />

    
    <glyph glyph-name="caret-circle-right" unicode="&#59110;" d="M512-63.777435c246.941692 0 447.126706 200.185014 447.126706 447.126706 0 246.939696-200.185014 447.126706-447.126706 447.126706s-447.126706-200.18701-447.126706-447.126706c0-246.941692 200.185014-447.126706 447.126706-447.126706z m-101.553653 696.300039l34.937762 37.071595a13.687267 13.687267 0 0 0 19.350207 0L741.30414 393.022378a13.639361 13.639361 0 0 0 4.006176-9.675103c0-3.503158-1.337388-7.006316-4.006176-9.675103L464.734316 97.100351a13.687267 13.687267 0 0 0-19.350207 0l-34.937762 51.665091a13.687267 13.687267 0 0 0 0 19.350207l212.870238 215.231626L410.446347 613.172398a13.687267 13.687267 0 0 0 0 19.350206z"  horiz-adv-x="1024" />

    
    <glyph glyph-name="caret-down" unicode="&#59111;" d="M89.534 665.024L12 607.7C2.7 598.398 2.7 583.3 12 574l494.61-485.15a23.754 23.754 0 0 1 16.848-6.976c6.1 0 12.2 2.326 16.85 6.976L1008.968 574c9.3 9.3 9.3 24.396 0 33.698l-76.998 57.326c-9.3 9.3-24.396 9.3-33.698 0L523.46 294.32 123.23 665.024c-9.3 9.3-24.396 9.3-33.696 0z"  horiz-adv-x="1024" />

    
    <glyph glyph-name="caret-left" unicode="&#59112;" d="M793.024 816.466l-60.84 64.56c-9.302 9.3-24.4 9.3-33.7 0L216.85 399.388a23.754 23.754 0 0 1-6.976-16.848c0-6.1 2.326-12.2 6.976-16.85L698.484-115.94c9.3-9.3 24.398-9.3 33.7 0l60.84 89.972c9.3 9.3 9.3 24.396 0 33.698L422.32 382.54 793.024 782.77c9.3 9.3 9.3 24.396 0 33.696z"  horiz-adv-x="1024" />

    
    <glyph glyph-name="caret-right" unicode="&#59113;" d="M230.976 816.466l60.84 64.56c9.302 9.3 24.4 9.3 33.7 0l481.634-481.636a23.754 23.754 0 0 0 6.976-16.848c0-6.1-2.326-12.2-6.976-16.85L325.516-115.94c-9.3-9.3-24.398-9.3-33.7 0l-60.84 89.972c-9.3 9.3-9.3 24.396 0 33.698L601.68 382.54 230.976 782.77c-9.3 9.3-9.3 24.396 0 33.696z"  horiz-adv-x="1024" />

    
    <glyph glyph-name="caret-up" unicode="&#59114;" d="M89.534 102.976L12 160.3C2.7 169.602 2.7 184.7 12 194l494.61 485.15a23.754 23.754 0 0 0 16.848 6.976c6.1 0 12.2-2.326 16.85-6.976L1008.968 194c9.3-9.3 9.3-24.396 0-33.698l-76.998-57.326c-9.3-9.3-24.396-9.3-33.698 0L523.46 473.68 123.23 102.976c-9.3-9.3-24.396-9.3-33.696 0z"  horiz-adv-x="1024" />

    
    <glyph glyph-name="chart-bubble" unicode="&#59115;" d="M130 159.136a192.26 190.988 90 1 1 381.976 0 192.26 190.988 90 1 1-381.976 0ZM511.976 607.74a192.26 190.988 90 1 1 381.976 0 192.26 190.988 90 1 1-381.976 0ZM575.64 127.092a160.216 159.156 90 1 1 318.312 0 160.216 159.156 90 1 1-318.312 0ZM130 607.74a128.172 127.326 90 1 1 254.652 0 128.172 127.326 90 1 1-254.652 0Z"  horiz-adv-x="1024" />

    
    <glyph glyph-name="chart-bar" unicode="&#59116;" d="M831.376218 831.126706h191.625731v-702.627681h-191.625731v702.627681z m-255.500974-447.126706h191.625731v-255.500975h-191.625731v255.500975z m-255.500975 191.625731h191.625731v-447.126706h-191.625731v447.126706z m-255.500975-255.500975h191.625731v-191.625731H64.873294v191.625731z m-63.875243-255.500974h1022.003898v-127.750488H0.998051v127.750488z"  horiz-adv-x="1024" />

    
    <glyph glyph-name="chart-data" unicode="&#59117;" d="M804.571429 164.571429h292.571428v-219.428572H804.571429v219.428572z m-731.428572 0h292.571429v-219.428572H73.142857v219.428572zM804.571429 749.714286h292.571428v-219.428572H804.571429V749.714286z m0-292.571429h292.571428v-219.428571H804.571429v219.428571z m-731.428572 0h292.571429v-219.428571H73.142857v219.428571z m292.571429 73.142857H73.142857V749.714286h292.571429v-219.428572z m365.714285 0H438.857143V749.714286h292.571428v-219.428572z m0-585.142857H438.857143v219.428572h292.571428v-219.428572zM438.857143 457.142857h292.571428v-219.428571H438.857143v219.428571zM0-128h1170.285714V896H0v-1024z"  horiz-adv-x="1170" />

    
    <glyph glyph-name="chart-donut-pie" unicode="&#59118;" d="M174.606 679.08C105.732 600.266 64 497.108 64 384.2c0-68.34 15.29-133.112 42.634-191.072l182.296 105.248c-10.246 26.64-15.864 55.576-15.864 85.826 0 55.15 18.67 105.94 50.03 146.386L174.606 679.08z m39.42 39.812C288.766 785.544 385.98 827.51 492.88 832v-209.514c-49.212-3.896-94.226-22.712-130.528-51.924l-148.33 148.33zM133.67 144.046C213.156 18.982 352.892-63.998 512-63.998c111.452 0 213.4 40.716 291.788 108.092l-134.438 160.218C627.32 167.48 572.264 145.16 512 145.16c-81.706 0-153.834 41.03-196.92 103.62l-181.408-104.736zM548.906 830.902C779.066 812.126 960 619.3 960 384.2c0-115.812-43.904-221.364-115.97-300.906l-136.812 163.046c27.536 38.956 43.716 86.518 43.716 137.86 0 119.46-87.592 218.454-202.028 236.204V830.902z"  horiz-adv-x="1024" />

    
    <glyph glyph-name="chart-curve-stack-area" unicode="&#59119;" d="M958.848 7.4360000000000355c-9.614 0.742-19.22 2.126-28.832 2.13-278.304 0.116-556.61 0.094-834.918 0.094H65.548c3.87 5.48 5.056 8.018 6.97 9.75 64.416 58.278 128.636 116.774 193.8 174.198 5.988 5.272 19.16 7.134 27.106 4.612a4097.61 4097.61 0 0 0 154.866-52.592c14.408-5.21 22.61-2.572 32.518 8.774 59.6 68.28 120.312 135.588 179.88 203.894 9.938 11.39 17.288 13.92 31.788 7.572 80.746-35.366 162.048-69.47 243.252-103.782 7.374-3.114 15.404-4.666 23.12-6.942v-247.708zM70.09 192.25599999999997V475.414c8.332 0.408 16.19 1.108 24.052 1.12 64.404 0.09 128.82-0.612 193.2 0.692 10.976 0.22 24.722 6.108 32.184 14.08 40.46 43.236 79.92 87.442 118.432 132.436 11.984 14.006 24.426 18.696 42.414 18.38 61.39-1.07 122.814-0.872 184.21-0.014 12.13 0.166 25.226 3.306 36.128 8.652 75.236 36.882 149.998 74.738 224.944 112.194 7.152 3.572 14.578 6.57 23.52 10.57v-408.336c-95.448 44.872-189.104 88.896-283.568 133.304-68.372-77.924-136.45-154.746-203.404-232.54-12.066-14.026-21.834-17.808-39.51-10.696-44.374 17.852-89.882 32.872-134.436 50.308-13.958 5.46-24.49 4.75-37.3-3.326-51.91-32.75-104.54-64.36-156.942-96.326-6.874-4.188-13.966-7.986-23.924-13.656z"  horiz-adv-x="1024" />

    
    <glyph glyph-name="chart-curve-single-line" unicode="&#59120;" d="M985.56 94.70600000000002v-59.732H32v59.732zM259.682 313.78c5.026 9.6 10.364 20.988 16.18 34.42 7.404 17.096 36.376 89.1 33.488 82.038 23.234 56.79 41.296 93.72 62.904 124.022 10.544 14.788 21.65 27.296 33.426 37.3a70.768 70.768 0 0 0-1.39 14c0 38.902 31.536 70.44 70.44 70.44 38.902 0 70.44-31.538 70.44-70.44 0-3.148-0.206-6.248-0.608-9.288 7.586-6.32 14.576-13.846 21-22.51 15.3-20.62 25.064-42.016 41.546-85.632l1.342-3.558 1.338-3.546c1.088-2.884 1.882-4.986 2.668-7.052 17.21-45.328 28.84-68.528 45.094-85.774 5.02-5.326 10.366-9.78 16.18-13.34 12.802 13.192 30.724 21.392 50.56 21.392a70.19 70.19 0 0 0 47.854-18.752c47.274 21.884 84.752 70.312 113.046 139.34 14.51 35.4 25.47 73.606 33.304 111.85a677.44 677.44 0 0 1 5.714 31.566c0.284 1.824 8.01 13.292 20.304 15.32 12.296 2.026 25.556-3.67 29.638-7.08 4.04-2.876 6.82-9.718 6.628-11.02a720.356 720.356 0 0 0-7.078-40.096c-8.492-41.45-20.392-82.936-36.368-121.914-18.68-45.57-41.786-84.786-70.1-115.684-21.538-23.504-45.704-41.734-72.502-53.948v-0.022c0-38.904-31.538-70.44-70.44-70.44-37.44 0-68.056 29.206-70.308 66.078-13.798 6.834-26.262 16.24-37.44 28.1-22.984 24.384-36.99 52.324-56.77 104.42l-2.71 7.164-1.34 3.55-1.328 3.526c-15.212 40.258-27 65.048-39.878 79.214a70.114 70.114 0 0 0-39.786-12.304 70.112 70.112 0 0 0-36.356 10.094c-6.684-6.23-13.412-14.098-20.24-23.672-18.384-25.78-34.946-59.646-56.63-112.642-2.574-6.296-5.2-12.788-8.58-21.208-0.478-1.19-6.664-16.622-8.468-21.104-6.914-17.188-11.906-29.292-16.882-40.78-10.232-23.63-19.38-42.106-28.656-56.986a70.48 70.48 0 0 0 2.73-19.488c0-38.904-31.538-70.44-70.44-70.44-38.32 0-69.494 30.6-70.42 68.696-24.748 19.85-49.04 49.374-73.408 86.542-15.216 23.21-29.424 47.94-42.284 72.66a928.6 928.6 0 0 0-5.274 10.29c-2.42 4.796-2.25 11.936-0.542 16.808 1.706 4.872 5.376 12.502 20.788 20.08 15.414 7.578 26.68-4.736 28.26-7.902a858.154 858.154 0 0 1 6.758-13.266c12.048-23.156 25.342-46.3 39.42-67.772 17.17-26.19 34.132-47.668 49.916-63.038a70.176 70.176 0 0 0 46.786 17.78c10.134 0 19.768-2.14 28.474-5.99z m464.608-18.158c16.672 0 30.188 13.516 30.188 30.19 0 16.672-13.516 30.188-30.188 30.188-16.674 0-30.19-13.516-30.19-30.188 0-16.674 13.516-30.19 30.19-30.19z m-249.56 279.75c16.672 0 30.188 13.516 30.188 30.188 0 16.672-13.516 30.188-30.188 30.188-16.674 0-30.19-13.516-30.19-30.188 0-16.672 13.516-30.188 30.19-30.188zM231.208 219.144c16.672 0 30.188 13.516 30.188 30.19 0 16.672-13.516 30.188-30.188 30.188-16.674 0-30.19-13.516-30.19-30.188 0-16.674 13.516-30.19 30.19-30.19z"  horiz-adv-x="1024" />

    
    <glyph glyph-name="chart-curve-group-line" unicode="&#59121;" d="M32 90h960v-60.04H32zM569.866 261.98c-2.654 1.98-5.342 4.06-8.072 6.242-17.648 14.11-20.35 16.66-67.884 62.76-26.64 25.84-43.522 41.074-60.618 53.932-13.228 9.946-25.15 17.174-35.96 21.71-7.56 3.174-15.908 6.02-24.962 8.542l30.568 46.664c5.234-1.794 10.286-3.71 15.152-5.754 15.35-6.442 30.932-15.886 47.438-28.3 19.384-14.576 37.56-30.98 65.72-58.294 45.612-44.234 48.408-46.874 64.034-59.368l0.99-0.786a66.744 66.744 0 0 0 40.352 13.498c15.28 0 29.364-5.112 40.64-13.718 4.732 3.5 9.708 7.42 14.882 11.748 11.978 10.014 24.692 21.854 37.872 35.132 15.94 16.058 31.712 33.336 46.568 50.62a1051.878 1051.878 0 0 1 6.644 7.806c2.632 3.126 16.602 6.236 22.74 4.624 6.136-1.612 12.76-4.232 20.26-14.612 7.5-10.38 2.046-19.764 0-22.206a1090.338 1090.338 0 0 0-8.972-10.57c-15.634-18.192-32.246-36.392-49.178-53.446-14.274-14.38-28.17-27.322-41.53-38.492-7.98-6.674-15.686-12.678-23.146-17.96 0.172-1.966 0.26-3.956 0.26-5.966 0-37.026-30.014-67.04-67.04-67.04-37.026 0-67.04 30.014-67.04 67.04 0 2.088 0.094 4.154 0.28 6.192z m-321.752 168.056a749.868 749.868 0 0 1-31.76-0.308c-3.086-0.096-15.4 3.992-18.9 11.762-3.5 7.772-4.208 10.84-2.156 24.588 2.052 13.748 17.38 17.2 21.34 17.314 20.124 0.576 41.18 0.432 62.422-0.674l-30.946-52.68z m388.51-202.982c15.868 0 28.732 12.864 28.732 28.732 0 15.868-12.864 28.732-28.732 28.732-15.868 0-28.732-12.864-28.732-28.732 0-15.868 12.864-28.732 28.732-28.732zM503.776 560.662c7-7.388 14.748-16.354 23.494-27.076 1.71-2.094 7.674-9.436 7.734-9.508a1235.164 1235.164 0 0 1 7.842-9.56c6.066-7.31 11.214-13.24 16.244-18.63 0.908-0.972 1.812-1.928 2.712-2.864-0.08-1.334-0.12-2.68-0.12-4.032 0-37.026 30.016-67.04 67.04-67.04 37.026 0 67.04 30.014 67.04 67.04 0 3.51-0.268 6.96-0.788 10.324 10.912 12.092 22.5 26.786 34.76 43.87 11.126 15.5 22.69 32.814 34.584 51.64 17.504 27.706 34.874 57.308 51.352 86.9a2013.52 2013.52 0 0 1 13.988 25.54c0.556 1.036 5.382 10.664-8.15 22.12-5.154 4.364-11.836 7.448-17.264 8.266-8.82 1.33-15.572-1.572-15.572-1.572s-6.68-4.214-7.74-6.174a1983.72 1983.72 0 0 0-12.12-22.09c-16.03-28.788-32.916-57.566-49.836-84.346-11.362-17.982-22.352-34.438-32.812-49.012-7.696-10.72-15.018-20.3-21.888-28.62a66.728 66.728 0 0 1-35.554 10.194 66.74 66.74 0 0 1-39.786-13.076c-3.57 4.26-9.106 11.048-20.11 24.534-17.196 21.08-28.884 34.136-41.632 45.268-0.628 36.482-30.4 65.864-67.03 65.864-37.026 0-67.04-30.016-67.04-67.04 0-2.322 0.116-4.614 0.346-6.874a327.264 327.264 0 0 1-6.41-7.48c-18.762-22.534-39.626-53.556-62.412-92.01-13.534-22.84-27.606-48.074-42.086-75.312-23.38-43.98-46.704-91.026-68.9-138.06a3589.008 3589.008 0 0 1-21.08-45.46c-2.19-4.812 2.226-15.466 6.2-19.352 3.976-3.886 7.504-7.632 18-9.538 10.496-1.904 22.856 3.02 24.704 6.984 6.28 13.46 13.024 28.26 20.68 44.478 21.856 46.318 44.816 92.626 67.754 135.774 14.112 26.546 27.788 51.07 40.868 73.146 19.094 32.22 36.562 58.62 51.892 78.112a66.73 66.73 0 0 1 37.484-11.45 66.778 66.778 0 0 1 43.612 16.122z m-43.612 22.186c15.868 0 28.73 12.864 28.73 28.732 0 15.868-12.862 28.732-28.73 28.732-15.87 0-28.732-12.864-28.732-28.732 0-15.868 12.862-28.732 28.732-28.732z m168.56-122.588c15.866 0 28.73 12.864 28.73 28.732 0 15.868-12.864 28.732-28.732 28.732-15.868 0-28.73-12.864-28.73-28.732 0-15.868 12.862-28.732 28.73-28.732z"  horiz-adv-x="1024" />

    
    <glyph glyph-name="chart-horizontal-single-bar" unicode="&#59122;" d="M32 836v-186.454h960V836H32z m0-239.454v-186.454h660v186.454H32z m0-239.452v-186.456h480v186.456H32z m0-239.454v-186.456h240V117.63999999999999H32z"  horiz-adv-x="1024" />

    
    <glyph glyph-name="chart-line" unicode="&#59123;" d="M288.436647 64.623782c-52.920639 0-95.812865 42.892226-95.812865 95.812865s42.892226 95.812865 95.812865 95.812866c2.810511 0 5.621021-0.159688 8.367657-0.383252l102.998831 171.664718c-9.836788 15.010682-15.553622 32.991563-15.553622 52.281886 0 52.920639 42.892226 95.812865 95.812865 95.812866s95.812865-42.892226 95.812866-95.812866c0-19.290324-5.716834-37.271205-15.553622-52.281886l102.99883-171.664718a103.412023 103.412023 0 0 0 8.367657 0.383252c2.139821 0 4.247704-0.095813 6.323649-0.223564l170.035899 297.530885A95.473528 95.473528 0 0 0 831.376218 607.563353c0 52.920639 42.892226 95.812865 95.812866 95.812865s95.812865-42.892226 95.812865-95.812865-42.892226-95.812865-95.812865-95.812866a102.739337 102.739337 0 0 0-6.323649 0.223564l-170.035899-297.530885A95.473528 95.473528 0 0 0 767.500975 160.436647c0-52.920639-42.892226-95.812865-95.812866-95.812865s-95.812865 42.892226-95.812865 95.812865a95.289887 95.289887 0 0 0 15.553621 52.313825l-102.99883 171.632779a103.412023 103.412023 0 0 0-8.367657-0.383251c-2.810511 0-5.621021 0.159688-8.367657 0.383251l-102.99883-171.664717c9.836788-15.010682 15.553622-32.991563 15.553622-52.281887 0-52.920639-42.892226-95.812865-95.812866-95.812865z m-159.688109-63.875244h894.253411v-127.750487H0.998051V895.001949h127.750487v-894.253411z"  horiz-adv-x="1024" />

    
    <glyph glyph-name="chart-earth" unicode="&#59124;" d="M835.838 67.2c64.03 63.104 106.588 141.664 124.162 227.104-13.71-19.84-26.768-27.232-34.89 17.216-8.35 72.352-75.822 26.112-118.282 51.808-44.668-29.632-145.084 57.696-127.996-40.8 26.314-44.384 142.128 59.424 84.4-34.56-36.84-65.568-134.656-210.88-121.92-286.24 1.59-109.76-113.864-22.88-153.628 13.504-26.768 72.928-9.128 200.416-79.072 236.096-75.952 3.232-141.12 10.048-170.552 93.696-17.704 59.84 18.842 148.864 83.944 162.656 95.25 58.912 129.296-69.088 218.666-71.488 27.742 28.64 103.338 37.696 109.608 69.76-58.606 10.208 74.392 48.576-5.588 70.4-44.15-5.12-72.574-45.088-49.12-78.976-85.502-19.648-88.264 121.952-170.454 77.248-2.08-70.592-134.232-22.848-45.74-8.512 30.44 13.024-49.574 51.008-6.368 44.096 21.246 1.12 92.716 25.792 73.386 42.368 39.796 24.384 73.256-58.24 112.208 1.92 28.132 46.272-11.794 54.784-47.04 31.328-19.882 21.952 35.084 69.28 83.586 89.76 16.146 6.848 31.576 10.56 43.37 9.504 24.428-27.84 69.618-32.64 71.956 3.296C649.984 816.96 583.29 832 514.258 832 415.14 832 320.9 800.992 242.9 743.648c20.952-9.472 32.842-21.248 12.668-36.32-15.69-46.08-79.362-107.872-135.272-99.136A439.376 439.376 0 0 1 64 447.68c46.812-15.264 57.598-45.44 47.56-55.552-23.846-20.48-38.528-49.536-46.066-81.344 15.236-91.84 59.06-176.448 127.184-243.584 85.892-84.608 200.08-131.2 321.58-131.2 121.466 0 235.686 46.592 321.58 131.2m38.21 678.88C970.752 649.344 1024 520.8 1024 384c0-136.768-53.248-265.344-149.952-362.048C777.344-74.752 648.768-128 512-128s-265.344 53.248-362.048 149.952C53.248 118.656 0 247.232 0 384c0 136.8 53.248 265.344 149.952 362.08C246.656 842.752 375.232 896 512 896s265.344-53.248 362.048-149.92"  horiz-adv-x="1024" />

    
    <glyph glyph-name="chart-matrix-pie" unicode="&#59125;" d="M484 412H64v-56h420v-420h56V356h420v56H540V832h-56v-420zM794.346 563.112c-42.834 85.644-131.17 144.444-233.248 144.444V446.22l233.248 116.89z m-270.496-166.668V657.78c-144.02 0-260.74-116.984-260.74-261.334 0-144.33 116.72-261.332 260.74-261.332 144 0 260.738 117 260.738 261.332 0 42.02-9.928 81.724-27.49 116.892l-233.248-116.892z"  horiz-adv-x="1024" />

    
    <glyph glyph-name="chart-table" unicode="&#59127;" d="M703.625731 192.374269h255.500975v-127.750487H703.625731v127.750487z m-638.752437 0h255.500975v-127.750487H64.873294v127.750487z m638.752437 383.251462h255.500975v-127.750487H703.625731v127.750487z m0-191.625731h255.500975v-127.750487H703.625731v127.750487z m-638.752437 0h255.500975v-127.750487H64.873294v127.750487z m255.500975 63.875244H64.873294v127.750487h255.500975v-127.750487z m319.376218 0H384.249513v127.750487h255.500974v-127.750487z m0-383.251462H384.249513v127.750487h255.500974v-127.750487z m-255.500974 319.376218h255.500974v-127.750487H384.249513v127.750487zM0.998051 0.748538h1022.003898v766.502924H0.998051v-766.502924z"  horiz-adv-x="1024" />

    
    <glyph glyph-name="chart-treemap" unicode="&#59128;" d="M32 804h420v-841.918H32V804z m480 0h480v-481.096H512V804z m0-541.232h480V-37.92H512V262.768z"  horiz-adv-x="1024" />

    
    <glyph glyph-name="chart-vertical-group-bar" unicode="&#59129;" d="M32-17.597999999999956h380v-47.608H32v47.608z m580 0h380v-47.608H612v47.608zM618.666 816h160v-776.96h-160V816zM832 488h160v-448.96h-160V488z m-586.666 0h160v-448.96h-160V488zM32 816h160v-776.96H32V816z"  horiz-adv-x="1024" />

    
    <glyph glyph-name="chart-pie" unicode="&#59130;" d="M967.877614 647.868632C894.421084 794.398441 742.940943 895.001949 567.890838 895.001949v-447.126705l399.986776 199.993388zM504.015595 320.124756v447.126706c-246.97363 0-447.126706-200.153076-447.126706-447.126706 0-246.941692 200.153076-447.126706 447.126706-447.126705 246.941692 0 447.126706 200.185014 447.126705 447.126705 0 71.891587-17.022752 139.822908-47.13993 199.993388L504.015595 320.124756z"  horiz-adv-x="1024" />

    
    <glyph glyph-name="chart-vertical-single-bar" unicode="&#59131;" d="M60 864v-960h186.454V864H60z m240-300v-660h186.454V564H300z m240-180v-480h186.454V384H540z m238-240v-240h186.454V144H778z"  horiz-adv-x="1024" />

    
    <glyph glyph-name="chart-matrix-rectangle" unicode="&#59132;" d="M308.586 600c0-6.888-5.636-12.524-12.524-12.524H76.992c-6.89 0-12.526 5.636-12.526 12.526V819.072c0 6.888 5.636 12.524 12.526 12.524H296.06c6.888 0 12.524-5.636 12.524-12.524V600zM939.534 168a7.44 7.44 0 0 1 7.474-7.476H727.94a7.44 7.44 0 0 1 7.476 7.474v-219.07a7.44 7.44 0 0 1-7.476 7.476h219.07a7.44 7.44 0 0 1-7.474-7.476V168z m7.474-231.596H727.94c-6.888 0-12.524 5.636-12.524 12.524V168c0 6.89 5.636 12.526 12.524 12.526h219.07c6.89 0 12.526-5.636 12.526-12.526v-219.07c0-6.888-5.636-12.524-12.526-12.524zM634.124 274.466c0-6.89-5.638-12.526-12.526-12.526H402.4c-6.888 0-12.526 5.636-12.526 12.526V493.534c0 6.89 5.638 12.526 12.526 12.526h219.07c6.89 0 12.526-5.636 12.526-12.526v-219.068h0.126zM959.534 274.466c0-6.89-5.636-12.526-12.526-12.526H727.94c-6.888 0-12.524 5.636-12.524 12.526V493.534c0 6.89 5.636 12.526 12.524 12.526h219.07c6.89 0 12.526-5.636 12.526-12.526v-219.068zM308.586-51.072c0-6.888-5.636-12.524-12.524-12.524H76.992c-6.89 0-12.526 5.636-12.526 12.524V168c0 6.89 5.636 12.526 12.526 12.526H296.06c6.888 0 12.524-5.636 12.524-12.526v-219.07zM634.124-51.072c0-6.888-5.638-12.524-12.526-12.524H402.4c-6.888 0-12.526 5.636-12.526 12.524V168c0 6.89 5.638 12.526 12.526 12.526h219.07c6.89 0 12.526-5.636 12.526-12.526v-219.07h0.126zM288.586 493.534a7.44 7.44 0 0 1 7.476-7.474H76.992a7.44 7.44 0 0 1 7.474 7.474v-219.068a7.44 7.44 0 0 1-7.474 7.474H296.06a7.44 7.44 0 0 1-7.476-7.474V493.534z m7.476-231.594H76.992c-6.89 0-12.526 5.636-12.526 12.526V493.534c0 6.89 5.636 12.526 12.526 12.526H296.06c6.888 0 12.524-5.636 12.524-12.526v-219.068c0-6.89-5.636-12.526-12.524-12.526zM939.534 819.072a7.44 7.44 0 0 1 7.474-7.476H727.94a7.44 7.44 0 0 1 7.476 7.476V600a7.44 7.44 0 0 1-7.476 7.474h219.07a7.44 7.44 0 0 1-7.474-7.474V819.072z m7.474-231.596H727.94c-6.888 0-12.524 5.636-12.524 12.526V819.072c0 6.888 5.636 12.524 12.524 12.524h219.07c6.89 0 12.526-5.636 12.526-12.524V600c0-6.89-5.636-12.526-12.526-12.526zM619.534 819.072a7.44 7.44 0 0 1 7.474-7.476H407.94a7.44 7.44 0 0 1 7.476 7.476V600a7.44 7.44 0 0 1-7.476 7.474h219.07a7.44 7.44 0 0 1-7.474-7.474V819.072z m7.474-231.596H407.94c-6.888 0-12.524 5.636-12.524 12.526V819.072c0 6.888 5.636 12.524 12.524 12.524h219.07c6.89 0 12.526-5.636 12.526-12.524V600c0-6.89-5.636-12.526-12.526-12.526z"  horiz-adv-x="1024" />

    
    <glyph glyph-name="chart-vertical-stack-bar" unicode="&#59133;" d="M732.356 526.5740000000001V-85.00999999999999h-189.37V526.5740000000001h189.37z m63.124-126.534h189.37v-485.05H795.48V400.04zM290.494 716.376h189.37v-801.386h-189.37V716.376z m-63.124 135.03v-936.416H38V851.406h189.37zM816.52 357.86199999999997h147.288v-202.926H816.52V357.86199999999997z m-105.204 126.534V230.74h-147.288V484.396h147.288zM59.04 802.12h147.286v-355.676H59.042V802.122z m252.492-432.312V674.2h147.288v-304.388h-147.288z"  horiz-adv-x="1024" />

    
    <glyph glyph-name="citation-map" unicode="&#59136;" d="M553 135.596C673.912 156.046 766 261.268 766 388s-92.088 231.954-213 252.404V725H722V640h256V896H722v-85H296V896H40v-256h256V725h171v-84.596C346.088 619.954 254 514.732 254 388s92.088-231.954 213-252.404V43H296V128H40v-256h256v85h426V-128h256V128H722v-85h-169v92.596zM92 78h154v-156H92v156z m0 768h154v-156H92V846z m680-768h154v-156h-154v156z m0 768h154v-156h-154V846zM510 234c84.5 0 153 68.5 153 153S594.5 540 510 540s-153-68.5-153-153S425.5 234 510 234z"  horiz-adv-x="1024" />

    
    <glyph glyph-name="cog" unicode="&#59137;" d="M512.144 161.948c-114.496 0-207.328 92.8-207.328 207.328 0 114.496 92.832 207.296 207.328 207.296 114.496 0 207.328-92.8 207.328-207.296 0-114.528-92.832-207.328-207.328-207.328m493.76 390.276l-100.64 174.336C876.528 709.664 843.088 700 807.408 700c-107.552 0-194.72 87.776-194.72 196H411.472c0.256-33.408-8.064-67.328-25.952-98.272-53.728-93.056-173.152-124.672-266.848-70.752L18 552.672a192.884 192.884 0 0 0 71.872-71.456c53.632-92.928 21.504-211.904-71.712-266.24l100.64-174.304c28.64 16.704 61.92 26.24 97.408 26.24 107.2 0 194.144-87.168 194.688-194.912h201.248c-0.096 33.088 8.288 66.56 25.952 97.216 53.632 92.896 172.768 124.576 266.4 70.976l100.64 174.336c-28.736 16.416-53.664 40.448-71.392 71.2-53.728 93.056-21.408 212.352 72.16 266.496z"  horiz-adv-x="1024" />

    
    <glyph glyph-name="chemical" unicode="&#59138;" d="M892.052047 183.532308c0-28.736985-3.178338-47.080369-10.385723-59.616493-7.207385-12.400246-21.513846-24.321969-46.369477-38.656L502.764662-106.724431c-24.918646-14.3872-42.403446-20.800985-56.727631-20.800984-14.306462 0-31.818831 6.431508-56.772923 20.846277l-332.498707 191.940923c-24.871385 14.339938-39.187692 26.279385-46.349785 38.644184C3.170816 136.323938-0.035092 154.750031 0.000354 183.587446l0.009847 384.013785c-0.027569 28.864985 3.196062 47.261538 10.277415 59.401846 7.108923 12.445538 21.440985 24.438154 46.458092 38.872615l332.599139 191.994093c22.7328 13.1584 39.384615 20.781292 57.324307 20.789169 15.523446 0 27.301415-5.815138 35.908924-10.0608l3.702153-2.049969 71.412185-41.219939a35.613538 35.613538 0 0 0 16.573046-21.602461 35.540677 35.540677 0 0 0-3.5584-26.988308l-53.980554-93.44a35.570215 35.570215 0 0 0-30.798769-17.774277 65.494646 65.494646 0 0 0-6.537846 0.397785 290.573785 290.573785 0 0 1-29.660554 1.536c-102.571323 0-198.163692-55.1936-249.470031-144.072862-38.466954-66.571815-48.6912-144.163446-28.784246-218.476308 19.904985-74.283323 67.574154-136.394831 134.208985-174.877538 43.640123-25.1904 93.233231-38.5024 143.423015-38.5024 102.923815 0 198.685538 55.156185 249.920985 143.954708 56.818215 98.345354 50.441846 221.256862-16.256 313.117538-1.299692 1.851077-2.158277 3.105477-2.7904 4.117662a35.5584 35.5584 0 0 0-0.714831 36.739938l53.956923 93.451815a35.540677 35.540677 0 0 0 21.592615 16.561231 35.520985 35.520985 0 0 0 26.996185-3.548554l69.198769-39.955692c2.1248-1.209108 2.953846-1.725046 3.759262-2.284308 13.239138-9.058462 21.819077-17.494646 26.832738-26.273477 7.2704-12.508554 10.503877-30.987815 10.456616-59.8528l-0.007877-384.02363zM753.979431 844.356923c13.447877 0 24.359385-10.899692 24.359385-24.349538 0-13.438031-10.911508-24.357415-24.359385-24.357416-13.44 0-24.339692 10.919385-24.339692 24.359385 0 13.447877 10.899692 24.347569 24.339692 24.347569zM697.285278 807.274338c16.925538 0 30.690462-13.764923 30.690461-30.700307 0-16.933415-13.764923-30.688492-30.690461-30.688493-16.935385 0-30.688492 13.745231-30.688493 30.690462 0 16.943262 13.755077 30.698338 30.688493 30.698338zM703.057093 894.501415a21.444923 21.444923 0 0 0 21.458708-21.468553c0-11.848862-9.590154-21.450831-21.458708-21.450831s-21.458708 9.601969-21.458708 21.450831c0 11.866585 9.590154 21.468554 21.458708 21.468553z m-30.824369-558.343877c-21.576862-103.130585-113.022031-180.586338-222.530954-180.586338-117.7088 0-214.535877 89.458215-226.177969 204.114708 73.570462-18.615138 175.312738-7.7312 260.27323 11.244307-6.738708 4.434708-11.199015 12.037908-11.199015 20.708431 0 13.684185 11.098585 24.792615 24.782769 24.792616 13.672369 0 24.765046-11.108431 24.765046-24.792616 0.017723-4.442585-1.238646-8.552369-3.268923-12.156061 14.702277 3.875446 28.691692 7.894646 41.517293 11.976861 121.304615 38.608738 114.971569-40.2176 111.838523-55.301908zM388.350385 445.892923c0 15.488 12.581415 28.061538 28.071385 28.061539 15.478154 0 28.069415-12.573538 28.069415-28.061539 0-15.454523-12.563692-28.053662-28.069415-28.053661-15.489969 0-28.071385 12.563692-28.071385 28.053661z m83.091693 68.846277c0 22.823385 18.540308 41.383385 41.381415 41.383385 22.815508 0 41.338092-18.532431 41.338092-41.383385 0-22.848985-18.522585-41.345969-41.338092-41.345969-22.841108 0-41.381415 18.542277-41.381415 41.345969z"  horiz-adv-x="1024" />

    
    <glyph glyph-name="combine" unicode="&#59139;" d="M511.68 109.14c-52.452-35.66-115.792-56.5-184-56.5C146.708 52.64 0 199.348 0 380.32S146.708 708 327.68 708c68.208 0 131.548-20.84 184-56.5 52.452 35.66 115.792 56.5 184 56.5 180.972 0 327.68-146.708 327.68-327.68s-146.708-327.68-327.68-327.68c-68.208 0-131.548 20.84-184 56.5z m-35.644 26.214C431.912 107.874 379.81 92 324 92c-159.058 0-288 128.942-288 288s128.942 288 288 288c55.632 0 107.58-15.774 151.614-43.092C408.352 564.9 366 477.554 366 380.32c0-97.44 42.528-184.944 110.036-244.966z m69.964 0C590.126 107.874 642.228 92 698.036 92c159.06 0 288 128.942 288 288s-128.94 288-288 288c-55.63 0-107.578-15.774-151.612-43.092 67.26-60.01 109.612-147.354 109.612-244.588 0-97.44-42.528-184.944-110.036-244.966zM511.488 166C577.272 215.328 620 295.05 620 385c0 89.95-42.728 169.672-108.512 219C444.088 555.756 400 475.656 400 385s44.09-170.756 111.488-219z"  horiz-adv-x="1024" />

    
    <glyph glyph-name="cross-bold" unicode="&#59140;" d="M67.216 647.764l154.51 154.51 261.944-261.944L773.946 830.604l153.6-153.6-290.276-290.274 288.456-288.456-154.51-154.51L482.762 232.22 218.996-31.546l-153.6 153.6L329.162 385.82 67.216 647.764z"  horiz-adv-x="1024" />

    
    <glyph glyph-name="copy-to" unicode="&#59141;" d="M698 512c2.266-0.832 4.63-1.732 7.028-2.732 18.788-7.794 31.846-16.82 36.042-21.02l125.146-125.144c4.198-4.198 13.224-17.222 21.052-36.042 0.966-2.4 1.866-4.764 2.732-7.028L698 320v192z m125.004 13.98C797 553.492 745.628 576 708.86 576h-264C408.086 576 378 544.18 378 505.286v-562.572C378-96.178 408.086-128 444.858-128H887.14C923.914-128 954-96.18 954-57.286v374c0 38.894-21.282 93.226-47.268 120.71l-83.728 88.558zM378 832c2.266-0.832 4.63-1.732 7.028-2.732 18.788-7.794 31.846-16.82 36.042-21.02l125.146-125.144c4.198-4.198 13.224-17.222 21.052-36.042 0.966-2.4 1.866-4.764 2.732-7.028L378 640V832z m-64-640H124.858C88.086 192 58 223.82 58 262.714V825.286C58 864.178 88.086 896 124.858 896h264c36.77 0 88.14-22.51 114.146-50.02l83.728-88.556c12.466-13.186 23.85-32.55 32.32-53.424H318.004c-2.212 0-4.004-1.8-4.004-3.988V192z"  horiz-adv-x="1024" />

    
    <glyph glyph-name="cross-circle" unicode="&#59142;" d="M767.500975 548.530651l-165.18138-165.18138L767.500975 218.167891v-90.319595h-90.351533L512 293.029676l-165.18138-165.18138H256.499025v90.351532l165.18138 165.149443L256.499025 548.530651v90.319595h90.319595L512 473.668865l165.18138 165.181381H767.500975v-90.319595zM512 894.35122c-282.232764 0-511.001949-228.769185-511.001949-511.001949s228.769185-511.001949 511.001949-511.001949 511.001949 228.769185 511.001949 511.001949-228.769185 511.001949-511.001949 511.001949z"  horiz-adv-x="1024" />

    
    <glyph glyph-name="comment" unicode="&#59143;" d="M831.96 64.08H448.096l-128.026-191.98-128.028 191.98C86.048 64.08 0.002 150.208 0.002 256.06V704.018C0.002 809.874 86.048 896 192.042 896H831.962C938.064 896 1024.002 809.874 1024.002 704.018V256.06c0-105.852-85.938-191.98-192.042-191.98z m62.74 639.938c0 35.286-28.46 63.994-63.924 63.994H191.77c-35.244 0-63.922-28.708-63.922-63.994V256.06c0-35.284 28.68-63.994 63.92-63.994h42.692l85.154-127.984 85.16 127.984h426.002c35.464 0 63.924 28.71 63.924 63.994V704.018z"  horiz-adv-x="1024" />

    
    <glyph glyph-name="cross-large" unicode="&#59144;" d="M112.47 693.02l90.51 90.51 307.2-307.2L819.2 785.35l89.6-89.6-309.02-309.02 307.2-307.2-90.51-90.51-307.2 307.2-309.02-309.02-89.6 89.6 309.02 309.02-307.2 307.2z"  horiz-adv-x="1024" />

    
    <glyph glyph-name="chart-keywords" unicode="&#59145;" d="M765.050269 243.849552v-14.932059c0-20.709254-1.66591-35.549612-4.967165-44.521075a60.981493 60.981493 0 0 0-16.170029-23.827105c-5.792478-5.517373-12.349134-9.109015-19.669971-10.774925-7.320836-1.650627-16.918925-2.47594-28.794268-2.47594-16.842507 0-30.582448 2.552358-41.219821 7.657074-10.62209 5.104716-18.569552 13.755224-23.811821 25.890388-2.216119 5.807761-3.866746 13.541254-4.967164 23.200478a278.176478 278.176478 0 0 0-1.665911 31.484179v66.284896c0 12.425552 0.351522 22.008358 1.039284 28.778985 0.687761 6.770627 2.414806 12.914627 5.181134 18.447283 5.242269 11.034746 13.449552 19.257313 24.637135 24.637135 11.187582 5.395104 24.514866 8.085015 39.98185 8.085015 27.342328 0 46.400955-7.59594 57.160597-22.772538 5.532657-7.748776 9.124299-16.720239 10.774926-26.944955 1.66591-10.209433 2.491224-23.185194 2.491224-38.927284h-58.001194v34.38806c0 11.034746-3.316537 16.552119-9.934329 16.55212-4.141851 0-6.770627-1.727045-7.871045-5.165851-1.115701-3.45409-1.66591-9.735642-1.66591-18.85994v-109.766687c0-8.558806 0.825313-14.916776 2.491224-19.058627 1.650627-4.141851 4.69206-6.220418 9.109015-6.220418 4.69206 0 7.672358 2.552358 8.910328 7.672358 1.23797 5.104716 1.864597 12.899343 1.864597 23.399165V243.849552h55.097314z m88.232119-96.133731h-66.284895V432.754627h66.284895V147.715821z m171.497075 94.452537V215.269254c-0.550209-10.499821-2.200836-19.608836-4.967164-27.342329-4.69206-14.091463-12.838209-24.377313-24.453732-30.872835-11.584955-6.480239-26.501731-9.720358-44.719761-9.720359h-7.045731c-10.499821 0-18.783522 0.550209-24.851105 1.650627-6.082866 1.100418-12.012896 3.866746-17.820657 8.283702a48.953313 48.953313 0 0 0-18.844656 28.381612c-2.903881 11.737791-4.355821 27.968955-4.355821 48.678209v74.140656c0 4.707343 0.412657 9.674507 1.253254 14.916776 2.751045 19.88394 10.010746 34.724299 21.748537 44.536359 11.722507 9.796776 27.816119 14.702806 48.250269 14.702806 37.29194 0 61.042627-13.52597 71.252059-40.593194 1.941015-4.69206 3.178985-10.912478 3.729194-18.645971 0.550209-7.733493 0.825313-15.74209 0.825314-24.025791v-57.160597z m-64.191045-44.735045V322.56c0 9.384119-0.703045 15.329433-2.078567 17.805373-1.375522 2.491224-3.866746 3.729194-7.458388 3.729194-4.69206 0-7.458388-2.414806-8.283702-7.244418a84.472358 84.472358 0 0 1-1.253254-14.290149v-117.653015c0-6.342687 0.626627-11.248716 1.864597-14.702806 1.253254-3.45409 3.805612-5.181134 7.672359-5.181134 6.342687 0 9.521672 4.141851 9.521671 12.425552z m231.974209-49.702209h-65.459582l1.23797 19.471284c-4.69206-7.183284-9.873194-12.288-15.528119-15.329433-5.654925-3.041433-13.052179-4.554507-22.161195-4.554507h-4.967164c-6.633075 0-12.150448 0.473791-16.567403 1.45194-4.432239 0.962866-8.436537 3.362388-12.028179 7.244418a41.112836 41.112836 0 0 0-10.346985 20.923224c-1.375522 7.871045-2.078567 19.532418-2.078567 34.999403V381.371224h64.634269V200.749851c0-5.242269 0.611343-9.170149 1.864597-11.798926 1.23797-2.628776 3.515224-3.943164 6.831761-3.943164 4.967164 0 8.146149 2.628776 9.521671 7.871045 0.550209 2.216119 0.825313 6.082866 0.825314 11.615522V381.35594h64.221612V147.715821z m169.418507 0H1298.187463v16.98006c-6.342687-6.633075-12.624239-11.187582-18.844657-13.663522-6.205134-2.491224-13.602388-3.729194-22.161194-3.729194-8.008597 0-15.191881 1.23797-21.549851 3.729194a30.597731 30.597731 0 0 0-14.901492 12.012895c-2.491224 4.416955-4.218269 9.873194-5.181135 16.353433a158.353194 158.353194 0 0 0-1.45194 23.001791V319.228179c0 15.466985 0.687761 27.128358 2.078567 34.999403 1.375522 7.871045 5.242269 14.71809 11.600239 20.510567a21.397015 21.397015 0 0 0 7.244418 3.943164c2.903881 0.962866 6.969313 1.436657 12.226866 1.436657h10.346985c9.934328 0 17.820657-0.764179 23.613134-2.277254 5.807761-1.513075 11.462687-5.303403 16.98006-11.386268v66.284895h63.793671V147.715821z m-63.793671 66.697553v108.116059c0 8.283701-0.550209 13.938627-1.650627 16.98006-1.100418 3.041433-4.004299 4.554507-8.711642 4.554508-6.617791 0-9.934328-4.967164-9.934328-14.901493v-120.969552c0-8.83391 0.412657-14.916776 1.253253-18.233314 0.825313-3.301254 3.438806-4.967164 7.871045-4.967164 5.792478 0 9.109015 3.178985 9.934329 9.536955 0.825313 6.342687 1.23797 12.975761 1.23797 19.868657zM491.672836-64.695403c0-5.609075-0.137552-9.919045-0.42794-12.914627a33.226507 33.226507 0 0 0-2.460657-9.414686c-7.55009-17.79009-25.034507-26.685134-52.483821-26.685135-17.209313 0-29.497313 3.28597-36.833433 9.857911-7.336119 6.57194-11.019463 16.536836-11.019463 29.864119h43.206687c0-7.152716 2.598209-10.729075 7.825194-10.729075 3.484657 0 5.700776 1.40609 6.678925 4.218269 0.962866 2.796896 1.45194 6.999881 1.451941 12.608955v12.471403c-4.447522-3.866746-8.40597-6.724776-11.890627-8.558806-3.484657-1.83403-8.023881-2.751045-13.632955-2.751044a39.12597 39.12597 0 0 0-16.536836 3.33182 26.348896 26.348896 0 0 0-11.157015 9.139583 30.689433 30.689433 0 0 0-4.936597 13.189731 141.785791 141.785791 0 0 0-1.008717 18.707104v59.453135c0 14.488836 2.277254 24.912239 6.816478 31.300776 4.539224 6.388537 12.517254 9.567522 23.918806 9.567522 6.388537 0 11.64609-0.917015 15.803224-2.751045s8.069731-5.074149 11.753074-9.705074l3.178986 12.456119h41.754746v-142.656955z m-44.933732 48.708776V38.52991c0 4.829612-0.397373 8.253134-1.161552 10.301135-0.764179 2.017433-2.613493 3.041433-5.502089 3.041433-2.720478 0-4.508657-1.543642-5.379821-4.646209-0.871164-3.087284-1.299104-7.244418-1.299105-12.471403v-55.097314c0-6.57194 0.336239-11.111164 1.008717-13.617671 0.687761-2.521791 2.368955-3.775045 5.074149-3.775045 4.829612 0 7.259701 7.244418 7.259701 21.748537z m134.541374 39.141254h-3.194269c-11.202866 0-18.172179-3.576358-20.877373-10.729075-1.727045-4.432239-2.598209-15.558687-2.598209-33.333492v-64.664836h-44.949015v163.534328h44.933731l-2.017433-21.458149c3.469373 7.733493 7.045731 13.342567 10.729075 16.81194 4.630925 4.279403 10.637373 6.78591 17.973493 7.55009v-57.710806z m115.131223-42.625911v-18.844656c-0.397373-7.336119-1.558925-13.724657-3.484656-19.135045-3.28597-9.85791-8.986746-17.056478-17.117612-21.610985-8.100299-4.539224-18.554269-6.801194-31.31606-6.801194h-4.921313c-7.336119 0-13.143881 0.38209-17.408 1.146268a29.206925 29.206925 0 0 0-12.45612 5.807762 34.265791 34.265791 0 0 0-13.205015 19.868656c-2.032716 8.207284-3.041433 19.562985-3.041432 34.067105V26.929672c0 3.28597 0.290388 6.770627 0.871164 10.438686 1.925731 13.90806 6.999881 24.300896 15.222447 31.178508 8.222567 6.862328 19.471284 10.285851 33.776717 10.28585 26.104358 0 42.732896-9.475821 49.885612-28.427462 1.344955-3.270687 2.216119-7.626507 2.598209-13.036896 0.397373-5.410388 0.59606-11.004179 0.596059-16.81194V-19.486567z m-44.949014-31.316059v87.574925c0 6.57194-0.489075 10.729075-1.451941 12.471403-0.962866 1.742328-2.705194 2.598209-5.226985 2.598209-3.28597 0-5.211701-1.681194-5.807761-5.058866a59.147463 59.147463 0 0 1-0.855881-10.010746v-82.34794c0-4.447522 0.42794-7.886328 1.299105-10.301135 0.871164-2.414806 2.659343-3.622209 5.364537-3.622208 4.447522 0 6.678925 2.903881 6.678926 8.711641z m162.388059-34.785433h-45.820179l0.871164 13.617672c-3.28597-5.028299-6.908179-8.604657-10.88191-10.729075-3.958448-2.124418-9.124299-3.178985-15.512836-3.178985h-3.469373c-4.646209 0-8.512955 0.336239-11.615522 1.008716a16.139463 16.139463 0 0 0-8.405971 5.074149 28.794269 28.794269 0 0 0-7.244418 14.641672c-0.962866 5.50209-1.45194 13.678806-1.45194 24.499582v118.600597h45.239403v-126.425791c0-3.66806 0.443224-6.419104 1.299105-8.253134 0.871164-1.83403 2.47594-2.751045 4.799044-2.751045 3.469373 0 5.700776 1.83403 6.663642 5.50209 0.38209 1.528358 0.580776 4.248836 0.580776 8.100298v123.827582h44.933732v-163.534328z m119.471761 49.57994c0-17.392716-1.45194-29.390328-4.35582-35.962268-4.248836-9.659224-13.052179-14.488836-26.394747-14.488836-6.174567 0-11.401552 1.100418-15.650388 3.331821-4.248836 2.216119-8.314269 6.128716-12.181015 11.737791v-37.689314h-44.658627V77.961552h45.82018l-1.161553-14.488836c3.66806 5.410388 7.871045 9.231284 12.608956 11.462687 4.73791 2.216119 10.209433 3.316537 16.384 3.316537 5.425672 0 10.209433-0.81003 14.366567-2.445373 4.157134-1.650627 7.443104-4.416955 9.85791-8.283701 2.414806-3.866746 3.912597-8.161433 4.493373-12.899344 0.580776-4.73791 0.871164-11.936478 0.871164-21.595701v-69.020657z m-45.239403-11.309851v86.703762c0 4.065433-0.198687 7.152716-0.580776 9.277134-0.38209 2.139701-2.231403 3.194269-5.502089 3.194269-4.844896 0-7.259701-4.646209-7.259702-13.90806v-84.976717c0-8.314269 2.414806-12.471403 7.244418-12.471402 2.521791 0 4.157134 1.024 4.936597 3.056716 0.764179 2.017433 1.161552 5.058866 1.161552 9.124298zM205.762866 247.487045c0-4.004299-0.106985-7.076299-0.305672-9.216-0.21397-2.139701-0.794746-4.386388-1.772895-6.724776-5.379821-12.71594-17.881791-19.07391-37.490627-19.073911-12.288 0-21.045493 2.353672-26.287762 7.045732-5.257552 4.69206-7.886328 11.814209-7.886328 21.33588h30.872836c0-5.104716 1.849313-7.672358 5.578507-7.672358 2.491224 0 4.080716 1.008716 4.768478 3.010866 0.687761 2.002149 1.039284 5.013015 1.039284 9.017313V254.089552c-3.178985-2.751045-6.006448-4.799045-8.497672-6.113433-2.47594-1.299104-5.731343-1.956299-9.735642-1.956298-4.416955 0-8.344836 0.794746-11.798925 2.384239a18.829373 18.829373 0 0 0-7.97803 6.510806 21.916657 21.916657 0 0 0-3.515224 9.42997 101.269015 101.269015 0 0 0-0.733612 13.357851v42.457791c0 10.362269 1.62006 17.820657 4.875463 22.375164 3.240119 4.554507 8.940896 6.831761 17.087045 6.831761 4.554507 0 8.314269-0.657194 11.279283-1.956299 2.980299-1.314388 5.777194-3.637493 8.40597-6.938746l2.26197 8.895045h29.833553v-101.895642z m-32.095523 34.785433v38.942567c0 3.45409-0.290388 5.899463-0.840597 7.351403-0.550209 1.45194-1.864597 2.185552-3.92788 2.185552-1.941015 0-3.209552-1.115701-3.836179-3.316537a34.082388 34.082388 0 0 1-0.932299-8.910329v-39.355224c0-4.69206 0.244537-7.947463 0.718328-9.735641 0.489075-1.788179 1.681194-2.68991 3.622209-2.689911 3.45409 0 5.196418 5.181134 5.196418 15.52812z m96.103164 27.968955h-2.292537c-8.008597 0-12.975761-2.552358-14.901492-7.657075-1.253254-3.178985-1.864597-11.126448-1.864597-23.827104v-46.186985h-32.095523v116.812418h32.095523l-1.451941-15.329433c2.47594 5.532657 5.043582 9.536955 7.657075 12.012895 3.316537 3.056716 7.59594 4.844896 12.838209 5.395105v-41.219821z m82.225672-30.444896v-13.464836a48.296119 48.296119 0 0 0-2.491224-13.678805c-2.338388-7.030448-6.419104-12.181015-12.226865-15.436418-5.792478-3.240119-13.250866-4.860179-22.359881-4.860179h-3.515224c-5.257552 0-9.399403 0.275104-12.440836 0.825313a20.86209 20.86209 0 0 0-8.895045 4.157134 24.469015 24.469015 0 0 0-9.42997 14.183164c-1.45194 5.868896-2.170269 13.984478-2.170268 24.331463V312.931343c0 2.353672 0.198687 4.829612 0.611343 7.458388 1.375522 9.934328 5.013015 17.362149 10.88191 22.268179 5.868896 4.890746 13.90806 7.351403 24.132777 7.351403 18.64597 0 30.50603-6.770627 35.610746-20.296597 0.978149-2.353672 1.604776-5.456239 1.87988-9.322985 0.275104-3.866746 0.412657-7.871045 0.412657-12.012895v-28.580299z m-32.095522-22.375164v62.555702c0 4.69206-0.351522 7.657075-1.054567 8.910328-0.687761 1.23797-1.925731 1.864597-3.729194 1.864597-2.338388 0-3.71391-1.222687-4.126568-3.637493-0.42794-2.414806-0.626627-4.799045-0.626627-7.137432v-58.826508c0-3.178985 0.305672-5.624358 0.917015-7.351403 0.626627-1.727045 1.910448-2.598209 3.83618-2.598209 3.178985 0 4.768478 2.078567 4.768477 6.220418z m115.971821-24.851104h-32.706866l0.611343 9.735641c-2.353672-3.591642-4.936597-6.144-7.764059-7.672358-2.842746-1.513075-6.52609-2.277254-11.080597-2.277253h-2.491224c-3.316537 0-6.082866 0.244537-8.283702 0.733611a11.523821 11.523821 0 0 0-6.006448 3.622209 20.556418 20.556418 0 0 0-5.181134 10.453971c-0.687761 3.943164-1.039284 9.781493-1.039284 17.499701v84.716896h32.309493v-90.295403c0-2.628776 0.305672-4.585075 0.932299-5.914747 0.626627-1.314388 1.772896-1.956299 3.423522-1.956298 2.491224 0 4.080716 1.299104 4.768478 3.92788 0.275104 1.100418 0.412657 3.041433 0.412656 5.807762v88.430806h32.095523v-116.812418z m85.343522 35.412059c0-12.425552-1.039284-20.984358-3.102567-25.676418-3.056716-6.908179-9.322985-10.362269-18.85994-10.362268-4.416955 0-8.146149 0.794746-11.172299 2.384239-3.056716 1.589493-5.945313 4.386388-8.711642 8.390686v-26.929671h-31.896836v133.593791h32.737433l-0.840597-10.346986c2.628776 3.866746 5.639642 6.587224 9.017314 8.176717 3.377672 1.589493 7.290269 2.384239 11.707224 2.384239 3.866746 0 7.274985-0.59606 10.24-1.757612a14.351284 14.351284 0 0 0 7.045731-5.914746c1.727045-2.751045 2.796896-5.823045 3.209552-9.216 0.412657-3.377672 0.626627-8.528239 0.626627-15.436418v-49.289553z m-32.309493-8.069731V321.841672a39.737313 39.737313 0 0 1-0.412656 6.633074c-0.275104 1.513075-1.589493 2.277254-3.943164 2.277254-3.45409 0-5.181134-3.316537-5.181135-9.934328v-60.706388c0-5.93003 1.727045-8.895045 5.196418-8.895045 1.788179 0 2.949731 0.718328 3.515224 2.170268a19.410149 19.410149 0 0 1 0.825313 6.52609zM228.183881 676.145672l-25.370747-210.271523H133.12c-3.240119 20.388299-7.580657 54.05803-13.052179 101.039761a903.718209 903.718209 0 0 0-5.593791-46.232835 4951.788896 4951.788896 0 0 1-8.57409-54.806926H36.160955L8.956179 676.145672h55.173731c0-6.709493 0.748896-16.277015 2.231403-28.702568 3.729194-30.567164 7.580657-61.134328 11.554388-91.701492 0 13.663522 2.491224 36.894567 7.458389 69.693134 3.484657 22.375164 5.838328 39.278806 7.091582 50.710926h52.575522c8.940896-73.055522 13.418985-113.205493 13.418985-120.419344 0 15.910209 1.482507 35.167522 4.462806 57.787224 1.986866 14.167881 5.349254 35.045254 10.071881 62.63212h55.173731z m148.373015-125.264239v-24.239761c-0.489075-9.445254-1.986866-17.637254-4.47809-24.606568-4.218269-12.67009-11.554388-21.93194-21.993075-27.770268-10.438687-5.838328-23.857672-8.757493-40.256955-8.757493h-6.342686c-9.445254 0-16.903642 0.489075-22.375165 1.482508a37.551761 37.551761 0 0 0-16.032477 7.458388c-8.696358 6.464955-14.351284 14.97791-16.964776 25.538865-2.598209 10.560955-3.912597 25.17206-3.912597 43.81803v66.72812c0 4.233552 0.38209 8.711642 1.115701 13.418985 2.491224 17.897075 9.017313 31.254925 19.578269 40.088836 10.560955 8.818627 25.034507 13.235582 43.43594 13.235582 33.547463 0 54.929194-12.181015 64.129911-36.543045 1.742328-4.218269 2.85803-9.81206 3.362388-16.781373 0.489075-6.95403 0.733612-14.167881 0.733612-21.626269v-51.444537z m-57.787224-40.272239v112.594149c0 8.451821-0.611343 13.801075-1.864597 16.047761-1.23797 2.231403-3.484657 3.347104-6.724776 3.347105-4.218269 0-6.694209-2.170269-7.443105-6.52609a76.035821 76.035821 0 0 1-1.115701-12.868776V517.33397c0-5.731343 0.550209-10.133015 1.681194-13.235582 1.115701-3.117851 3.408239-4.661493 6.877612-4.661492 5.731343 0 8.589373 3.729194 8.589373 11.172298z m171.879164 95.063881h-4.111284c-14.412418 0-23.353313-4.585075-26.83797-13.785791-2.231403-5.71606-3.362388-20.006209-3.362388-42.870448v-83.142687h-57.77194V676.145672h57.77194l-2.598209-27.586866c4.462806 9.934328 9.063164 17.148179 13.785791 21.626269 5.960597 5.471522 13.678806 8.711642 23.12406 9.689791v-74.186508z m150.237612-139.798926h-57.405135v15.283582c-5.71606-5.960597-11.370985-10.056597-16.964776-12.303283-5.593791-2.231403-12.242149-3.362388-19.945074-3.362388-7.213851 0-13.678806 1.130985-19.394866 3.362388a27.541015 27.541015 0 0 0-13.418985 10.820776 42.79403 42.79403 0 0 0-4.661493 14.718089 142.519403 142.519403 0 0 0-1.299104 20.693971V620.238328c0 13.90806 0.611343 24.407881 1.864597 31.484179 1.23797 7.091582 4.722627 13.250866 10.438687 18.462568a19.257313 19.257313 0 0 0 6.526089 3.545791c2.598209 0.871164 6.266269 1.299104 11.004179 1.299104h9.322985c8.940896 0 16.017194-0.672478 21.244179-2.048 5.211701-1.375522 10.316418-4.783761 15.283582-10.24V722.378507h57.420418v-256.504358z m-57.405135 60.033911V623.18806c0 7.458388-0.504358 12.563104-1.497791 15.283582-0.993433 2.751045-3.606925 4.111284-7.825194 4.111283-5.960597 0-8.940896-4.47809-8.940895-13.418985v-108.864955c0-7.947463 0.366806-13.434269 1.115701-16.414567 0.733612-2.980299 3.102567-4.462806 7.076299-4.462806 5.226985 0 8.207284 2.85803 8.956179 8.558806 0.733612 5.731343 1.115701 11.69194 1.115701 17.912358zM989.459104 582.885254V559.761194c0-13.90806-0.611343-23.353313-1.849313-28.335761a30.414328 30.414328 0 0 0-16.047761-20.495284c-2.965015-1.497791-8.497672-2.491224-16.582687-2.980298-8.069731-0.504358-18.340299-0.764179-30.750567-0.764179h-106.633552v-12.288h-33.180657v12.303283h-33.562746v58.15403h33.562746v15.283582h33.180657v-15.283582h112.227343c13.418985 0 21.12191 0.626627 23.108776 1.864597 1.986866 1.253254 2.980299 6.464955 2.980299 15.665672h33.562746z m0 149.870806v-56.289433h-18.630686c7.213851-3.729194 12.181015-8.023881 14.916776-12.868776 2.735761-4.844896 4.096-11.86006 4.096-21.060776 0-7.947463-1.054567-14.855642-3.163701-20.693971-2.124418-5.838328-5.410388-10.010746-9.888478-12.486686-4.462806-2.491224-9.628657-4.233552-15.466985-5.226985a112.288478 112.288478 0 0 0-18.829373-1.482508h-17.148179c-15.161313 0-25.538866 1.803463-31.132657 5.395105-5.593791 3.606925-11.493254 12.379701-17.713672 26.287761l-13.052179 29.084657c-2.231403 4.47809-4.890746 7.519522-8.008597 9.139582-3.102567 1.604776-8.512955 2.414806-16.21588 2.414806-17.652537 0-26.471164-2.980299-26.471165-8.940896 0-2.980299 0.993433-5.349254 2.980299-7.091582 1.986866-1.742328 6.464955-2.598209 13.418985-2.598209h24.239761v-53.691224h-6.724776c-13.403701 0-24.102209 1.054567-32.049672 3.163702-7.947463 2.109134-15.405851 6.770627-22.375164 13.984477a35.763582 35.763582 0 0 0-9.689791 18.829374c-1.23797 7.076299-1.864597 16.704955-1.864597 28.88597 0 14.672239 1.23797 26.41003 3.729194 35.24394 2.491224 8.818627 7.213851 15.528119 14.167881 20.128478 6.95403 4.585075 16.521552 7.397254 28.702567 8.390686 12.181015 0.993433 31.071522 1.482507 56.671522 1.482508h105.517851z m-46.599641-57.771941h-53.309135c6.724776-7.962746 11.676657-12.807642 14.916776-14.54997 5.211701-2.751045 13.663522-4.111284 25.355463-4.111283h13.785791c8.207284 0.764179 12.303284 4.111284 12.303284 10.087164 0 5.700776-4.340537 8.558806-13.052179 8.558806zM962.621134 884.109373c7.213851 0 12.746507-0.183403 16.59797-0.550209 3.851463-0.38209 7.886328-1.436657 12.119881-3.178985 22.864239-9.689791 34.296358-32.187224 34.296358-67.477015 0-22.115343-4.233552-37.903284-12.685373-47.348537-8.436537-9.445254-21.244179-14.167881-38.392358-14.167881V806.957851c9.200716 0 13.785791 3.362388 13.785791 10.056597 0 4.47809-1.788179 7.336119-5.395104 8.574089-3.606925 1.253254-9.017313 1.864597-16.215881 1.864597h-16.047761c4.982448-5.71606 8.650507-10.805493 11.004179-15.283582 2.368955-4.47809 3.545791-10.316418 3.545791-17.514985 0-7.947463-1.421373-15.039045-4.279403-21.244179-2.873313-6.220418-6.78591-11.004179-11.753075-14.366567-4.967164-3.362388-10.62209-5.471522-16.964776-6.342687-6.342687-0.871164-14.351284-1.299104-24.041074-1.299104h-76.433195c-18.64597 0-32.064955 2.919164-40.272238 8.757492-8.192 5.838328-12.303284 16.093612-12.303284 30.765851 0 8.192 1.192119 14.97791 3.545791 20.327164 2.368955 5.33397 6.52609 10.362269 12.486687 15.084896l-16.032478 4.111283V884.124657h183.433552z m-62.632119-57.77194H829.898507c-6.220418 0-10.62209-0.504358-13.235582-1.497791-2.598209-0.993433-3.912597-3.362388-3.912597-7.091582 0-3.484657 1.986866-5.777194 5.960597-6.892896 3.973731-1.115701 9.322985-1.681194 16.047762-1.681194h70.824119c8.451821 0 14.290149 0.443224 17.530269 1.299105 3.209552 0.871164 4.844896 3.056716 4.844895 6.526089 0 6.220418-9.322985 9.322985-27.968955 9.322985z"  horiz-adv-x="1375" />

    
    <glyph glyph-name="cross-middle" unicode="&#59146;" d="M176.47 629.02l90.51 90.51 243.2-243.2L755.2 721.35l89.6-89.6-245.02-245.02 243.2-243.2-90.51-90.51-243.2 243.2-245.02-245.02-89.6 89.6 245.02 245.02-243.2 243.2z"  horiz-adv-x="1024" />

    
    <glyph glyph-name="cross-small" unicode="&#59147;" d="M240.47 565.02l90.51 90.51 179.2-179.2 181.02 181.02 89.6-89.6-181.02-181.02 179.2-179.2-90.51-90.51-179.2 179.2-181.02-181.02-89.6 89.6 181.02 181.02-179.2 179.2z"  horiz-adv-x="1024" />

    
    <glyph glyph-name="custom-fields" unicode="&#59148;" d="M528.145723 282.779569h410.779569V-128h-410.781538V282.779569zM0 282.779569h410.779569V-128H0V282.779569zM0 810.925292h410.779569v-410.781538H0v410.781538zM733.534523 896L1024 605.534523 733.534523 315.069046 443.069046 605.534523 733.534523 896z m0-108.553846l-181.909661-181.911631 181.909661-181.909661 181.911631 181.909661-181.911631 181.911631z"  horiz-adv-x="1024" />

    
    <glyph glyph-name="database" unicode="&#59149;" d="M511.980039 861.068226C264.978464 861.068226 64.873294 775.339665 64.873294 669.462456c0-105.877209 200.10517-191.645692 447.106745-191.645692 246.997583 0 447.146667 85.768483 447.146667 191.645692S758.977622 861.068226 511.980039 861.068226z m0-436.491477C264.978464 424.576749 64.873294 505.576546 64.873294 605.567251v-138.385715C64.873294 367.192827 264.978464 286.191033 511.980039 286.191033c246.997583 0 447.146667 81.001793 447.146667 180.990503V605.567251c0-99.990706-200.149084-180.990503-447.146667-180.990502z m0-191.689607C264.978464 232.887142 64.873294 313.914885 64.873294 413.94152v-138.433621c0-100.024639 200.10517-180.942596 447.106745-180.942597 246.997583 0 447.146667 80.915961 447.146667 180.942597V413.94152c0-100.024639-200.149084-181.054378-447.146667-181.054378z m0-191.513949C264.978464 41.373193 64.873294 122.251228 64.873294 222.315789v-138.433621c0-100.064561 200.10517-180.942596 447.106745-180.942597 246.997583 0 447.146667 80.878035 447.146667 180.942597V222.315789c0-100.064561-200.149084-180.942596-447.146667-180.942596z"  horiz-adv-x="1024" />

    
    <glyph glyph-name="delete" unicode="&#59150;" d="M902.8021100000001 502.567904V-48.240958999999975c0-43.457381-34.995261-78.68592799999999-78.165333-78.68592799999999H199.30674299999998c-43.170072 0-78.167789 35.22854699999999-78.167789 78.68592799999999V502.567904h781.663156z m-625.327578-472.12048h141.665612v472.12048h-141.665612v-472.12048z m312.663789 0h139.222255v472.12048H590.138321v-472.12048zM902.8021100000001 817.314072c43.170072 0 78.165333-35.22854699999999 78.165334-78.68592799999999v-157.374312H42.97362099999998V738.628144C42.97362099999998 782.08307 77.96888200000001 817.314072 121.13895400000001 817.314072h234.498456C355.63740999999993 860.7714530000001 390.635127 896 433.805199 896h156.333122c43.170072 0 78.162878-35.22854699999999 78.162878-78.68592799999999h234.500911z"  horiz-adv-x="1024" />

    
    <glyph glyph-name="demo" unicode="&#59151;" d="M64 672h896v-512H64V672z m532.496-640h309.35c65.38 0 118.154 54.164 118.154 121.264V678.736C1024 745.836 971.224 800 905.846 800H546V864h-68v-64H118.154C52.774 800 0 745.836 0 678.736v-525.472C0 86.164 52.776 32 118.154 32h311.6l-190.826-88.984 28.738-61.628L478-20.532V-96h68v76.516l210.704-98.252 28.738 61.63L596.496 32z"  horiz-adv-x="1024" />

    
    <glyph glyph-name="dot" unicode="&#59152;" d="M192 384a320 320 0 1 1 640 0 320 320 0 1 1-640 0Z"  horiz-adv-x="1024" />

    
    <glyph glyph-name="double-caret-down" unicode="&#59153;" d="M86.197845 435.453593L7.855207 380.421408c-9.396958-8.92711-9.396958-23.418419 0-32.347528l499.752215-465.713234c4.698479-4.462555 10.860484-6.695832 17.024489-6.695832 6.162005 0 12.32401 2.233277 17.022489 6.697831l473.532703 465.711235c9.396958 8.929109 9.396958 23.420418 0 32.349528l-77.796815 55.030185c-9.396958 8.92711-24.652019 8.92711-34.048977 0L524.635909 79.598794 120.244823 435.453593c-9.396958 8.92711-24.652019 8.92711-34.048977 0z m0 453.853074L7.855207 834.274482c-9.396958-8.92711-9.396958-23.418419 0-32.347528l499.752215-465.713234c4.698479-4.462555 10.860484-6.695832 17.024489-6.695832 6.162005 0 12.32401 2.233277 17.022489 6.697831L1015.189102 801.924955c9.396958 8.929109 9.396958 23.420418 0 32.349527L937.392288 889.304667c-9.396958 8.92711-24.652019 8.92711-34.048978 0L524.635909 533.451868 120.244823 889.306667c-9.396958 8.92711-24.652019 8.92711-34.048977 0z"  horiz-adv-x="1024" />

    
    <glyph glyph-name="double-caret-left" unicode="&#59154;" d="M879.53 832L429.214 381.684 874.898-64h112.47L541.684 381.684 992 832h-112.47z m-448-64L45.214 381.684 426.898 0h128L173.214 381.684 559.53 768h-128z"  horiz-adv-x="1024" />

    
    <glyph glyph-name="double-caret-right" unicode="&#59155;" d="M144.47 832l450.316-450.316L149.102-64H36.632l445.684 445.684L32 832h112.47z m448-64l386.316-386.316L597.102 0h-128l381.684 381.684L464.47 768h128z"  horiz-adv-x="1024" />

    
    <glyph glyph-name="dislike" unicode="&#59156;" d="M512.004-128C794.75-128 1024 101.25 1024 383.996 1024 666.766 794.75 896 512.004 896 229.252 896 0 666.766 0 384.004 0 101.26 229.25-127.992 512.004-127.992V-128z m0 928.006c229.74 0 415.992-186.26 415.992-416.01 0-229.74-186.252-415.992-415.992-415.992-229.748 0-416 186.25-416 415.992 0 229.75 186.252 416.01 416 416.01zM256.008 576.01c0 35.31 28.682 63.996 63.996 63.996 35.314 0 63.998-28.686 63.998-64.004 0-35.318-28.684-63.998-64-63.998-35.312 0-63.996 28.686-63.996 63.998v0.008z m383.99 0c0 35.31 28.684 63.996 64 63.996 35.32 0 64.004-28.686 64.004-64.004 0-35.318-28.684-63.998-64.006-63.998-35.314 0-63.998 28.686-63.998 63.998v0.008z m64.126-448.004l82.312 49.438c-55.938 93.028-157.972 155.31-274.43 155.31-116.47 0-218.446-62.274-274.442-155.312l82.312-49.428c39.22 65.144 110.592 108.746 192.128 108.746 81.52 0 152.9-43.6 192.128-108.746l-0.008-0.008z"  horiz-adv-x="1024" />

    
    <glyph glyph-name="double-caret-up" unicode="&#59157;" d="M86.198884 336.212587L7.856437 391.244637c-9.396935 8.927088-9.396935 23.418362 0 32.347449L507.609432 889.304184c4.698467 4.462544 10.860458 6.695816 17.024447 6.695816 6.16199 0 12.32398-2.233272 17.022448-6.697815l473.531547-465.710099c9.396935-8.929088 9.396935-23.420361 0-32.349448l-77.796625-55.030051c-9.396935-8.927088-24.651959-8.927088-34.048894 0L524.635879 692.066517 120.245779 336.212587c-9.396935-8.927088-24.651959-8.927088-34.048894 0z m0-453.851966L7.856437-62.607329c-9.396935 8.927088-9.396935 23.418362 0 32.347449l499.750996 465.712098c4.698467 4.462544 10.860458 6.695816 17.024447 6.695816 6.16199 0 12.32398-2.233272 17.022448-6.697816l473.531547-465.710098c9.396935-8.929088 9.396935-23.420361 0-32.349449l-77.796625-55.03005c-9.396935-8.927088-24.651959-8.927088-34.048894 0L524.635879 238.214551 120.245779-117.639379c-9.396935-8.927088-24.651959-8.927088-34.048894 0z"  horiz-adv-x="1024" />

    
    <glyph glyph-name="download" unicode="&#59158;" d="M895.251462 128.499025h127.750487v-115.783859c0-77.155306-62.557817-139.717115-139.727095-139.717115H140.725146c-77.167283 0-139.727096 62.553825-139.727095 139.717115V128.499025h127.750487v-57.900912c0-38.576655 31.296873-69.849575 69.863548-69.849575h626.775828c38.584639 0 69.863548 31.280904 69.863548 69.849575V128.499025z m-383.251462 0l-383.251462 383.251462h239.532164V895.001949h287.438596v-383.251462h239.532164l-383.251462-383.251462z"  horiz-adv-x="1024" />

    
    <glyph glyph-name="ellipsis" unicode="&#59160;" d="M702.62768 448.324366h127.750488v-127.750487h-127.750488v127.750487zM447.126706 448.324366h127.750487v-127.750487h-127.750487v127.750487zM191.625731 448.324366h127.750487v-127.750487H191.625731v127.750487z"  horiz-adv-x="1024" />

    
    <glyph glyph-name="download-pdf" unicode="&#59162;" d="M155.84761 192.873294L480.062378-126.502924l324.214768 319.376218H155.84761zM312.389864 703.875244v191.625731h335.345029v-191.625731H312.389864z m-279.454191-447.126706v383.251462h108.068927c40.954012 0 67.647875-1.916257 80.087579-5.750768 19.110674-5.752764 35.111423-18.256343 48.006238-37.514729 12.892819-19.258386 19.33823-44.137793 19.33823-74.638222 0-23.528047 4.794635-56.128374-2.63685-72.161061-7.433481-16.034682-16.875041-28.628086-28.326674-37.776218-11.451634-9.150129-23.092897-15.2063-34.92379-18.170511-16.078596-3.658854-39.361123-5.489279-69.847579-5.489279H100.28014v-131.750674H32.935673z m63.875243 319.376218v-127.750487h39.646565c28.552234 0 47.640951 2.3554 57.268149 7.062207 9.625201 4.710799 17.17246 12.080405 22.635789 22.110814C221.830737 487.579696 224.561404 499.248904 224.561404 512.556912c0 16.378012-3.832515 29.889622-11.501537 40.536827-7.669021 10.645209-17.376062 17.298214-29.123118 19.961013-8.649107 2.046004-26.023173 3.070004-52.128188 3.070004H96.810916z m255.500975 63.875244h140.587415c31.704078 0 55.870877-2.439236 72.502394-7.319704 22.350347-6.623064 41.492959-18.388086 57.431828-35.291072 15.938869-16.906979 28.065185-37.602558 36.380944-62.090729 8.315758-24.486175 12.473637-54.681201 12.473637-90.58308 0-31.546386-3.898386-58.735283-11.693162-81.56669-9.529388-27.885536-23.128827-50.455454-40.800312-67.707758-13.339945-13.074464-31.356756-23.268554-54.052428-30.588257-16.976842-5.403446-39.672515-8.104172-68.085022-8.104172H352.311891v383.251462z m63.875244-63.875244v-255.500974h67.542081c25.264655 0 43.501037 1.227602 54.70715 3.684803 14.671345 3.155836 26.843571 8.507384 36.522667 16.048655 9.677099 7.545263 17.57168 19.955025 23.685739 37.235275 6.112062 17.278253 9.168094 40.828257 9.168093 70.650011 0 29.821754-3.056031 52.715041-9.168093 68.677864-6.114058 15.962823-14.671345 28.418495-25.673856 37.365021-11.002511 8.946526-24.957255 14.998706-41.870222 18.154542-12.631329 2.455205-37.386979 3.684803-74.264951 3.684803H416.187135z m319.376218-319.376218v383.251462h255.500974v-64.833372h-180.247953v-125.826246h155.588117v-64.833372H810.816374v-127.758472H735.563353z"  horiz-adv-x="1024" />

    
    <glyph glyph-name="exclamation-mark" unicode="&#59164;" d="M388.772-126.92H644.12V128.45H388.772V-126.92zM729.26 894.5H303.666l37.852-279.334 85.334-401.6h177.084l83.958 406.912L729.26 894.5z"  horiz-adv-x="1024" />

    
    <glyph glyph-name="export-to-excel" unicode="&#59165;" d="M380.268228 362.284847h473.139634v166.06499L1012.336287 314.839973l-158.930408-213.509863v166.063007h-473.139634c-25.993523 0-47.206855 21.381929-47.206856 47.446856 0.071405 26.176003 21.163746 47.377435 47.206856 47.444874z m380.298824-237.2323v-126.52429c0-69.878047-56.360622-126.526273-125.885609-126.526274H131.392893c-69.523004 0-125.883625 56.648226-125.883625 126.526274V631.15169c0 69.878047 56.360622 126.526273 125.883625 126.526273h503.28855c69.524987 0 125.885609-56.648226 125.885609-126.526273v-126.526274h-94.413711v122.033689a36.593247 36.593247 0 0 1-10.926998 25.725752 36.220352 36.220352 0 0 1-25.832861 10.397409H136.680854c-20.330684 0-36.757876-16.131654-36.757875-36.123161v-623.638263a36.593247 36.593247 0 0 1 10.925015-25.725753 36.220352 36.220352 0 0 1 25.83286-10.397409h492.712628a36.220352 36.220352 0 0 1 25.832861 10.399393 36.593247 36.593247 0 0 1 10.926998 25.723769v122.031705h94.413711z"  horiz-adv-x="1024" />

    
    <glyph glyph-name="eye" unicode="&#59166;" d="M511.301365 479.547384c0-52.992499-42.664671-95.942612-95.305856-95.942612-52.641185 0-95.307852 42.950113-95.307852 95.942612 0 52.960561 42.666667 95.942612 95.307852 95.942612s95.307852-42.982051 95.307852-95.942612m291.197255 24.675805a495.065076 495.065076 0 0 0 153.572055-151.190706c-39.363119-60.825201-91.748803-112.572133-153.572055-151.158768-77.674292-48.499275-167.38308-74.115244-259.427306-74.115243-92.046222 0-181.75501 25.615969-259.429302 74.115243-61.823251 38.584639-114.208936 90.333567-153.572055 151.158768 39.363119 60.855142 91.748803 112.60407 153.572055 151.190706a418.370869 418.370869 0 0 0 12.200171 7.305731c-10.259961-27.452382-15.849045-57.124429-15.849044-88.081965 0-142.212242 117.791938-257.457154 263.078175-257.457154 145.284242 0 263.078175 115.244912 263.078175 257.457154 0 30.959532-5.589084 60.597645-15.817107 88.048031a389.772725 389.772725 0 0 0 12.166238-7.271797m-291.197255 199.190955C289.584405 703.412148 97.409747 573.44 2.994152 383.60277599999995c94.417591-189.805287 286.590253-319.807376 508.307213-319.807376 221.718955 0 413.85968 130.00209 508.311204 319.807376C925.192982 573.441996 733.02032 703.412148 511.301365 703.412148"  horiz-adv-x="1024" />

    
    <glyph glyph-name="eye2" unicode="&#59167;" d="M150.13090014699475 356.48194152651956a461.3948275987137 461.3948275987137 0 0 1-12.941170860510603-18.139422725393803 66.43464512253789 66.43464512253789 0 0 0-55.024235283268354-29.209222801608252c-12.830275144482613 0-25.77738711918502 3.7427410039012927-37.2036388002507 11.505463148810385-30.337986499315953 20.509825078852458-38.294776570792294 61.80671593835485-17.703759652797864 92.22391390541557C137.18972928648418 575.166938839969 319.7305407572502 672.0722491338388 515.4937239684288 672.0722491338388c195.76120283978048 0 378.2643889480714-96.90531029386983 488.1960226843883-259.2868071764428 20.551411184122067-30.337986499315953 12.594621112645736-71.63685716552462-17.822576854414937-92.18826891433771-30.41719740236966-20.511805450249714-71.67448252799973-12.594621112645736-92.14866261577436 17.74336538667022a460.60469329266385 460.60469329266385 0 0 1-12.903545498035516 18.115659398008592c-51.843895474478146-151.94736835502263-195.80674968784461-261.2591723844716-365.323218087561-261.2591723844716-169.49270507233103 0-313.5070461185715 109.32368569314164-365.3608434500359 261.2849160832542z m211.41536618820206 156.05448188467315a456.68768694678624 456.68768694678624 0 0 1-173.0255357431779-111.22080017622034c35.93229513823172-147.14913457165753 168.88871777195033-256.70847429663615 326.97299337640897-256.70847429663615 158.05655153427898 0 291.0129741679976 109.56924158196497 326.9373478206403 256.72827744591774a456.0559761409165 456.0559761409165 0 0 1-173.14633275150123 111.27426794518254c21.31580179138948-30.444921472549407 33.819329772597904-67.51390122938692 33.819329207906875-107.50578324249875 0-103.65214595787849-83.99780405303973-187.65193038231547-187.64995001091833-187.65193038231547s-187.69153611618788 83.99978442443697-187.69153611618788 187.65193038231547c0 39.96217757153486 12.49362612422206 77.00145288679532 33.783684216829066 107.4325123242549z"  horiz-adv-x="1024" />

    
    <glyph glyph-name="exit-full-screen" unicode="&#59168;" d="M1000.7062 58.178787c12.839236 0 23.279977-10.395449 23.279976-23.242561v-139.642445c0-12.87862-10.440741-23.281946-23.281946-23.281946h-139.642445c-12.874682 0-23.240592 10.405295-23.240592 23.281946a23.193331 23.193331 0 0 0 23.240592 23.242561h116.364438v116.399884c0 12.847113 10.440741 23.242562 23.279977 23.242561z m0 279.292767c12.839236 0 23.279977-10.411203 23.279976-23.287853v-139.632599c0-12.847113-10.440741-23.287853-23.279976-23.287854s-23.279977 10.440741-23.279977 23.287854v139.632599c0 12.87862 10.440741 23.289823 23.279977 23.289822z m0 279.241567c12.839236 0 23.279977-10.405295 23.279976-23.279976v-139.60503c0-12.87862-10.440741-23.281946-23.279976-23.281946s-23.279977 10.405295-23.279977 23.281946v139.60503c0 12.874682 10.440741 23.279977 23.279977 23.279976z m0 279.28489c12.839236 0 23.279977-10.403326 23.281945-23.278007v-139.607c0-12.876651-10.440741-23.279977-23.281945-23.279976-12.839236 0-23.279977 10.403326-23.279977 23.279976V849.438058h-116.362468c-12.876651 0-23.242562 10.440741-23.242562 23.279976 0 12.87862 10.365911 23.279977 23.242562 23.279977h139.642445zM721.41934-81.463658c12.839236 0 23.278007-10.369849 23.279977-23.242561 0-12.87862-10.44271-23.281946-23.279977-23.281946h-139.605029a23.256346 23.256346 0 0 0-23.281946 23.281946c0 12.874682 10.405295 23.242562 23.281946 23.242561h139.605029z m0 977.461669c12.839236 0 23.278007-10.403326 23.279977-23.279977 0-12.839236-10.44271-23.279977-23.279977-23.279976h-139.605029c-12.87862 0-23.281946 10.440741-23.281946 23.279976A23.256346 23.256346 0 0 0 581.81628 895.99998h139.60503zM302.529421 849.440027c-12.839236 0-23.279977 10.440741-23.279977 23.279977C279.249444 885.596655 289.690185 895.99998 302.529421 895.99998h139.642445c12.839236 0 23.281946-10.405295 23.281945-23.279976 0-12.839236-10.44271-23.279977-23.281945-23.279977H302.529421z m-139.606999-930.903685a23.216962 23.216962 0 0 0 23.242561-23.242561c0-12.87862-10.405295-23.281946-23.242561-23.281946H23.242562C10.403326-127.988165 0-117.58287 0-104.706219v139.642445c0 12.847113 10.403326 23.242562 23.242562 23.242561 12.874682 0 23.279977-10.395449 23.279976-23.242561v-116.399884h116.399884z m0 977.461669c12.839236 0 23.242562-10.403326 23.242561-23.278007 0-12.839236-10.403326-23.279977-23.242561-23.279977h-116.399884v-116.327023A23.256346 23.256346 0 0 0 23.242562 709.831059C10.403326 709.831059 0 720.236354 0 733.113004V872.718034C0 885.596655 10.403326 895.99998 23.242562 895.99998h139.67986zM23.242562 430.546169C10.403326 430.546169 0 440.951464 0 453.828115v139.60503c0 12.874682 10.403326 23.279977 23.242562 23.279976a23.256346 23.256346 0 0 0 23.279976-23.279976v-139.60503a23.256346 23.256346 0 0 0-23.279976-23.281946z m0-279.28489C10.403326 151.261279 0 161.703989 0 174.551102v139.632599c0 12.87862 10.403326 23.289823 23.242562 23.289822 12.874682 0 23.279977-10.413172 23.279976-23.289822v-139.632599c0-12.847113-10.405295-23.289823-23.279976-23.289823z m418.929304-232.724937c12.839236 0 23.279977-10.369849 23.281945-23.242561 0-12.87862-10.44271-23.281946-23.281945-23.281946H302.529421c-12.839236 0-23.279977 10.405295-23.279977 23.281946 0 12.874682 10.440741 23.242562 23.279977 23.242561h139.642445z m166.437457 548.361406l46.388633-46.047959-134.622934 0.104368v134.725332l46.168081-46.366971 73.870898 73.801977 42.245419-42.215881-74.050097-74.000866z m-250.11895-165.783681l-46.386663 46.049929 134.622934-0.102399v-134.725333l-46.17202 46.363033-73.86696-73.801977-42.247388 42.213912 74.050097 74.002835z"  horiz-adv-x="1024" />

    
    <glyph glyph-name="feature" unicode="&#59169;" d="M472.313513 479.719049h79.372974L607.812865 423.592671v-79.372975l-56.126378-56.126378h-79.372974L416.187135 344.219696v79.372975l56.126378 56.126378zM509.005848 894.908133l68.4543-351.565349L871.216405 747.35632l-200.191001-296.999922L1023.001949 386.902331 671.4366 318.448031 875.450136 24.689778 578.450214 224.88078 514.994152-127.095766 446.539852 224.471579 152.783595 20.456047l200.191001 296.999922L0.998051 380.910035l351.565349 68.4543L148.549864 743.122589l296.999922-200.189006L509.005848 894.906136z"  horiz-adv-x="1024" />

    
    <glyph glyph-name="filter" unicode="&#59170;" d="M92.454 757.184c24.048 13.664 57.838 26.624 97.736 37.472C278.54 818.752 392.834 832 512.016 832c119.18 0 233.476-13.248 321.858-37.344 39.866-10.88 73.688-23.84 97.738-37.472 15.85-8.992 24.4-16.64 28.388-21.184-3.986-4.544-12.54-12.16-28.388-21.184-24.05-13.664-57.872-26.624-97.738-37.472C745.494 653.248 631.198 640 512.016 640c-119.18 0-233.476 13.248-321.858 37.344-39.866 10.88-73.688 23.84-97.738 37.472C76.57 723.84 67.986 731.456 64 736c3.986 4.512 12.57 12.16 28.454 21.184M512 896C229.216 896 0 824.352 0 736v-96l384-384v-320c0-35.392 57.312-64 128-64s128 28.608 128 64V256l384 384V736c0 88.352-229.216 160-512 160"  horiz-adv-x="1024" />

    
    <glyph glyph-name="flip-it" unicode="&#59171;" d="M232.92906 720.662456C176.910472 713.488468 120.891883 706.310487 64.873294 752.350565v-725.439126c56.018589-48.840608 112.037177-41.664624 168.055766-34.486644 56.018589 7.177981 112.037177 70.372554 168.055767 77.550534 56.018589 7.177981 56.018589 7.177981 112.037177-41.664623V738.874885c-56.018589 46.040078-56.018589 63.715556-112.037177 56.539571-56.018589-7.177981-125.389099-69.284678-168.055767-74.750004z m280.092944-313.81508v-378.538666c56.018589 48.842604 56.018589 48.842604 112.037177 41.664623s112.037177-70.372554 168.055766-77.550534c56.018589-7.177981 112.037177-14.353965 168.055766 34.486643V752.348569c-56.018589-46.040078-112.037177-38.862097-168.055766-31.684117-38.874074 4.980273-99.91685 56.978713-152.829505 71.612133L621.785575 531.432047l-108.763571-124.584671z"  horiz-adv-x="1024" />

    
    <glyph glyph-name="folder" unicode="&#59172;" d="M2 566v22.8C2 652.39 54.776 704 120.154 704h787.692C973.226 704 1026 652.39 1026 588.8V566H2z m0-80v-434.8C2-12.39 54.776-64 120.154-64h787.692c65.38 0 118.154 51.61 118.154 115.2V486H2zM327.82 832H124.18C56.576 832 2 782.848 2 722.286V576s12.22 109.714 122.18 109.714H450V722.286C450 782.848 395.426 832 327.82 832"  horiz-adv-x="1026" />

    
    <glyph glyph-name="folder-auto" unicode="&#59173;" d="M218.454 52.972C95.952 64 0 165.444 0 288.956c0 94.256 55.876 175.658 136.788 213.836a266.012 266.012 0 0 0-0.254 11.658C136.534 661.11 257.26 780 406.186 780c112.684 0 209.224-68.066 249.538-164.724 25.008 27.68 61.454 45.114 102.036 45.114 75.406 0 136.534-60.198 136.534-134.456 0-31.066-10.7-59.674-28.668-82.44C956.18 424.092 1024 344.698 1024 249.706c0-109.532-90.164-198.322-201.386-198.322-5.29 0-10.532 0.2-15.72 0.594h-588.44v0.994zM513.98 576.356L296.7 357.866h150.462v-181.334h133.084v181.444h150.224L513.98 576.356z"  horiz-adv-x="1026" />

    
    <glyph glyph-name="folder-new" unicode="&#59174;" d="M2 51.2C2-12.39 54.776-64 120.154-64h787.692C973.224-64 1026-12.39 1026 51.2V486H2v-434.8z m565.672 212.122h120.982v120.98h130.9v-120.98h120.982v-120.902h-120.982v-130.982h-130.9V142.42h-120.982v120.902zM907.846 704H450v18.286C450 782.848 395.426 832 327.818 832H124.182C56.574 832 2 782.848 2 722.286V566h1024v22.8c0 63.59-52.776 115.2-118.154 115.2z"  horiz-adv-x="1026" />

    
    <glyph glyph-name="folder-sharp" unicode="&#59175;" d="M0.426-61.714h836.758l186.39 510.65H189.05zM0.426 769.214v-830.928l131.7 569.374h697.498v119.216H415.054l-129.93 142.338z"  horiz-adv-x="1024" />

    
    <glyph glyph-name="grid" unicode="&#59178;" d="M802.77951 165.63029h291.919822v-218.939867H802.77951v218.939867z m-729.799555 0h291.919822v-218.939867H72.979955v218.939867z m729.799555 583.839643h291.919822v-218.939866H802.77951v218.939866z m0-291.919822h291.919822v-218.939866H802.77951v218.939866z m-729.799555 0h291.919822v-218.939866H72.979955v218.939866z m291.919822 72.979956H72.979955v218.939866h291.919822v-218.939866z m364.899778 0H437.879733v218.939866h291.919822v-218.939866z m0-583.839644H437.879733v218.939867h291.919822v-218.939867z m-291.919822 510.859688h291.919822v-218.939866H437.879733v218.939866z m-437.879733-583.839643h1167.679287V895.429844H0v-1021.719376z"  horiz-adv-x="1167" />

    
    <glyph glyph-name="general" unicode="&#59179;" d="M512.004-128C794.75-128 1024 101.25 1024 383.996 1024 666.766 794.75 896 512.004 896 229.252 896 0 666.766 0 384.004 0 101.26 229.25-127.992 512.004-127.992V-128z m0 928.006c229.74 0 415.992-186.26 415.992-416.01 0-229.74-186.252-415.992-415.992-415.992-229.748 0-416 186.25-416 415.992 0 229.75 186.252 416.01 416 416.01zM256.008 576.01c0 35.31 28.682 63.996 63.996 63.996 35.314 0 63.998-28.686 63.998-64.004 0-35.318-28.684-63.998-64-63.998-35.312 0-63.996 28.686-63.996 63.998v0.008z m383.99 0c0 35.31 28.684 63.996 64 63.996 35.32 0 64.004-28.686 64.004-64.004 0-35.318-28.684-63.998-64.006-63.998-35.314 0-63.998 28.686-63.998 63.998v0.008zM256.208 298.666H768.62v-85.332H256.208v85.332z"  horiz-adv-x="1024" />

    
    <glyph glyph-name="group-name" unicode="&#59180;" d="M513.39-126.78c281.328 0 509.39 228.062 509.39 509.39S794.718 892 513.39 892 4 663.94 4 382.61C4 101.282 232.06-126.78 513.39-126.78z m175.102 242.208c-60.05-34.124-127.864-51.186-203.446-51.186-86.968 0-157.048 27.466-210.24 82.4-53.19 54.936-79.784 128.288-79.784 220.06 0 92.806 29.376 169.068 88.132 228.784 58.756 59.716 134.078 89.574 225.964 89.574 64.968 0 119.972-10.34 165.008-31.02v-83.76c-48.144 30.246-105.474 45.37-171.996 45.37-65.486 0-119.452-22.36-161.9-67.084-42.452-44.724-63.676-103.664-63.676-176.822 0-75.228 19.542-133.78 58.626-175.66 39.086-41.88 91.888-62.82 158.408-62.82 45.814 0 84.77 8.79 116.866 26.37v162.474H480v68.636h208.492v-275.316z"  horiz-adv-x="1024" />

    
    <glyph glyph-name="full-screen" unicode="&#59181;" d="M1000.7062 58.178787c12.839236 0 23.279977-10.395449 23.279976-23.242561v-139.642445c0-12.87862-10.440741-23.281946-23.281946-23.281946h-139.642445c-12.874682 0-23.240592 10.405295-23.240592 23.281946a23.193331 23.193331 0 0 0 23.240592 23.242561h116.364438v116.399884c0 12.847113 10.440741 23.242562 23.279977 23.242561z m0 279.292767c12.839236 0 23.279977-10.411203 23.279976-23.287853v-139.632599c0-12.847113-10.440741-23.287853-23.279976-23.287854s-23.279977 10.440741-23.279977 23.287854v139.632599c0 12.87862 10.440741 23.289823 23.279977 23.289822z m0 279.241567c12.839236 0 23.279977-10.405295 23.279976-23.279976v-139.60503c0-12.87862-10.440741-23.281946-23.279976-23.281946s-23.279977 10.405295-23.279977 23.281946v139.60503c0 12.874682 10.440741 23.279977 23.279977 23.279976z m0 279.28489c12.839236 0 23.279977-10.403326 23.281945-23.278007v-139.607c0-12.876651-10.440741-23.279977-23.281945-23.279976-12.839236 0-23.279977 10.403326-23.279977 23.279976V849.438058h-116.362468c-12.876651 0-23.242562 10.440741-23.242562 23.279976 0 12.87862 10.365911 23.279977 23.242562 23.279977h139.642445zM721.41934-81.463658c12.839236 0 23.278007-10.369849 23.279977-23.242561 0-12.87862-10.44271-23.281946-23.279977-23.281946h-139.605029a23.256346 23.256346 0 0 0-23.281946 23.281946c0 12.874682 10.405295 23.242562 23.281946 23.242561h139.605029z m0 977.461669c12.839236 0 23.278007-10.403326 23.279977-23.279977 0-12.839236-10.44271-23.279977-23.279977-23.279976h-139.605029c-12.87862 0-23.281946 10.440741-23.281946 23.279976A23.256346 23.256346 0 0 0 581.81628 895.99998h139.60503zM302.529421 849.440027c-12.839236 0-23.279977 10.440741-23.279977 23.279977C279.249444 885.596655 289.690185 895.99998 302.529421 895.99998h139.642445c12.839236 0 23.281946-10.405295 23.281945-23.279976 0-12.839236-10.44271-23.279977-23.281945-23.279977H302.529421z m-139.606999-930.903685a23.216962 23.216962 0 0 0 23.242561-23.242561c0-12.87862-10.405295-23.281946-23.242561-23.281946H23.242562C10.403326-127.988165 0-117.58287 0-104.706219v139.642445c0 12.847113 10.403326 23.242562 23.242562 23.242561 12.874682 0 23.279977-10.395449 23.279976-23.242561v-116.399884h116.399884z m0 977.461669c12.839236 0 23.242562-10.403326 23.242561-23.278007 0-12.839236-10.403326-23.279977-23.242561-23.279977h-116.399884v-116.327023A23.256346 23.256346 0 0 0 23.242562 709.831059C10.403326 709.831059 0 720.236354 0 733.113004V872.718034C0 885.596655 10.403326 895.99998 23.242562 895.99998h139.67986zM23.242562 430.546169C10.403326 430.546169 0 440.951464 0 453.828115v139.60503c0 12.874682 10.403326 23.279977 23.242562 23.279976a23.256346 23.256346 0 0 0 23.279976-23.279976v-139.60503a23.256346 23.256346 0 0 0-23.279976-23.281946z m0-279.28489C10.403326 151.261279 0 161.703989 0 174.551102v139.632599c0 12.87862 10.403326 23.289823 23.242562 23.289822 12.874682 0 23.279977-10.413172 23.279976-23.289822v-139.632599c0-12.847113-10.405295-23.289823-23.279976-23.289823z m418.929304-232.724937c12.839236 0 23.279977-10.369849 23.281945-23.242561 0-12.87862-10.44271-23.281946-23.281945-23.281946H302.529421c-12.839236 0-23.279977 10.405295-23.279977 23.281946 0 12.874682 10.440741 23.242562 23.279977 23.242561h139.642445z m152.654971 618.286012l-46.418171 46.079466 134.713518-0.102398v-134.817886L636.920626 494.380014l-73.920128-73.851206-42.272988 42.243449 74.101296 74.050097zM372.928606 230.498269l46.41817-46.083405-134.713517 0.102399V319.337118l46.201557-46.39454 73.920129 73.851207 42.272987-42.241481-74.099326-74.052065z"  horiz-adv-x="1024" />

    
    <glyph glyph-name="history" unicode="&#59182;" d="M627.096 128L448 319.42V576h108.774v-208.45L704 210.194 627.096 128zM512 832C264.564 832 64 631.436 64 384s200.564-448 448-448 448 200.564 448 448S759.436 832 512 832z"  horiz-adv-x="1024" />

    
    <glyph glyph-name="highlight" unicode="&#59183;" d="M451.292454 200.799981l81.261995 81.243995-213.119988 213.119987-81.255995-81.249995L451.292454 200.799981z m123.357992 123.325993l267.169985 267.103984L628.694443 804.395945 361.526459 537.249961l213.123987-213.123987z m-457.569973-35.579998a33.341998 33.341998 0 0 1-2.548-6.262L1.34448-9.552007a33.439998 33.439998 0 0 1 8.413999-32.985998c6.37-6.33 20.993999-10.379999 32.985998-8.452l291.795983 113.225994a33.703998 33.703998 0 0 1 6.26 2.554l10.171999-10.172c8.923999-8.963999 20.639999-13.405999 32.395999-13.405999s23.431999 4.442 32.355998 13.405999l504.33397 504.255971c17.847999 17.927999 17.847999 46.979997 0 64.751996L661.050441 882.631941A45.693997 45.693997 0 0 1 628.694443 895.99994c-11.715999 0-23.431999-4.442-32.355998-13.367999L92.002475 378.33997c-17.809999-17.847999-17.847999-46.939997 0-64.711996l25.075998-25.079998zM905.152427-128H158.166471c-22.211999 0-40.219998 18.005999-40.219998 40.219998 0 22.211999 18.007999 40.219998 40.219998 40.219997h746.985956c22.213999 0 40.219998-18.007999 40.219998-40.219997 0-22.213999-18.005999-40.219998-40.219998-40.219998z"  horiz-adv-x="1024" />

    
    </font>
</defs>
</svg>
